<?xml version="1.0" encoding="UTF-8"?>
<svg version="1.1" xmlns="http://www.w3.org/2000/svg" width="128" height="128">
<path d="M0 0 C5.59071298 5.09629618 8.65412016 10.84474329 9.1640625 18.4453125 C8.88186707 25.36995412 5.95420318 32.04579682 1 37 C0.89348493 38.37995072 0.85382414 39.76516259 0.84228516 41.14916992 C0.82689194 42.47140816 0.82689194 42.47140816 0.81118774 43.82035828 C0.80388641 44.78069473 0.79658508 45.74103119 0.7890625 46.73046875 C0.76098203 48.75065898 0.73231749 50.77084116 0.703125 52.79101562 C0.66192683 55.98608068 0.62505377 59.18099739 0.59863281 62.3762207 C0.5709639 65.45295613 0.5250765 68.52900072 0.4765625 71.60546875 C0.47330963 72.55568405 0.47005676 73.50589935 0.46670532 74.48490906 C0.37029894 79.7063549 -0.00310035 83.52495352 -3 88 C-6.78842473 90.52561648 -9.78533329 90.25391573 -14.16796875 90.1953125 C-15.36018791 90.19106766 -15.36018791 90.19106766 -16.57649231 90.18673706 C-19.11364838 90.17554705 -21.65045072 90.15044491 -24.1875 90.125 C-25.90819802 90.11496866 -27.62890159 90.10584308 -29.34960938 90.09765625 C-33.56654243 90.07561161 -37.78321125 90.04109006 -42 90 C-41.7834375 90.83144531 -41.566875 91.66289063 -41.34375 92.51953125 C-41.0653125 93.60621094 -40.786875 94.69289063 -40.5 95.8125 C-40.2215625 96.89144531 -39.943125 97.97039062 -39.65625 99.08203125 C-39 102 -39 102 -39 105 C-38.32453125 104.95359375 -37.6490625 104.9071875 -36.953125 104.859375 C-29.70116861 104.56594324 -29.70116861 104.56594324 -26.375 106.625 C-24.57791919 109.72904866 -24.41109375 111.46656253 -25 115 C-26.8670991 117.30275556 -28.35647741 118.67823871 -31 120 C-32.73521626 120.10080815 -34.47427399 120.13836626 -36.21240234 120.14526367 C-37.30048187 120.15164352 -38.3885614 120.15802338 -39.50961304 120.16459656 C-41.27989365 120.16626579 -41.27989365 120.16626579 -43.0859375 120.16796875 C-44.29440338 120.17129715 -45.50286926 120.17462555 -46.74795532 120.17805481 C-49.30852883 120.18312552 -51.86910897 120.18546309 -54.4296875 120.18530273 C-58.35167319 120.18748701 -62.27337671 120.20563545 -66.1953125 120.22460938 C-68.67968653 120.22754367 -71.16406191 120.22952822 -73.6484375 120.23046875 C-74.82457611 120.23765427 -76.00071472 120.24483978 -77.2124939 120.25224304 C-78.85406967 120.2476281 -78.85406967 120.2476281 -80.52880859 120.24291992 C-81.49096283 120.24434494 -82.45311707 120.24576996 -83.44442749 120.24723816 C-86.12602867 119.98780739 -87.73175826 119.42630831 -90 118 C-91.92199114 115.43734514 -92.01028636 114.16801051 -91.8125 110.9375 C-90.95369265 107.83258112 -90.52312638 106.88956601 -88 105 C-85.51953125 104.70703125 -85.51953125 104.70703125 -82.8125 104.8125 C-81.224375 104.874375 -79.63625 104.93625 -78 105 C-77.34 100.38 -76.68 95.76 -76 91 C-76.99854004 90.99589111 -77.99708008 90.99178223 -79.02587891 90.98754883 C-82.75002836 90.96568677 -86.47313182 90.91132599 -90.19677734 90.84741211 C-91.80474786 90.82429329 -93.41286848 90.80985076 -95.02099609 90.80444336 C-97.34046299 90.79510804 -99.65758914 90.75402541 -101.9765625 90.70703125 C-102.68930328 90.7109639 -103.40204407 90.71489655 -104.13638306 90.71894836 C-109.81927663 90.55484805 -112.22223441 88.99132279 -116 85 C-117.25816311 81.58485523 -117.13328688 78.17533533 -117.14526367 74.56665039 C-117.15164352 73.26172134 -117.15802338 71.9567923 -117.16459656 70.61231995 C-117.16612525 69.19076576 -117.1672392 67.76921107 -117.16796875 66.34765625 C-117.17118341 64.8856147 -117.17454764 63.42357347 -117.17805481 61.96153259 C-117.18403724 58.89923354 -117.18589559 55.83696268 -117.18530273 52.7746582 C-117.18520109 48.85616496 -117.19885954 44.93785282 -117.21607494 41.0194025 C-117.22720771 38.00047479 -117.22922156 34.98159071 -117.22869301 31.96264458 C-117.22987096 30.51819674 -117.23428234 29.07374771 -117.24202538 27.62932014 C-117.25185174 25.607152 -117.24767614 23.58493057 -117.24291992 21.56274414 C-117.24434494 20.41342911 -117.24576996 19.26411407 -117.24723816 18.07997131 C-116.90490935 13.81540747 -115.85703691 11.02844429 -113.125 7.75 C-109.14024054 4.46843338 -105.04135163 4.87587833 -100.01586914 4.87402344 C-99.32105942 4.8721553 -98.62624969 4.87028717 -97.91038513 4.86836243 C-96.40552706 4.86436738 -94.90066296 4.86228441 -93.39579964 4.86190033 C-90.19403257 4.8584752 -86.99246684 4.8371041 -83.79077053 4.81666946 C-77.83354893 4.7786872 -71.87654611 4.74738738 -65.91918945 4.74951172 C-61.77105959 4.75029892 -57.6236725 4.72693672 -53.47573662 4.6876297 C-51.89735694 4.67717299 -50.31889151 4.67564333 -48.74049568 4.68328094 C-46.53068804 4.69290939 -44.3231299 4.67171523 -42.11352539 4.64355469 C-40.857621 4.63990906 -39.60171661 4.63626343 -38.30775452 4.63250732 C-34.13433305 3.83446756 -32.71412172 2.17944607 -30 -1 C-20.36141344 -7.94304964 -9.11937793 -7.57006426 0 0 Z " fill="#0D0D0E" transform="translate(118,7)"/>
<path d="M0 0 C0.69294159 -0.00043808 1.38588318 -0.00087616 2.099823 -0.00132751 C4.38885738 0.00076153 6.67715812 0.02409691 8.96606445 0.04760742 C10.55361023 0.05320299 12.14116118 0.05747328 13.72871399 0.06047058 C17.90620233 0.07192249 22.08337753 0.10139244 26.26074219 0.13458252 C30.52380131 0.16527606 34.78691105 0.17897437 39.05004883 0.1940918 C47.41412479 0.226262 55.77794629 0.2774623 64.1418457 0.34057617 C64.10812866 1.76080078 64.10812866 1.76080078 64.07373047 3.2097168 C64.05624756 4.45946289 64.03876465 5.70920898 64.02075195 6.99682617 C63.98703491 8.85017578 63.98703491 8.85017578 63.95263672 10.7409668 C64.23549376 16.1221852 65.78304042 20.14206956 69.1418457 24.34057617 C74.4668752 28.8301269 78.9828415 31.48276854 85.9543457 31.46557617 C86.99204102 31.4681543 88.02973633 31.47073242 89.09887695 31.47338867 C92.49308782 31.40307697 92.49308782 31.40307697 97.1418457 30.34057617 C97.1418457 40.24057617 97.1418457 50.14057617 97.1418457 60.34057617 C61.8318457 60.34057617 26.5218457 60.34057617 -9.8581543 60.34057617 C-9.9509668 46.32588867 -9.9509668 46.32588867 -10.0456543 32.02807617 C-10.07296631 29.0795874 -10.10027832 26.13109863 -10.12841797 23.09326172 C-10.13717767 20.76294363 -10.14482283 18.43262096 -10.15112305 16.10229492 C-10.16647095 14.8869104 -10.18181885 13.67152588 -10.19763184 12.41931152 C-10.19799438 11.26241821 -10.19835693 10.1055249 -10.19873047 8.91357422 C-10.20872322 7.40466866 -10.20872322 7.40466866 -10.21891785 5.86528015 C-9.8581543 3.34057617 -9.8581543 3.34057617 -8.76550293 1.5135498 C-5.85517865 -0.27622978 -3.39369569 -0.01801962 0 0 Z " fill="#36A3CC" transform="translate(15.858154296875,16.659423828125)"/>
<path d="M0 0 C35.31 0 70.62 0 107 0 C107 2.97 107 5.94 107 9 C103.62487158 12.37512842 103.62487158 12.37512842 99.82507324 12.38095093 C98.97545517 12.3894104 98.1258371 12.39786987 97.25047302 12.40658569 C96.32154739 12.400513 95.39262177 12.39444031 94.43554688 12.38818359 C93.45481705 12.39344055 92.47408722 12.39869751 91.46363831 12.40411377 C88.21518117 12.4173397 84.9672123 12.40856634 81.71875 12.3984375 C79.46577866 12.40045748 77.21280796 12.40336829 74.95983887 12.40713501 C70.23536969 12.41156189 65.51107053 12.40511549 60.78662109 12.39111328 C54.72336037 12.37402135 48.660498 12.38386057 42.59725189 12.40183067 C37.94420354 12.4126586 33.29125002 12.4092267 28.63819885 12.4014473 C26.40222629 12.39944255 24.16624519 12.40191413 21.93028259 12.40888596 C18.80810664 12.41648401 15.68658054 12.40491898 12.56445312 12.38818359 C11.17106468 12.39729263 11.17106468 12.39729263 9.74952698 12.40658569 C8.89990891 12.39812622 8.05029083 12.38966675 7.17492676 12.38095093 C6.43677986 12.37981985 5.69863297 12.37868877 4.93811798 12.37752342 C3 12 3 12 0 9 C0 6.03 0 3.06 0 0 Z " fill="#E1E5E8" transform="translate(6,81)"/>
<path d="M0 0 C0.69294159 -0.00043808 1.38588318 -0.00087616 2.099823 -0.00132751 C4.38885738 0.00076153 6.67715812 0.02409691 8.96606445 0.04760742 C10.55361023 0.05320299 12.14116118 0.05747328 13.72871399 0.06047058 C17.90620233 0.07192249 22.08337753 0.10139244 26.26074219 0.13458252 C30.52380131 0.16527606 34.78691105 0.17897437 39.05004883 0.1940918 C47.41412479 0.226262 55.77794629 0.2774623 64.1418457 0.34057617 C64.1418457 1.33057617 64.1418457 2.32057617 64.1418457 3.34057617 C29.4918457 3.83557617 29.4918457 3.83557617 -5.8581543 4.34057617 C-6.1881543 21.83057617 -6.5181543 39.32057617 -6.8581543 57.34057617 C26.4718457 57.34057617 59.8018457 57.34057617 94.1418457 57.34057617 C94.1418457 48.43057617 94.1418457 39.52057617 94.1418457 30.34057617 C95.1318457 30.34057617 96.1218457 30.34057617 97.1418457 30.34057617 C97.1418457 40.24057617 97.1418457 50.14057617 97.1418457 60.34057617 C61.8318457 60.34057617 26.5218457 60.34057617 -9.8581543 60.34057617 C-9.9509668 46.32588867 -9.9509668 46.32588867 -10.0456543 32.02807617 C-10.07296631 29.0795874 -10.10027832 26.13109863 -10.12841797 23.09326172 C-10.13717767 20.76294363 -10.14482283 18.43262096 -10.15112305 16.10229492 C-10.16647095 14.8869104 -10.18181885 13.67152588 -10.19763184 12.41931152 C-10.19799438 11.26241821 -10.19835693 10.1055249 -10.19873047 8.91357422 C-10.20872322 7.40466866 -10.20872322 7.40466866 -10.21891785 5.86528015 C-9.8581543 3.34057617 -9.8581543 3.34057617 -8.76550293 1.5135498 C-5.85517865 -0.27622978 -3.39369569 -0.01801962 0 0 Z " fill="#B6C9D4" transform="translate(15.858154296875,16.659423828125)"/>
<path d="M0 0 C1.65 0 3.3 0 5 0 C5.66 1.32 6.32 2.64 7 4 C7.7425 3.7525 8.485 3.505 9.25 3.25 C12 3 12 3 14.375 4.625 C16 7 16 7 15.75 9.75 C15.5025 10.4925 15.255 11.235 15 12 C16.32 12.66 17.64 13.32 19 14 C19 15.65 19 17.3 19 19 C17.02 19.99 17.02 19.99 15 21 C15.226875 21.928125 15.45375 22.85625 15.6875 23.8125 C16 27 16 27 14.9375 28.9375 C12.08906752 30.49954362 10.06495097 29.74921024 7 29 C6.34 30.32 5.68 31.64 5 33 C3.35 33 1.7 33 0 33 C-0.66 31.68 -1.32 30.36 -2 29 C-3.3921875 29.3403125 -3.3921875 29.3403125 -4.8125 29.6875 C-8 30 -8 30 -9.9375 28.9375 C-11.49954362 26.08906752 -10.74921024 24.06495097 -10 21 C-11.32 20.67 -12.64 20.34 -14 20 C-14 18.02 -14 16.04 -14 14 C-12.68 13.34 -11.36 12.68 -10 12 C-10.226875 11.071875 -10.45375 10.14375 -10.6875 9.1875 C-11 6 -11 6 -9.9375 4.0625 C-7.08906752 2.50045638 -5.06495097 3.25078976 -2 4 C-1.34 2.68 -0.68 1.36 0 0 Z " fill="#11100C" transform="translate(100,9)"/>
<path d="M0 0 C4.34248189 3.14707957 8.10799804 6.99333984 10.5234375 11.82421875 C11.02920909 18.32143846 11.42004925 24.31521593 7.5234375 29.82421875 C3.5548735 34.43633367 -0.09034332 37.38959823 -6.24609375 38.1796875 C-12.37838142 38.46508957 -16.83963766 37.99484774 -21.85546875 34.32421875 C-26.85166806 29.70122951 -28.63146376 24.82744368 -28.9140625 18.19921875 C-28.85008109 11.59313833 -26.98984532 7.58935887 -22.4765625 2.82421875 C-16.33510195 -2.31455436 -7.37377851 -3.50080021 0 0 Z M-11.4765625 1.82421875 C-12.1365625 3.14421875 -12.7965625 4.46421875 -13.4765625 5.82421875 C-14.4046875 5.59734375 -15.3328125 5.37046875 -16.2890625 5.13671875 C-19.37505019 4.53161767 -19.37505019 4.53161767 -21.4140625 5.88671875 C-22.97610612 8.73515123 -22.22577274 10.75926778 -21.4765625 13.82421875 C-23.4565625 14.81421875 -23.4565625 14.81421875 -25.4765625 15.82421875 C-25.4765625 17.80421875 -25.4765625 19.78421875 -25.4765625 21.82421875 C-24.1565625 22.15421875 -22.8365625 22.48421875 -21.4765625 22.82421875 C-21.7034375 23.75234375 -21.9303125 24.68046875 -22.1640625 25.63671875 C-22.76916358 28.72270644 -22.76916358 28.72270644 -21.4140625 30.76171875 C-18.56563002 32.32376237 -16.54151347 31.57342899 -13.4765625 30.82421875 C-12.8165625 32.14421875 -12.1565625 33.46421875 -11.4765625 34.82421875 C-9.8265625 34.82421875 -8.1765625 34.82421875 -6.4765625 34.82421875 C-5.8165625 33.50421875 -5.1565625 32.18421875 -4.4765625 30.82421875 C-3.5484375 31.05109375 -2.6203125 31.27796875 -1.6640625 31.51171875 C1.42192519 32.11681983 1.42192519 32.11681983 3.4609375 30.76171875 C5.02298112 27.91328627 4.27264774 25.88916972 3.5234375 22.82421875 C4.8434375 22.16421875 6.1634375 21.50421875 7.5234375 20.82421875 C7.5234375 19.17421875 7.5234375 17.52421875 7.5234375 15.82421875 C6.2034375 15.16421875 4.8834375 14.50421875 3.5234375 13.82421875 C3.7709375 13.08171875 4.0184375 12.33921875 4.2734375 11.57421875 C4.82674093 8.72639479 4.82674093 8.72639479 2.8984375 6.44921875 C0.62126146 4.52091532 0.62126146 4.52091532 -2.2265625 5.07421875 C-2.9690625 5.32171875 -3.7115625 5.56921875 -4.4765625 5.82421875 C-5.1365625 4.50421875 -5.7965625 3.18421875 -6.4765625 1.82421875 C-8.1265625 1.82421875 -9.7765625 1.82421875 -11.4765625 1.82421875 Z " fill="#5C656F" transform="translate(111.4765625,7.17578125)"/>
<path d="M0 0 C8.25 0 16.5 0 25 0 C28 12.625 28 12.625 28 16 C17.77 16 7.54 16 -3 16 C-1 5 -1 5 0 0 Z " fill="#C0C6CD" transform="translate(47,97)"/>
<path d="M0 0 C6.6 0 13.2 0 20 0 C20.020625 3.114375 20.04125 6.22875 20.0625 9.4375 C20.071604 10.42032959 20.08070801 11.40315918 20.09008789 12.41577148 C20.09258545 13.18477783 20.09508301 13.95378418 20.09765625 14.74609375 C20.10551147 15.93223267 20.10551147 15.93223267 20.11352539 17.14233398 C20 19 20 19 19 20 C17.58429877 20.08651611 16.164405 20.10704904 14.74609375 20.09765625 C13.9770874 20.09515869 13.20808105 20.09266113 12.41577148 20.09008789 C11.43294189 20.08098389 10.4501123 20.07187988 9.4375 20.0625 C4.7659375 20.0315625 4.7659375 20.0315625 0 20 C0 13.4 0 6.8 0 0 Z " fill="#020709" transform="translate(82,51)"/>
<path d="M0 0 C3.114375 -0.020625 6.22875 -0.04125 9.4375 -0.0625 C10.91174438 -0.07615601 10.91174438 -0.07615601 12.41577148 -0.09008789 C13.18477783 -0.09258545 13.95378418 -0.09508301 14.74609375 -0.09765625 C15.93223267 -0.10551147 15.93223267 -0.10551147 17.14233398 -0.11352539 C19 0 19 0 20 1 C20.0983721 2.33043625 20.13078592 3.66593344 20.1328125 5 C20.13474609 6.2065625 20.13474609 6.2065625 20.13671875 7.4375 C20.13285156 8.283125 20.12898438 9.12875 20.125 10 C20.13080078 11.2684375 20.13080078 11.2684375 20.13671875 12.5625 C20.13542969 13.366875 20.13414063 14.17125 20.1328125 15 C20.13168457 15.7425 20.13055664 16.485 20.12939453 17.25 C20 19 20 19 19 20 C17.58429877 20.08651611 16.164405 20.10704904 14.74609375 20.09765625 C13.9770874 20.09515869 13.20808105 20.09266113 12.41577148 20.09008789 C11.43294189 20.08098389 10.4501123 20.07187988 9.4375 20.0625 C4.7659375 20.0315625 4.7659375 20.0315625 0 20 C0 13.4 0 6.8 0 0 Z " fill="#0A171B" transform="translate(50,51)"/>
<path d="M0 0 C1.18613892 0.00785522 1.18613892 0.00785522 2.39624023 0.01586914 C3.16524658 0.0183667 3.93425293 0.02086426 4.7265625 0.0234375 C5.70939209 0.0325415 6.69222168 0.04164551 7.70483398 0.05102539 C12.37639648 0.08196289 12.37639648 0.08196289 17.14233398 0.11352539 C17.14233398 6.71352539 17.14233398 13.31352539 17.14233398 20.11352539 C14.02795898 20.13415039 10.91358398 20.15477539 7.70483398 20.17602539 C6.2305896 20.1896814 6.2305896 20.1896814 4.7265625 20.20361328 C3.95755615 20.20611084 3.1885498 20.2086084 2.39624023 20.21118164 C1.60548096 20.21641846 0.81472168 20.22165527 0 20.22705078 C-1.85766602 20.11352539 -1.85766602 20.11352539 -2.85766602 19.11352539 C-2.95603812 17.78308914 -2.98845194 16.44759195 -2.99047852 15.11352539 C-2.99176758 14.30915039 -2.99305664 13.50477539 -2.99438477 12.67602539 C-2.99051758 11.83040039 -2.98665039 10.98477539 -2.98266602 10.11352539 C-2.9865332 9.26790039 -2.99040039 8.42227539 -2.99438477 7.55102539 C-2.9930957 6.74665039 -2.99180664 5.94227539 -2.99047852 5.11352539 C-2.98935059 4.37102539 -2.98822266 3.62852539 -2.98706055 2.86352539 C-2.80531182 0.4054596 -2.45586934 0.1500827 0 0 Z " fill="#150F13" transform="translate(19.857666015625,50.886474609375)"/>
<path d="M0 0 C3.114375 -0.020625 6.22875 -0.04125 9.4375 -0.0625 C10.91174438 -0.07615601 10.91174438 -0.07615601 12.41577148 -0.09008789 C13.18477783 -0.09258545 13.95378418 -0.09508301 14.74609375 -0.09765625 C15.93223267 -0.10551147 15.93223267 -0.10551147 17.14233398 -0.11352539 C19 0 19 0 20 1 C20.0983721 2.33043625 20.13078592 3.66593344 20.1328125 5 C20.13474609 6.2065625 20.13474609 6.2065625 20.13671875 7.4375 C20.13285156 8.283125 20.12898438 9.12875 20.125 10 C20.13080078 11.2684375 20.13080078 11.2684375 20.13671875 12.5625 C20.13542969 13.366875 20.13414063 14.17125 20.1328125 15 C20.13168457 15.7425 20.13055664 16.485 20.12939453 17.25 C20 19 20 19 19 20 C17.58429877 20.08651611 16.164405 20.10704904 14.74609375 20.09765625 C13.9770874 20.09515869 13.20808105 20.09266113 12.41577148 20.09008789 C11.43294189 20.08098389 10.4501123 20.07187988 9.4375 20.0625 C4.7659375 20.0315625 4.7659375 20.0315625 0 20 C0 13.4 0 6.8 0 0 Z " fill="#111914" transform="translate(50,23)"/>
<path d="M0 0 C1.18613892 0.00785522 1.18613892 0.00785522 2.39624023 0.01586914 C3.16524658 0.0183667 3.93425293 0.02086426 4.7265625 0.0234375 C5.70939209 0.0325415 6.69222168 0.04164551 7.70483398 0.05102539 C12.37639648 0.08196289 12.37639648 0.08196289 17.14233398 0.11352539 C17.14233398 6.71352539 17.14233398 13.31352539 17.14233398 20.11352539 C14.02795898 20.13415039 10.91358398 20.15477539 7.70483398 20.17602539 C6.2305896 20.1896814 6.2305896 20.1896814 4.7265625 20.20361328 C3.95755615 20.20611084 3.1885498 20.2086084 2.39624023 20.21118164 C1.60548096 20.21641846 0.81472168 20.22165527 0 20.22705078 C-1.85766602 20.11352539 -1.85766602 20.11352539 -2.85766602 19.11352539 C-2.95603812 17.78308914 -2.98845194 16.44759195 -2.99047852 15.11352539 C-2.99176758 14.30915039 -2.99305664 13.50477539 -2.99438477 12.67602539 C-2.99051758 11.83040039 -2.98665039 10.98477539 -2.98266602 10.11352539 C-2.9865332 9.26790039 -2.99040039 8.42227539 -2.99438477 7.55102539 C-2.9930957 6.74665039 -2.99180664 5.94227539 -2.99047852 5.11352539 C-2.98935059 4.37102539 -2.98822266 3.62852539 -2.98706055 2.86352539 C-2.80531182 0.4054596 -2.45586934 0.1500827 0 0 Z " fill="#16170F" transform="translate(19.857666015625,22.886474609375)"/>
<path d="M0 0 C1.09461044 -0.00637985 2.18922089 -0.0127597 3.31700134 -0.01933289 C5.10443504 -0.02100212 5.10443504 -0.02100212 6.92797852 -0.02270508 C8.14260269 -0.02603348 9.35722687 -0.02936188 10.60865784 -0.03279114 C13.18360006 -0.03786556 15.75854888 -0.04019931 18.33349609 -0.04003906 C22.28632374 -0.04222496 26.23887222 -0.06037394 30.19165039 -0.0793457 C32.68709214 -0.08227955 35.18253522 -0.0842644 37.67797852 -0.08520508 C38.86757675 -0.09239059 40.05717499 -0.09957611 41.28282166 -0.10697937 C42.38058426 -0.10390274 43.47834686 -0.10082611 44.609375 -0.09765625 C45.57898666 -0.09908127 46.54859833 -0.10050629 47.54759216 -0.10197449 C49.86938477 0.14526367 49.86938477 0.14526367 51.86938477 2.14526367 C51.53938477 3.46526367 51.20938477 4.78526367 50.86938477 6.14526367 C32.38938477 6.14526367 13.90938477 6.14526367 -5.13061523 6.14526367 C-5.46061523 4.49526367 -5.79061523 2.84526367 -6.13061523 1.14526367 C-4.44036754 -0.54498403 -2.31524177 0.0091093 0 0 Z " fill="#DCE0E3" transform="translate(37.130615234375,115.854736328125)"/>
<path d="M0 0 C2.02734375 0.63671875 2.02734375 0.63671875 4.08984375 2.26171875 C5.43469773 5.66868216 5.53719313 8.00404193 5.02734375 11.63671875 C2.43518292 15.32858417 0.98585311 16.46555636 -3.47265625 17.26171875 C-7.93116561 16.46555636 -9.38049542 15.32858417 -11.97265625 11.63671875 C-12.75793326 7.23916751 -12.46324461 5.39633943 -10.03515625 1.63671875 C-6.27607784 -0.8181896 -4.31704616 -0.78295845 0 0 Z " fill="#0B0A05" transform="translate(105.97265625,17.36328125)"/>
<path d="M0 0 C4.62 0 9.24 0 14 0 C14 4.62 14 9.24 14 14 C9.38 14 4.76 14 0 14 C0 9.38 0 4.76 0 0 Z " fill="#9D90D1" transform="translate(85,54)"/>
<path d="M0 0 C4.29 0 8.58 0 13 0 C13 3.96 13 7.92 13 12 C8.71 12 4.42 12 0 12 C0 8.04 0 4.08 0 0 Z " fill="#64D1EE" transform="translate(53,55)"/>
<path d="M0 0 C4.29 0 8.58 0 13 0 C13 3.96 13 7.92 13 12 C8.71 12 4.42 12 0 12 C0 8.04 0 4.08 0 0 Z " fill="#F46A80" transform="translate(21,55)"/>
<path d="M0 0 C4.29 0 8.58 0 13 0 C13 3.96 13 7.92 13 12 C8.71 12 4.42 12 0 12 C0 8.04 0 4.08 0 0 Z " fill="#C3E792" transform="translate(53,27)"/>
<path d="M0 0 C4.29 0 8.58 0 13 0 C13 3.96 13 7.92 13 12 C8.71 12 4.42 12 0 12 C0 8.04 0 4.08 0 0 Z " fill="#F9CA55" transform="translate(21,27)"/>
<path d="M0 0 C1.8125 1.1875 1.8125 1.1875 3 3 C3.4334014 5.88934264 3.42525784 7.35092224 1.8125 9.8125 C-0.64907776 11.42525784 -2.11065736 11.4334014 -5 11 C-6.8125 9.8125 -6.8125 9.8125 -8 8 C-8.4334014 5.11065736 -8.42525784 3.64907776 -6.8125 1.1875 C-4.35092224 -0.42525784 -2.88934264 -0.4334014 0 0 Z " fill="#59626C" transform="translate(105,20)"/>
<path d="M0 0 C1.98 0 3.96 0 6 0 C5.01 1.0209375 5.01 1.0209375 4 2.0625 C1.49877828 5.73616939 1.45385468 7.63083745 2 12 C3.36997157 14.87146994 3.36997157 14.87146994 5 17 C3.35 17.33 1.7 17.66 0 18 C-0.12375 16.9275 -0.2475 15.855 -0.375 14.75 C-0.89643936 11.62136385 -1.40088254 9.66519576 -3 7 C-2.34 6.67 -1.68 6.34 -1 6 C-0.34227572 2.97065509 -0.34227572 2.97065509 0 0 Z " fill="#C09B41" transform="translate(93,17)"/>
<path d="M0 0 C1.32 1.32 2.64 2.64 4 4 C3.2884375 4.8353125 3.2884375 4.8353125 2.5625 5.6875 C0.87604004 8.18346074 0.41046893 10.0446237 0 13 C-1.093125 13.309375 -2.18625 13.61875 -3.3125 13.9375 C-5.55407994 14.58337897 -7.7869351 15.2623117 -10 16 C-10.66 14.68 -11.32 13.36 -12 12 C-11.37351562 11.89042969 -10.74703125 11.78085937 -10.1015625 11.66796875 C-9.28429687 11.50941406 -8.46703125 11.35085937 -7.625 11.1875 C-6.81289062 11.03667969 -6.00078125 10.88585938 -5.1640625 10.73046875 C-2.64179359 10.12455058 -2.64179359 10.12455058 -1 7 C-0.60612212 4.67612053 -0.26513915 2.34206251 0 0 Z " fill="#C5A043" transform="translate(111,22)"/>
<path d="M0 0 C3.63 0 7.26 0 11 0 C11 1.32 11 2.64 11 4 C7.37 4 3.74 4 0 4 C0 2.68 0 1.36 0 0 Z " fill="#272728" transform="translate(54,85)"/>
<path d="M0 0 C0.804375 0.433125 0.804375 0.433125 1.625 0.875 C4.35280484 2.16711808 7.12612718 3.08558592 10 4 C10 5.65 10 7.3 10 9 C9.60167969 8.52949219 9.20335938 8.05898438 8.79296875 7.57421875 C6.6382607 5.68239447 5.10908118 5.33939211 2.3125 4.8125 C1.10013672 4.57466797 1.10013672 4.57466797 -0.13671875 4.33203125 C-0.75160156 4.22246094 -1.36648437 4.11289062 -2 4 C-1.34 2.68 -0.68 1.36 0 0 Z " fill="#CFA846" transform="translate(101,13)"/>
</svg>
