<?xml version="1.0" encoding="UTF-8"?>
<svg version="1.1" xmlns="http://www.w3.org/2000/svg" width="16" height="16">
<path d="M0 0 C0.33 0.33 0.66 0.66 1 1 C0.90997602 3.02408755 0.75358962 5.04544287 0.5625 7.0625 C0.46066406 8.16722656 0.35882813 9.27195312 0.25390625 10.41015625 C0.17011719 11.26480469 0.08632812 12.11945312 0 13 C-0.99 13 -1.98 13 -3 13 C-3 13.99 -3 14.98 -3 16 C-5.97 16 -8.94 16 -12 16 C-12 15.01 -12 14.02 -12 13 C-12.99 13 -13.98 13 -15 13 C-15 9.04 -15 5.08 -15 1 C-4.03501884 -0.16959799 -4.03501884 -0.16959799 0 0 Z " fill="#4586A0" transform="translate(15,0)"/>
<path d="M0 0 C0.33 0.33 0.66 0.66 1 1 C0.90997602 3.02408755 0.75358962 5.04544287 0.5625 7.0625 C0.46066406 8.16722656 0.35882813 9.27195312 0.25390625 10.41015625 C0.17011719 11.26480469 0.08632812 12.11945312 0 13 C-0.99 13 -1.98 13 -3 13 C-3.33 13.99 -3.66 14.98 -4 16 C-4 15.34 -4 14.68 -4 14 C-4.66 14 -5.32 14 -6 14 C-6 13.34 -6 12.68 -6 12 C-4.35 12 -2.7 12 -1 12 C-1 10.02 -1 8.04 -1 6 C-2.32 5.67 -3.64 5.34 -5 5 C-5 4.01 -5 3.02 -5 2 C-7.97 2 -10.94 2 -14 2 C-14 5.3 -14 8.6 -14 12 C-12.68 12 -11.36 12 -10 12 C-10.66 13.32 -11.32 14.64 -12 16 C-12 15.01 -12 14.02 -12 13 C-12.99 13 -13.98 13 -15 13 C-15 9.04 -15 5.08 -15 1 C-4.03501884 -0.16959799 -4.03501884 -0.16959799 0 0 Z " fill="#2A2D2D" transform="translate(15,0)"/>
<path d="M0 0 C4.29 0 8.58 0 13 0 C13 0.66 13 1.32 13 2 C11.35 2 9.7 2 8 2 C8 2.66 8 3.32 8 4 C8.66 4 9.32 4 10 4 C10 4.66 10 5.32 10 6 C7.69 6 5.38 6 3 6 C3.33 4.68 3.66 3.36 4 2 C2.68 2 1.36 2 0 2 C0 1.34 0 0.68 0 0 Z " fill="#959799" transform="translate(1,10)"/>
<path d="M0 0 C1.98 0 3.96 0 6 0 C6.33 0.99 6.66 1.98 7 3 C6.34 3 5.68 3 5 3 C4.67 4.32 4.34 5.64 4 7 C3.01 7 2.02 7 1 7 C0.67 4.69 0.34 2.38 0 0 Z " fill="#5F7674" transform="translate(1,2)"/>
</svg>
