<?xml version="1.0" encoding="UTF-8"?>
<svg version="1.1" xmlns="http://www.w3.org/2000/svg" width="256" height="256">
<path d="M0 0 C10.78056061 7.17626523 19.42502133 16.60316805 22.82421875 29.390625 C25.15019899 44.43196389 23.32392267 57.92034789 14.29296875 70.421875 C13.7359729 70.85204926 13.17897705 71.28222351 12.60510254 71.72543335 C8.96165976 74.84861237 7.16977394 77.76684499 6.65643311 82.52664185 C6.34318036 87.81304183 6.42870253 93.09811217 6.49609375 98.390625 C6.49432443 100.35543422 6.48903925 102.32024312 6.48040771 104.28503418 C6.46518484 109.44435779 6.48894411 114.60269923 6.52362061 119.76190186 C6.57417154 128.01796958 6.57241198 136.27399446 6.55721283 144.53016663 C6.55857061 147.40414186 6.58087178 150.27738975 6.60577393 153.15124512 C6.60922006 154.92439669 6.61207881 156.69754954 6.61425781 158.47070312 C6.63290642 159.65703087 6.63290642 159.65703087 6.65193176 160.86732483 C6.63173071 167.10852553 5.53622378 172.72809176 1.42578125 177.6640625 C0.76320312 178.20289063 0.100625 178.74171875 -0.58203125 179.296875 C-1.23945313 179.85117188 -1.896875 180.40546875 -2.57421875 180.9765625 C-7.13270318 184.06564536 -10.96047161 184.66950799 -16.42504883 184.64892578 C-17.40637787 184.64936386 -17.40637787 184.64936386 -18.40753174 184.64981079 C-20.55568004 184.64842482 -22.70347529 184.63289871 -24.8515625 184.6171875 C-26.34657095 184.61345475 -27.84158185 184.61060902 -29.33659363 184.60861206 C-33.26080139 184.60099618 -37.1848598 184.58136541 -41.10900879 184.5592041 C-45.11757385 184.53870149 -49.12616318 184.52960092 -53.13476562 184.51953125 C-60.99225584 184.49811745 -68.84962494 184.46400638 -76.70703125 184.421875 C-76.08653112 187.92268797 -75.45980684 191.42235998 -74.83203125 194.921875 C-74.65800781 195.90414062 -74.48398438 196.88640625 -74.3046875 197.8984375 C-73.30150515 203.47167277 -72.15403917 208.9467099 -70.70703125 214.421875 C-69.62164062 214.38707031 -68.53625 214.35226563 -67.41796875 214.31640625 C-65.97267183 214.28825112 -64.52735804 214.26095281 -63.08203125 214.234375 C-62.36917969 214.20923828 -61.65632812 214.18410156 -60.921875 214.15820312 C-54.98100865 214.07644808 -50.97852865 215.45733671 -46.39453125 219.421875 C-43.36708781 223.00995612 -43.36733121 226.64337208 -43.42578125 231.13671875 C-43.9714638 235.5703895 -46.33646041 238.27842507 -49.66897583 241.05870056 C-54.26338551 243.12021063 -58.6464016 242.86419762 -63.62841797 242.85766602 C-64.7298111 242.86774185 -65.83120422 242.87781769 -66.9659729 242.88819885 C-70.60632481 242.91669203 -74.24626228 242.92255614 -77.88671875 242.92578125 C-80.41871308 242.93542114 -82.95070573 242.94551353 -85.48269653 242.95603943 C-90.7904312 242.9740041 -96.09801156 242.97968861 -101.40576172 242.9777832 C-107.53006748 242.97598146 -113.65357998 243.00763059 -119.77768505 243.05501419 C-125.68142361 243.09905562 -131.58492113 243.1097451 -137.48883438 243.10795403 C-139.99505987 243.11149276 -142.50129132 243.12475465 -145.00741196 243.14795113 C-148.5145612 243.1773747 -152.01967281 243.16871204 -155.52685547 243.15063477 C-156.5598175 243.16749329 -157.59277954 243.18435181 -158.65704346 243.20172119 C-164.62901494 243.12357302 -168.014736 242.2781424 -172.3735218 238.09937954 C-175.66691834 233.95641103 -176.16260526 230.70653347 -175.70703125 225.421875 C-173.96286751 220.74017232 -171.83667286 218.20938309 -167.70703125 215.421875 C-163.99423656 214.18427677 -160.39396779 214.06578603 -156.51953125 213.859375 C-155.76994141 213.81619141 -155.02035156 213.77300781 -154.24804688 213.72851562 C-152.4012475 213.62264815 -150.55416291 213.5217774 -148.70703125 213.421875 C-148.0708176 211.21674614 -147.44884742 209.00750815 -146.83203125 206.796875 C-146.48398438 205.56710938 -146.1359375 204.33734375 -145.77734375 203.0703125 C-144.77411228 199.12516248 -144.20064489 195.16166831 -143.64013672 191.13134766 C-143.46416962 189.87391754 -143.28820251 188.61648743 -143.10690308 187.32095337 C-142.97494537 186.36425751 -142.84298767 185.40756165 -142.70703125 184.421875 C-143.52864746 184.43075745 -144.35026367 184.43963989 -145.19677734 184.4487915 C-152.96437649 184.52915616 -160.7317722 184.58994988 -168.49967957 184.62912369 C-172.49264354 184.64994093 -176.48526211 184.67814989 -180.47802734 184.72363281 C-184.33599206 184.7673019 -188.19362592 184.79105615 -192.05181885 184.80138397 C-193.51895349 184.80873782 -194.98607134 184.82309788 -196.45306396 184.84479523 C-212.86488982 185.07773492 -212.86488982 185.07773492 -219.21264648 178.97418213 C-223.31228182 174.32691766 -224.95423714 170.82411165 -224.97445679 164.67301941 C-224.98298676 163.4996553 -224.99151672 162.3262912 -225.00030518 161.11737061 C-224.9993988 159.83364563 -224.99849243 158.54992065 -224.99755859 157.22729492 C-225.00354442 155.85876601 -225.01035009 154.49024047 -225.01791382 153.12171936 C-225.0355773 149.40671059 -225.04026939 145.69179397 -225.04154539 141.97674727 C-225.04296755 139.65430669 -225.0472384 137.3318895 -225.05253983 135.00945473 C-225.07104245 126.90301655 -225.0792103 118.79664414 -225.07763672 110.69018555 C-225.07643579 103.14090705 -225.09752772 95.59191468 -225.12912405 88.04270858 C-225.15530344 81.55593435 -225.1660033 75.06925347 -225.1647259 68.58242685 C-225.16421668 64.71056676 -225.16987731 60.83896088 -225.191082 56.96715355 C-225.21049225 53.32349545 -225.21057032 49.68033326 -225.19604874 46.03665733 C-225.19297133 44.0687354 -225.20961831 42.10081329 -225.22692871 40.13296509 C-225.1717901 32.36513955 -224.50757141 27.57396513 -219.14453125 21.71484375 C-214.07399193 17.81548878 -211.09156648 16.17036555 -204.64532471 16.18136597 C-203.4029454 16.17861664 -202.1605661 16.17586731 -200.88053894 16.17303467 C-199.50662135 16.18011247 -198.13270473 16.18738208 -196.75878906 16.19482422 C-195.30994169 16.19538845 -193.86109374 16.19507154 -192.4122467 16.19393921 C-188.48074068 16.19336517 -184.54935659 16.20512779 -180.61787891 16.21908712 C-176.5085849 16.2315859 -172.39928812 16.23276431 -168.28997803 16.23513794 C-160.50919625 16.24135522 -152.72847065 16.25776939 -144.94771361 16.27783692 C-136.0892725 16.30018821 -127.23082872 16.31118741 -118.37236643 16.32122779 C-100.15055618 16.3421354 -81.92879823 16.3773162 -63.70703125 16.421875 C-63.24671509 15.48371948 -63.24671509 15.48371948 -62.77709961 14.52661133 C-58.268044 5.65767032 -49.34097235 0.03980372 -40.26953125 -3.453125 C-26.97464963 -7.65150867 -12.17491923 -7.09764411 0 0 Z " fill="#070808" transform="translate(228.70703125,9.578125)"/>
<path d="M0 0 C1.1975592 -0.00137466 2.39511841 -0.00274933 3.62896729 -0.00416565 C4.96292139 -0.00062629 6.29687525 0.00300852 7.63082886 0.00672913 C9.03012083 0.00701108 10.42941295 0.0068531 11.82870483 0.00628662 C15.63426304 0.00599897 19.43978992 0.01189046 23.24534082 0.01886058 C27.21985371 0.02509951 31.19436725 0.02569834 35.16888428 0.02688599 C42.69825927 0.0299977 50.22761979 0.03820895 57.75698841 0.04823548 C66.32760733 0.05940155 74.89822694 0.06490831 83.46885133 0.06993091 C101.10211637 0.08039169 118.73536794 0.09798806 136.36862183 0.12025452 C136.22895996 0.79631241 136.0892981 1.4723703 135.94540405 2.16891479 C135.76344482 3.06140427 135.5814856 3.95389374 135.39401245 4.87342834 C135.12264465 6.19689018 135.12264465 6.19689018 134.84579468 7.54708862 C132.31577691 21.19026928 134.88978044 32.78913241 142.45455933 44.29212952 C149.58317713 53.54682632 159.67847007 60.88443314 171.36862183 63.12025452 C180.57507573 63.73718184 188.55100291 62.65646979 197.36862183 60.12025452 C199.84362183 59.62525452 199.84362183 59.62525452 202.36862183 59.12025452 C202.36862183 79.25025452 202.36862183 99.38025452 202.36862183 120.12025452 C131.41862183 120.12025452 60.46862183 120.12025452 -12.63137817 120.12025452 C-12.78606567 92.33837952 -12.78606567 92.33837952 -12.94387817 63.99525452 C-12.98939819 58.15048401 -13.03491821 52.3057135 -13.08181763 46.28382874 C-13.10440063 39.13807678 -13.10440063 39.13807678 -13.1085968 35.79118347 C-13.11626697 33.45723199 -13.13383657 31.12330014 -13.15925598 28.78947449 C-13.19586657 25.25078494 -13.20090803 21.71330435 -13.19900513 18.17445374 C-13.21699567 17.13741743 -13.23498621 16.10038113 -13.25352192 15.03191948 C-13.22048886 10.44170255 -13.17467878 7.15592677 -10.22090149 3.49186707 C-6.54228032 0.12280525 -4.88805551 -0.00431045 0 0 Z " fill="#39A6CF" transform="translate(24.631378173828125,33.87974548339844)"/>
<path d="M0 0 C71.28 0 142.56 0 216 0 C216 17 216 17 211 23 C207.40995305 25.69058047 203.30958015 25.28501479 198.99781799 25.26742554 C197.77904281 25.27422221 197.77904281 25.27422221 196.5356459 25.28115618 C193.809595 25.29382932 191.08374314 25.29217795 188.35766602 25.29052734 C186.40461978 25.29651071 184.4515759 25.30331582 182.49853516 25.31088257 C177.19074172 25.32856774 171.88301274 25.33323897 166.57519269 25.33451414 C162.14660138 25.33641204 157.71802514 25.3437682 153.28943962 25.35085833 C142.84326124 25.36714892 132.39711735 25.37202661 121.95092773 25.37060547 C111.1683775 25.36940337 100.38602722 25.39051735 89.60352761 25.4220928 C80.35078187 25.44822481 71.09810158 25.45897408 61.84531921 25.45769465 C56.31693397 25.45718418 50.78872643 25.46291466 45.26037788 25.48405075 C40.06222394 25.5033817 34.86441819 25.50359286 29.66625214 25.48901749 C27.75746338 25.486922 25.84865313 25.49167414 23.93990135 25.5037384 C21.3359107 25.51913224 18.7331295 25.50992216 16.12916565 25.49447632 C15.37215962 25.50476344 14.6151536 25.51505057 13.835208 25.52564943 C10.37268635 25.48019834 8.18493869 25.10857399 5.17942715 23.34409523 C-1.84725415 15.7865083 0 10.97751682 0 0 Z " fill="#DEE2E5" transform="translate(11,161)"/>
<path d="M0 0 C2.88501111 0.38084233 4.29676153 1.03355429 6.16015625 3.28515625 C6.53673261 4.94258774 6.8749522 6.60958246 7.16015625 8.28515625 C7.88460937 8.14335937 8.6090625 8.0015625 9.35546875 7.85546875 C17.00403004 6.69288743 17.00403004 6.69288743 20.2265625 8.34375 C22.99109343 10.90843532 24.05864419 12.57457184 24.59765625 16.34765625 C24.19956268 19.02057022 23.77917962 21.65430693 23.16015625 24.28515625 C25.47015625 25.27515625 27.78015625 26.26515625 30.16015625 27.28515625 C30.21404712 29.24319132 30.25289842 31.20164534 30.28515625 33.16015625 C30.30835938 34.25070313 30.3315625 35.34125 30.35546875 36.46484375 C30.16015625 39.28515625 30.16015625 39.28515625 28.16015625 41.28515625 C26.51024043 41.99226303 24.84453369 42.66459614 23.16015625 43.28515625 C23.29035156 43.93742187 23.42054688 44.5896875 23.5546875 45.26171875 C24.63647762 52.11642625 24.63647762 52.11642625 23.359375 55.25 C21.11844217 58.23547729 19.23205392 59.26589794 15.66015625 60.22265625 C12.59504326 60.27739041 10.10466931 60.08820527 7.16015625 59.28515625 C6.87140625 60.06890625 6.58265625 60.85265625 6.28515625 61.66015625 C5.16015625 64.28515625 5.16015625 64.28515625 3.16015625 66.28515625 C-1.44770758 66.97553306 -5.53323471 67.15622894 -9.46484375 64.53515625 C-10.83984375 62.28515625 -10.83984375 62.28515625 -10.83984375 58.28515625 C-12.17015625 58.78015625 -12.17015625 58.78015625 -13.52734375 59.28515625 C-18.94487464 60.92063727 -18.94487464 60.92063727 -21.83984375 60.28515625 C-25.32400263 57.69025968 -28.44996618 55.06126517 -29.40234375 50.72265625 C-28.73426579 47.82765174 -27.87582692 45.06936101 -26.83984375 42.28515625 C-27.78859375 42.18203125 -28.73734375 42.07890625 -29.71484375 41.97265625 C-32.83984375 41.28515625 -32.83984375 41.28515625 -34.83984375 38.28515625 C-35.140625 35.91015625 -35.140625 35.91015625 -35.15234375 33.28515625 C-35.16910156 32.41890625 -35.18585938 31.55265625 -35.203125 30.66015625 C-34.77127337 27.83686817 -34.08359796 26.99236054 -31.83984375 25.28515625 C-29.65234375 24.59765625 -29.65234375 24.59765625 -27.83984375 24.28515625 C-27.76133375 21.53730642 -27.75606068 19.51256743 -28.71484375 16.91015625 C-28.86634103 13.7287133 -28.23461117 12.96392452 -26.33984375 10.47265625 C-23.76794139 7.71533768 -23.12789266 7.32488713 -19.21484375 6.78515625 C-14.21053341 7.52653556 -14.21053341 7.52653556 -11.83984375 8.28515625 C-11.57171875 7.52203125 -11.30359375 6.75890625 -11.02734375 5.97265625 C-8.51522023 0.28732408 -5.89492405 -0.22046057 0 0 Z " fill="#090804" transform="translate(206.83984375,17.71484375)"/>
<path d="M0 0 C1.1975592 -0.00137466 2.39511841 -0.00274933 3.62896729 -0.00416565 C4.96292139 -0.00062629 6.29687525 0.00300852 7.63082886 0.00672913 C9.03012083 0.00701108 10.42941295 0.0068531 11.82870483 0.00628662 C15.63426304 0.00599897 19.43978992 0.01189046 23.24534082 0.01886058 C27.21985371 0.02509951 31.19436725 0.02569834 35.16888428 0.02688599 C42.69825927 0.0299977 50.22761979 0.03820895 57.75698841 0.04823548 C66.32760733 0.05940155 74.89822694 0.06490831 83.46885133 0.06993091 C101.10211637 0.08039169 118.73536794 0.09798806 136.36862183 0.12025452 C136.03862183 1.77025452 135.70862183 3.42025452 135.36862183 5.12025452 C134.66109394 5.12172108 133.95356606 5.12318764 133.22459793 5.12469864 C116.01526377 5.16173732 98.80614523 5.22071277 81.59697342 5.30415726 C73.27475914 5.34398035 64.95263988 5.37635616 56.63034058 5.39125061 C49.37729282 5.40425026 42.12445382 5.43117147 34.87152362 5.47486758 C31.03048051 5.49752069 27.18969525 5.51316292 23.34857941 5.51213837 C19.73363071 5.511394 16.1192528 5.52925367 12.50445175 5.56142235 C10.54432891 5.57401159 8.58411044 5.5668399 6.6239624 5.55911255 C5.45731049 5.57302536 4.29065857 5.58693817 3.08865356 5.60127258 C2.07468128 5.60495975 1.060709 5.60864693 0.01601028 5.61244583 C-3.3929497 6.26633532 -4.57311402 7.35928896 -6.63137817 10.12025452 C-7.22761849 12.26561234 -7.22761849 12.26561234 -7.15036011 14.58747864 C-7.16426662 15.47462429 -7.17817314 16.36176994 -7.19250107 17.2757988 C-7.187477 18.24508442 -7.18245293 19.21437004 -7.17727661 20.21302795 C-7.18767094 21.25428959 -7.19806526 22.29555122 -7.20877457 23.36836624 C-7.23791822 26.73895238 -7.23984301 30.10892977 -7.24075317 33.47962952 C-7.2547462 35.56053429 -7.27052238 37.64142786 -7.28811646 39.7223053 C-7.34082897 47.43817094 -7.35900233 55.15424126 -7.38137817 62.87025452 C-7.46387817 80.11275452 -7.54637817 97.35525452 -7.63137817 115.12025452 C59.68862183 115.12025452 127.00862183 115.12025452 196.36862183 115.12025452 C196.36862183 97.30025452 196.36862183 79.48025452 196.36862183 61.12025452 C199.36862183 59.12025452 199.36862183 59.12025452 202.36862183 59.12025452 C202.36862183 79.25025452 202.36862183 99.38025452 202.36862183 120.12025452 C131.41862183 120.12025452 60.46862183 120.12025452 -12.63137817 120.12025452 C-12.78606567 92.33837952 -12.78606567 92.33837952 -12.94387817 63.99525452 C-12.98939819 58.15048401 -13.03491821 52.3057135 -13.08181763 46.28382874 C-13.10440063 39.13807678 -13.10440063 39.13807678 -13.1085968 35.79118347 C-13.11626697 33.45723199 -13.13383657 31.12330014 -13.15925598 28.78947449 C-13.19586657 25.25078494 -13.20090803 21.71330435 -13.19900513 18.17445374 C-13.21699567 17.13741743 -13.23498621 16.10038113 -13.25352192 15.03191948 C-13.22048886 10.44170255 -13.17467878 7.15592677 -10.22090149 3.49186707 C-6.54228032 0.12280525 -4.88805551 -0.00431045 0 0 Z " fill="#C7CED5" transform="translate(24.631378173828125,33.87974548339844)"/>
<path d="M0 0 C8.3756205 5.81684459 15.25198082 13.68782935 17.87109375 23.6796875 C19.66368998 37.17149353 17.57547114 48.35551747 9.62109375 59.5546875 C3.24865209 67.20161749 -6.14904102 72.73819078 -16.12890625 73.6796875 C-29.0004586 74.44562893 -38.15446689 72.02530428 -48.12890625 63.6796875 C-55.5608451 56.84056868 -60.55045347 47.55501202 -61.40234375 37.4296875 C-61.74104523 24.92378675 -58.63862159 15.56880985 -50.4375 5.94140625 C-37.014351 -7.2091915 -16.00672788 -9.9271083 0 0 Z M-28.62890625 2.4296875 C-30.06945658 4.590513 -30.76406199 6.12577766 -31.12890625 8.6796875 C-31.64453125 8.5146875 -32.16015625 8.3496875 -32.69140625 8.1796875 C-36.11936864 7.47651573 -38.62537003 7.19644112 -42.12890625 7.6796875 C-44.9635098 9.56536797 -46.7047352 11.58673586 -48.12890625 14.6796875 C-48.31996689 18.14391855 -47.87679654 21.30058321 -47.12890625 24.6796875 C-47.91265625 24.9684375 -48.69640625 25.2571875 -49.50390625 25.5546875 C-52.22562257 26.52881004 -52.22562257 26.52881004 -54.12890625 28.6796875 C-54.81928306 33.28755133 -54.99997894 37.37307846 -52.37890625 41.3046875 C-49.99953134 43.02732084 -49.99953134 43.02732084 -46.12890625 42.6796875 C-46.45890625 43.5665625 -46.78890625 44.4534375 -47.12890625 45.3671875 C-48.48694144 49.4999001 -48.48694144 49.4999001 -48.12890625 53.6796875 C-45.53400968 57.16384638 -42.90501517 60.28980993 -38.56640625 61.2421875 C-35.67140174 60.57410954 -32.91311101 59.71567067 -30.12890625 58.6796875 C-30.02578125 59.4428125 -29.92265625 60.2059375 -29.81640625 60.9921875 C-29.05351463 63.97440021 -28.53470369 64.83683604 -26.12890625 66.6796875 C-23.72376762 67.15409619 -23.72376762 67.15409619 -21.12890625 67.0546875 C-20.26265625 67.06242187 -19.39640625 67.07015625 -18.50390625 67.078125 C-15.65798734 66.60068466 -14.80730367 65.99797394 -13.12890625 63.6796875 C-12.41442982 61.57635859 -12.41442982 61.57635859 -12.12890625 59.6796875 C-11.46503906 59.79828125 -10.80117187 59.916875 -10.1171875 60.0390625 C-4.38988218 60.96630991 -4.38988218 60.96630991 0.87109375 58.9296875 C4.08215091 55.33641394 4.08215091 55.33641394 5.05859375 50.7421875 C4.90370621 48.21235765 4.61232009 46.08867309 3.87109375 43.6796875 C4.84046875 43.2053125 5.80984375 42.7309375 6.80859375 42.2421875 C9.67586812 40.97774803 9.67586812 40.97774803 10.87109375 39.6796875 C10.94353428 37.66004551 10.95486563 35.63801626 10.93359375 33.6171875 C10.92457031 32.51246094 10.91554688 31.40773438 10.90625 30.26953125 C10.89464844 29.41488281 10.88304687 28.56023438 10.87109375 27.6796875 C8.56109375 26.6896875 6.25109375 25.6996875 3.87109375 24.6796875 C4.01289063 23.95523438 4.1546875 23.23078125 4.30078125 22.484375 C5.26846369 16.90636239 5.26846369 16.90636239 3.8125 11.61328125 C1.24781468 8.84875032 -0.41832184 7.78119956 -4.19140625 7.2421875 C-6.86432022 7.64028107 -9.49805693 8.06066413 -12.12890625 8.6796875 C-12.39703125 7.7309375 -12.66515625 6.7821875 -12.94140625 5.8046875 C-13.87877213 2.42701477 -13.87877213 2.42701477 -17.12890625 0.6796875 C-21.44581305 -0.0040215 -24.99655103 -0.11296115 -28.62890625 2.4296875 Z " fill="#5E6771" transform="translate(226.12890625,17.3203125)"/>
<path d="M0 0 C16.5 0 33 0 50 0 C50.66 4.62 51.32 9.24 52 14 C53.11372239 18.65199737 53.11372239 18.65199737 54.31640625 23.28125 C55.03817777 26.15183845 55.51338921 29.08033528 56 32 C35.87 32 15.74 32 -5 32 C-4 23 -4 23 -2 17 C-1.34 11.39 -0.68 5.78 0 0 Z " fill="#C6CCD3" transform="translate(94,193)"/>
<path d="M0 0 C0.79273315 0.00404846 1.58546631 0.00809692 2.40222168 0.01226807 C3.62274231 0.00939789 3.62274231 0.00939789 4.86791992 0.00646973 C6.58948068 0.0051078 8.31105171 0.00880479 10.03259277 0.01715088 C12.67296338 0.02785048 15.31265357 0.01725607 17.95300293 0.00445557 C19.62357735 0.00577716 21.29415135 0.00833955 22.96472168 0.01226807 C23.75745483 0.0082196 24.55018799 0.00417114 25.36694336 0 C30.95355141 0.04797279 30.95355141 0.04797279 33.18347168 2.27789307 C33.38320901 4.97924629 33.46328741 7.57586518 33.44909668 10.27789307 C33.45196686 11.46511963 33.45196686 11.46511963 33.45489502 12.67633057 C33.45625686 14.35081296 33.4525605 16.02530592 33.44421387 17.69976807 C33.43351408 20.26771688 33.44410893 22.8349661 33.45690918 25.40289307 C33.45558758 27.02789462 33.45302519 28.65289573 33.44909668 30.27789307 C33.45314514 31.04875244 33.4571936 31.81961182 33.46136475 32.61383057 C33.413393 38.04797174 33.413393 38.04797174 31.18347168 40.27789307 C28.41011741 40.47771332 25.73877525 40.55768507 22.96472168 40.54351807 C21.74420105 40.54638824 21.74420105 40.54638824 20.49902344 40.54931641 C18.77746268 40.55067834 17.05589165 40.54698134 15.33435059 40.53863525 C12.69397998 40.52793565 10.05428979 40.53853007 7.41394043 40.55133057 C5.74336601 40.55000897 4.07279201 40.54744658 2.40222168 40.54351807 C1.21312195 40.54959076 1.21312195 40.54959076 0 40.55578613 C-5.58660805 40.50781334 -5.58660805 40.50781334 -7.81652832 38.27789307 C-8.01626565 35.57653984 -8.09634405 32.97992095 -8.08215332 30.27789307 C-8.08406677 29.48640869 -8.08598022 28.69492432 -8.08795166 27.87945557 C-8.0893135 26.20497317 -8.08561714 24.53048022 -8.07727051 22.85601807 C-8.06657072 20.28806925 -8.07716557 17.72082003 -8.08996582 15.15289307 C-8.08864423 13.52789152 -8.08608183 11.9028904 -8.08215332 10.27789307 C-8.08620178 9.50703369 -8.09025024 8.73617432 -8.09442139 7.94195557 C-8.03436504 1.13889514 -6.77064677 0.05814026 0 0 Z " fill="#060A0E" transform="translate(170.8165283203125,101.72210693359375)"/>
<path d="M0 0 C0.82290527 0.00202423 1.64581055 0.00404846 2.49365234 0.00613403 C3.33331543 0.00517731 4.17297852 0.00422058 5.03808594 0.00323486 C6.81689529 0.00255306 8.59570712 0.00440737 10.37451172 0.00857544 C13.10699011 0.01392371 15.83930411 0.00863048 18.57177734 0.00222778 C20.29573604 0.00288856 22.01969464 0.00416973 23.74365234 0.00613403 C24.56655762 0.0041098 25.38946289 0.00208557 26.23730469 0 C32.0037018 0.02399599 32.0037018 0.02399599 33.11865234 1.13894653 C33.21968489 3.93888251 33.25835322 6.71363297 33.25146484 9.51394653 C33.25242157 10.35360962 33.2533783 11.19327271 33.25436401 12.05838013 C33.25504582 13.83718948 33.25319151 15.61600131 33.24902344 17.39480591 C33.24367517 20.12728429 33.2489684 22.8595983 33.25537109 25.59207153 C33.25471031 27.31603023 33.25342915 29.03998883 33.25146484 30.76394653 C33.25348907 31.58685181 33.25551331 32.40975708 33.25759888 33.25759888 C33.23360289 39.02399599 33.23360289 39.02399599 32.11865234 40.13894653 C29.40310842 40.25235628 26.71395191 40.30312673 23.99755859 40.30691528 C22.77491554 40.31190788 22.77491554 40.31190788 21.52757263 40.31700134 C19.80004441 40.32207395 18.07250636 40.32440957 16.3449707 40.32424927 C13.69579989 40.32643445 11.04704618 40.34458275 8.39794922 40.36355591 C6.72282044 40.36648997 5.04768968 40.36847468 3.37255859 40.36941528 C2.57668839 40.3766008 1.78081818 40.38378632 0.96083069 40.39118958 C-4.65252538 40.36776881 -4.65252538 40.36776881 -6.88134766 38.13894653 C-7.06888076 35.35384429 -7.13695997 32.66995007 -7.11181641 29.88504028 C-7.11135818 29.06898819 -7.11089996 28.2529361 -7.11042786 27.41215515 C-7.1074051 25.68638658 -7.09951807 23.96062075 -7.0871582 22.2348938 C-7.06889743 19.5836732 -7.06664852 16.93280158 -7.06689453 14.28152466 C-7.06197959 12.60769349 -7.05615138 10.93386471 -7.04931641 9.26004028 C-7.04820358 8.46214584 -7.04709076 7.6642514 -7.04594421 6.84217834 C-6.98752862 0.11931345 -6.70665634 0.02790874 0 0 Z " fill="#030809" transform="translate(105.88134765625,101.86105346679688)"/>
<path d="M0 0 C0.82290527 0.00202423 1.64581055 0.00404846 2.49365234 0.00613403 C3.33331543 0.00517731 4.17297852 0.00422058 5.03808594 0.00323486 C6.81689529 0.00255306 8.59570712 0.00440737 10.37451172 0.00857544 C13.10699011 0.01392371 15.83930411 0.00863048 18.57177734 0.00222778 C20.29573604 0.00288856 22.01969464 0.00416973 23.74365234 0.00613403 C24.56655762 0.0041098 25.38946289 0.00208557 26.23730469 0 C32.0037018 0.02399599 32.0037018 0.02399599 33.11865234 1.13894653 C33.21968489 3.93888251 33.25835322 6.71363297 33.25146484 9.51394653 C33.25242157 10.35360962 33.2533783 11.19327271 33.25436401 12.05838013 C33.25504582 13.83718948 33.25319151 15.61600131 33.24902344 17.39480591 C33.24367517 20.12728429 33.2489684 22.8595983 33.25537109 25.59207153 C33.25471031 27.31603023 33.25342915 29.03998883 33.25146484 30.76394653 C33.25348907 31.58685181 33.25551331 32.40975708 33.25759888 33.25759888 C33.23360289 39.02399599 33.23360289 39.02399599 32.11865234 40.13894653 C29.40310842 40.25235628 26.71395191 40.30312673 23.99755859 40.30691528 C22.77491554 40.31190788 22.77491554 40.31190788 21.52757263 40.31700134 C19.80004441 40.32207395 18.07250636 40.32440957 16.3449707 40.32424927 C13.69579989 40.32643445 11.04704618 40.34458275 8.39794922 40.36355591 C6.72282044 40.36648997 5.04768968 40.36847468 3.37255859 40.36941528 C2.57668839 40.3766008 1.78081818 40.38378632 0.96083069 40.39118958 C-4.65252538 40.36776881 -4.65252538 40.36776881 -6.88134766 38.13894653 C-7.06888076 35.35384429 -7.13695997 32.66995007 -7.11181641 29.88504028 C-7.11135818 29.06898819 -7.11089996 28.2529361 -7.11042786 27.41215515 C-7.1074051 25.68638658 -7.09951807 23.96062075 -7.0871582 22.2348938 C-7.06889743 19.5836732 -7.06664852 16.93280158 -7.06689453 14.28152466 C-7.06197959 12.60769349 -7.05615138 10.93386471 -7.04931641 9.26004028 C-7.04820358 8.46214584 -7.04709076 7.6642514 -7.04594421 6.84217834 C-6.98752862 0.11931345 -6.70665634 0.02790874 0 0 Z " fill="#050807" transform="translate(105.88134765625,45.861053466796875)"/>
<path d="M0 0 C1.22264305 -0.0049926 1.22264305 -0.0049926 2.46998596 -0.01008606 C4.19751418 -0.01515867 5.92505223 -0.01749428 7.65258789 -0.01733398 C10.3017587 -0.01951917 12.95051241 -0.03766746 15.59960938 -0.05664062 C17.27473815 -0.05957469 18.94986892 -0.0615594 20.625 -0.0625 C21.42087021 -0.06968552 22.21674042 -0.07687103 23.03672791 -0.08427429 C28.65008398 -0.06085352 28.65008398 -0.06085352 30.87890625 2.16796875 C31.07864358 4.86932198 31.15872198 7.46594086 31.14453125 10.16796875 C31.14740143 11.35519531 31.14740143 11.35519531 31.15032959 12.56640625 C31.15169143 14.24088865 31.14799507 15.9153816 31.13964844 17.58984375 C31.12894865 20.15779256 31.1395435 22.72504178 31.15234375 25.29296875 C31.15102215 26.9179703 31.14845976 28.54297141 31.14453125 30.16796875 C31.14857971 30.93882812 31.15262817 31.7096875 31.15679932 32.50390625 C31.10882757 37.93804743 31.10882757 37.93804743 28.87890625 40.16796875 C26.09380401 40.35550186 23.40990979 40.42358107 20.625 40.3984375 C19.80894791 40.39797928 18.99289581 40.39752106 18.15211487 40.39704895 C16.4263463 40.39402619 14.70058047 40.38613917 12.97485352 40.3737793 C10.32363292 40.35551853 7.67276129 40.35326961 5.02148438 40.35351562 C3.34765321 40.34860069 1.67382443 40.34277248 0 40.3359375 C-0.79789444 40.33482468 -1.59578888 40.33371185 -2.41786194 40.33256531 C-8.00504474 40.28401776 -8.00504474 40.28401776 -9.12109375 39.16796875 C-9.2221263 36.36803278 -9.26079463 33.59328231 -9.25390625 30.79296875 C-9.25486298 29.95330566 -9.2558197 29.11364258 -9.25680542 28.24853516 C-9.25748723 26.4697258 -9.25563292 24.69091398 -9.25146484 22.91210938 C-9.24611658 20.17963099 -9.2514098 17.44731699 -9.2578125 14.71484375 C-9.25715172 12.99088505 -9.25587056 11.26692646 -9.25390625 9.54296875 C-9.25593048 8.72006348 -9.25795471 7.8971582 -9.26004028 7.04931641 C-9.22679113 -0.94067822 -7.26257361 0.01012911 0 0 Z " fill="#070506" transform="translate(44.12109375,101.83203125)"/>
<path d="M0 0 C1.22264305 -0.0049926 1.22264305 -0.0049926 2.46998596 -0.01008606 C4.19751418 -0.01515867 5.92505223 -0.01749428 7.65258789 -0.01733398 C10.3017587 -0.01951917 12.95051241 -0.03766746 15.59960938 -0.05664062 C17.27473815 -0.05957469 18.94986892 -0.0615594 20.625 -0.0625 C21.42087021 -0.06968552 22.21674042 -0.07687103 23.03672791 -0.08427429 C28.65008398 -0.06085352 28.65008398 -0.06085352 30.87890625 2.16796875 C31.07864358 4.86932198 31.15872198 7.46594086 31.14453125 10.16796875 C31.14740143 11.35519531 31.14740143 11.35519531 31.15032959 12.56640625 C31.15169143 14.24088865 31.14799507 15.9153816 31.13964844 17.58984375 C31.12894865 20.15779256 31.1395435 22.72504178 31.15234375 25.29296875 C31.15102215 26.9179703 31.14845976 28.54297141 31.14453125 30.16796875 C31.14857971 30.93882813 31.15262817 31.7096875 31.15679932 32.50390625 C31.10882757 37.93804743 31.10882757 37.93804743 28.87890625 40.16796875 C26.09380401 40.35550186 23.40990979 40.42358107 20.625 40.3984375 C19.80894791 40.39797928 18.99289581 40.39752106 18.15211487 40.39704895 C16.4263463 40.39402619 14.70058047 40.38613917 12.97485352 40.3737793 C10.32363292 40.35551853 7.67276129 40.35326961 5.02148438 40.35351562 C3.34765321 40.34860069 1.67382443 40.34277248 0 40.3359375 C-0.79789444 40.33482468 -1.59578888 40.33371185 -2.41786194 40.33256531 C-8.00504474 40.28401776 -8.00504474 40.28401776 -9.12109375 39.16796875 C-9.2221263 36.36803278 -9.26079463 33.59328231 -9.25390625 30.79296875 C-9.25486298 29.95330566 -9.2558197 29.11364258 -9.25680542 28.24853516 C-9.25748723 26.4697258 -9.25563292 24.69091398 -9.25146484 22.91210938 C-9.24611658 20.17963099 -9.2514098 17.44731699 -9.2578125 14.71484375 C-9.25715172 12.99088505 -9.25587056 11.26692646 -9.25390625 9.54296875 C-9.25593048 8.72006348 -9.25795471 7.8971582 -9.26004028 7.04931641 C-9.22679113 -0.94067822 -7.26257361 0.01012911 0 0 Z " fill="#070705" transform="translate(44.12109375,45.83203125)"/>
<path d="M0 0 C2.88501111 0.38084233 4.29676153 1.03355429 6.16015625 3.28515625 C6.53673261 4.94258774 6.8749522 6.60958246 7.16015625 8.28515625 C7.88460937 8.14335937 8.6090625 8.0015625 9.35546875 7.85546875 C17.00403004 6.69288743 17.00403004 6.69288743 20.2265625 8.34375 C22.99109343 10.90843532 24.05864419 12.57457184 24.59765625 16.34765625 C24.19956268 19.02057022 23.77917962 21.65430693 23.16015625 24.28515625 C25.47015625 25.27515625 27.78015625 26.26515625 30.16015625 27.28515625 C30.21404712 29.24319132 30.25289842 31.20164534 30.28515625 33.16015625 C30.30835938 34.25070313 30.3315625 35.34125 30.35546875 36.46484375 C30.16015625 39.28515625 30.16015625 39.28515625 28.16015625 41.28515625 C26.51024043 41.99226303 24.84453369 42.66459614 23.16015625 43.28515625 C23.29035156 43.93742187 23.42054688 44.5896875 23.5546875 45.26171875 C24.63647762 52.11642625 24.63647762 52.11642625 23.359375 55.25 C21.11844217 58.23547729 19.23205392 59.26589794 15.66015625 60.22265625 C12.59504326 60.27739041 10.10466931 60.08820527 7.16015625 59.28515625 C6.87140625 60.06890625 6.58265625 60.85265625 6.28515625 61.66015625 C5.16015625 64.28515625 5.16015625 64.28515625 3.16015625 66.28515625 C-1.44770758 66.97553306 -5.53323471 67.15622894 -9.46484375 64.53515625 C-10.83984375 62.28515625 -10.83984375 62.28515625 -10.83984375 58.28515625 C-12.17015625 58.78015625 -12.17015625 58.78015625 -13.52734375 59.28515625 C-18.94487464 60.92063727 -18.94487464 60.92063727 -21.83984375 60.28515625 C-25.32400263 57.69025968 -28.44996618 55.06126517 -29.40234375 50.72265625 C-28.73426579 47.82765174 -27.87582692 45.06936101 -26.83984375 42.28515625 C-27.78859375 42.18203125 -28.73734375 42.07890625 -29.71484375 41.97265625 C-32.83984375 41.28515625 -32.83984375 41.28515625 -34.83984375 38.28515625 C-35.140625 35.91015625 -35.140625 35.91015625 -35.15234375 33.28515625 C-35.16910156 32.41890625 -35.18585938 31.55265625 -35.203125 30.66015625 C-34.77127337 27.83686817 -34.08359796 26.99236054 -31.83984375 25.28515625 C-29.65234375 24.59765625 -29.65234375 24.59765625 -27.83984375 24.28515625 C-27.76133375 21.53730642 -27.75606068 19.51256743 -28.71484375 16.91015625 C-28.86634103 13.7287133 -28.23461117 12.96392452 -26.33984375 10.47265625 C-23.76794139 7.71533768 -23.12789266 7.32488713 -19.21484375 6.78515625 C-14.21053341 7.52653556 -14.21053341 7.52653556 -11.83984375 8.28515625 C-11.57171875 7.52203125 -11.30359375 6.75890625 -11.02734375 5.97265625 C-8.51522023 0.28732408 -5.89492405 -0.22046057 0 0 Z M-3.83984375 8.28515625 C-4.87773956 9.92849129 -5.87552299 11.59759492 -6.83984375 13.28515625 C-10.07843149 15.63034048 -12.93225958 15.44797226 -16.83984375 15.28515625 C-18.15984375 15.28515625 -19.47984375 15.28515625 -20.83984375 15.28515625 C-20.7934375 16.0328125 -20.74703125 16.78046875 -20.69921875 17.55078125 C-20.40233304 25.65152004 -20.40233304 25.65152004 -22.65234375 28.91015625 C-24.83984375 30.28515625 -24.83984375 30.28515625 -27.83984375 31.28515625 C-27.83984375 32.60515625 -27.83984375 33.92515625 -27.83984375 35.28515625 C-24.65217819 37.66224378 -24.65217819 37.66224378 -20.83984375 38.28515625 C-20.83984375 42.57515625 -20.83984375 46.86515625 -20.83984375 51.28515625 C-17.37831684 52.43899855 -14.69678303 52.27741256 -11.09375 52.125 C-8.51494583 52.30824258 -6.99392649 52.86661395 -4.83984375 54.28515625 C-4.08984375 56.91015625 -4.08984375 56.91015625 -3.83984375 59.28515625 C-2.51984375 59.28515625 -1.19984375 59.28515625 0.16015625 59.28515625 C0.44890625 58.50140625 0.73765625 57.71765625 1.03515625 56.91015625 C2.16015625 54.28515625 2.16015625 54.28515625 4.16015625 52.28515625 C6.98046875 52.08984375 6.98046875 52.08984375 10.28515625 52.16015625 C11.38085938 52.17820313 12.4765625 52.19625 13.60546875 52.21484375 C14.44851562 52.23804688 15.2915625 52.26125 16.16015625 52.28515625 C16.49015625 51.29515625 16.82015625 50.30515625 17.16015625 49.28515625 C16.83015625 48.62515625 16.50015625 47.96515625 16.16015625 47.28515625 C15.73438754 43.45323787 15.8569431 41.75565942 17.97265625 38.47265625 C20.16015625 36.28515625 20.16015625 36.28515625 23.16015625 35.28515625 C23.16015625 33.96515625 23.16015625 32.64515625 23.16015625 31.28515625 C20.7840276 29.67608517 20.7840276 29.67608517 18.16015625 28.28515625 C15.70111476 24.59659402 16.00724774 22.64304887 16.16015625 18.28515625 C16.16015625 16.96515625 16.16015625 15.64515625 16.16015625 14.28515625 C15.49628906 14.40375 14.83242187 14.52234375 14.1484375 14.64453125 C6.89271439 15.7037609 6.89271439 15.7037609 3.09765625 13.53515625 C1.16015625 11.28515625 1.16015625 11.28515625 0.16015625 8.28515625 C-1.15984375 8.28515625 -2.47984375 8.28515625 -3.83984375 8.28515625 Z " fill="#070605" transform="translate(206.83984375,17.71484375)"/>
<path d="M0 0 C0.91548615 -0.00845947 1.83097229 -0.01691895 2.77420044 -0.02563477 C4.27744118 -0.01652573 4.27744118 -0.01652573 5.81105042 -0.00723267 C6.86820251 -0.01248962 7.92535461 -0.01774658 9.01454163 -0.02316284 C12.51790534 -0.0363938 16.02081664 -0.02761291 19.52418518 -0.01748657 C21.9541228 -0.01950656 24.38405982 -0.02241737 26.81399536 -0.02618408 C31.91089134 -0.03061177 37.00762976 -0.02416249 42.10450745 -0.01016235 C48.64296496 0.00692049 55.18105282 -0.00290345 61.71949673 -0.02087975 C66.73887931 -0.03171321 71.75817407 -0.02827304 76.77755928 -0.02049637 C79.18854376 -0.01849269 81.59953617 -0.02095948 84.0105114 -0.02793503 C87.37913545 -0.03554108 90.74715868 -0.02395606 94.11573792 -0.00723267 C95.11587418 -0.01330536 96.11601044 -0.01937805 97.14645386 -0.02563477 C98.06475983 -0.01717529 98.9830658 -0.00871582 99.92919922 0 C101.123529 0.00169662 101.123529 0.00169662 102.34198666 0.00342751 C105.11894751 0.48298721 106.50275331 1.44433918 108.52809143 3.38095093 C108.96559143 6.38095093 108.96559143 6.38095093 108.52809143 9.38095093 C106.94862112 11.4914982 106.06590697 12.28327427 103.44941711 12.75847435 C102.64490112 12.75960543 101.84038513 12.7607365 101.01148987 12.76190186 C100.08614441 12.77036133 99.16079895 12.7788208 98.20741272 12.78753662 C97.19433044 12.78146393 96.18124817 12.77539124 95.13746643 12.76913452 C94.06895447 12.77439148 93.0004425 12.77964844 91.89955139 12.7850647 C88.35891711 12.79829496 84.81873048 12.78951563 81.27809143 12.77938843 C78.82333795 12.78140828 76.36858504 12.78431898 73.91383362 12.78808594 C68.7656636 12.79251341 63.61764959 12.78606448 58.46949768 12.77206421 C51.86144087 12.7549723 45.25374957 12.7648112 38.64570618 12.7827816 C33.57575208 12.7936079 28.50588503 12.79017836 23.43592834 12.78239822 C20.99899757 12.78039303 18.56205896 12.78286662 16.12513733 12.78983688 C12.72278322 12.7974322 9.32102595 12.7858735 5.91871643 12.76913452 C4.39909302 12.77824356 4.39909302 12.77824356 2.84877014 12.78753662 C1.46075195 12.77484741 1.46075195 12.77484741 0.04469299 12.76190186 C-0.759823 12.76077078 -1.56433899 12.7596397 -2.39323425 12.75847435 C-5.00945558 12.28332304 -5.89556055 11.49395542 -7.47190857 9.38095093 C-8.11448347 4.24035173 -8.11448347 4.24035173 -6.22796535 1.71726036 C-4.0000454 0.02187644 -2.78227988 0.00395426 0 0 Z " fill="#E0E4E7" transform="translate(68.47190856933594,231.61904907226563)"/>
<path d="M0 0 C8.58 0 17.16 0 26 0 C26 8.58 26 17.16 26 26 C17.42 26 8.84 26 0 26 C0 17.42 0 8.84 0 0 Z " fill="#B0A1EA" transform="translate(171,109)"/>
<path d="M0 0 C8.58 0 17.16 0 26 0 C26 8.58 26 17.16 26 26 C17.42 26 8.84 26 0 26 C0 17.42 0 8.84 0 0 Z " fill="#64D1EE" transform="translate(106,109)"/>
<path d="M0 0 C8.58 0 17.16 0 26 0 C26 8.58 26 17.16 26 26 C17.42 26 8.84 26 0 26 C0 17.42 0 8.84 0 0 Z " fill="#F46A80" transform="translate(42,109)"/>
<path d="M0 0 C8.58 0 17.16 0 26 0 C26 8.58 26 17.16 26 26 C17.42 26 8.84 26 0 26 C0 17.42 0 8.84 0 0 Z " fill="#C3E792" transform="translate(106,53)"/>
<path d="M0 0 C8.58 0 17.16 0 26 0 C26 8.58 26 17.16 26 26 C17.42 26 8.84 26 0 26 C0 17.42 0 8.84 0 0 Z " fill="#FACA55" transform="translate(42,53)"/>
<path d="M0 0 C1.32 0 2.64 0 4 0 C5.5625 2.375 5.5625 2.375 7 5 C10.48935471 7.32623648 11.90482598 7.25072494 16 7 C18.26566343 6.56058477 18.26566343 6.56058477 20 6 C20 10 20 10 19.75 13.4375 C20.04588534 17.65386609 21.00604141 19.09158308 24 22 C24.99 22.33 25.98 22.66 27 23 C27 24.32 27 25.64 27 27 C24.625 28.5625 24.625 28.5625 22 30 C19.67376352 33.48935471 19.74927506 34.90482598 20 39 C20.43941523 41.26566343 20.43941523 41.26566343 21 43 C17.25685791 44.10844754 13.98339029 43.96363452 10.12109375 43.7421875 C7.91357885 43.82361057 7.91357885 43.82361057 6.265625 45.37109375 C4.82411575 47.22636954 4.39611761 48.70251784 4 51 C2.68 51 1.36 51 0 51 C-0.0825 50.21625 -0.165 49.4325 -0.25 48.625 C-0.71831271 45.92936506 -0.71831271 45.92936506 -2.6875 44.84375 C-5.50468073 43.81585973 -7.75847473 43.80377321 -10.75 43.875 C-11.73484375 43.89304688 -12.7196875 43.91109375 -13.734375 43.9296875 C-14.48203125 43.95289063 -15.2296875 43.97609375 -16 44 C-17.04976964 40.85069107 -17.10131595 38.61185544 -17.0625 35.3125 C-17.05347656 34.31863281 -17.04445312 33.32476562 -17.03515625 32.30078125 C-17.02355469 31.54152344 -17.01195312 30.78226563 -17 30 C-19.33214148 28.79371992 -21.49642139 27.8345262 -24 27 C-24 25.68 -24 24.36 -24 23 C-23.030625 22.54625 -22.06125 22.0925 -21.0625 21.625 C-17.92920418 20.34213779 -17.92920418 20.34213779 -17 18 C-16.92966231 16.12620395 -16.9156978 14.24998898 -16.9375 12.375 C-16.95103516 10.87066406 -16.95103516 10.87066406 -16.96484375 9.3359375 C-16.97644531 8.56507812 -16.98804688 7.79421875 -17 7 C-14.68665556 7 -12.37114623 7.0401396 -10.0625 7.1875 C-6.48119682 6.96823654 -4.81650448 6.1906146 -2 4 C-0.67206394 1.93299345 -0.67206394 1.93299345 0 0 Z M-10.625 12.1875 C-14.54654419 16.83143391 -16.74174253 21.68724267 -16.4765625 27.8828125 C-15.21870112 33.47101633 -11.43445537 38.42374213 -6.6875 41.5625 C-1.01316648 43.77452832 3.5232213 43.90497683 9.25 41.8125 C14.11590576 38.60542575 17.16786629 35.55314865 19 30 C19.65798282 24.74378841 19.66578928 20.35623742 17.3125 15.5625 C13.62220833 11.47325788 10.40299793 8.2480151 4.6953125 7.83203125 C-1.63605474 7.78392056 -5.61973987 8.01644989 -10.625 12.1875 Z " fill="#E0B54C" transform="translate(203,26)"/>
<path d="M0 0 C3.05831573 1.27171344 3.81632165 2.25640413 6 5 C6.94380265 9.34935721 6.48223037 12.86675864 4.75 16.9375 C1.86340563 20.33955765 -0.00041665 20.89095454 -4.4375 21.375 C-8.62750939 20.93394638 -10.093893 19.98913863 -13 17 C-15.51959805 13.52055507 -15.44144127 10.19369206 -15 6 C-10.98349062 -0.15864772 -7.05022655 -1.0038011 0 0 Z " fill="#5F6873" transform="translate(209,41)"/>
<path d="M0 0 C1.29442017 0.00616333 1.29442017 0.00616333 2.61499023 0.01245117 C4.01974609 0.01535156 4.01974609 0.01535156 5.45288086 0.01831055 C6.43321289 0.03055664 7.41354492 0.04280273 8.42358398 0.05541992 C9.4077832 0.05606445 10.39198242 0.05670898 11.40600586 0.05737305 C18.72090866 0.1027446 18.72090866 0.1027446 19.86108398 1.24291992 C19.98608398 3.74291992 19.98608398 3.74291992 19.86108398 6.24291992 C18.86108398 7.24291992 18.86108398 7.24291992 16.72802734 7.35644531 C15.81158447 7.3512085 14.8951416 7.34597168 13.95092773 7.34057617 C12.96157227 7.33735352 11.9722168 7.33413086 10.95288086 7.33081055 C9.91196289 7.32243164 8.87104492 7.31405273 7.79858398 7.30541992 C6.75379883 7.3009082 5.70901367 7.29639648 4.63256836 7.29174805 C2.04201739 7.27991905 -0.5484216 7.26343681 -3.13891602 7.24291992 C-3.76391602 4.86791992 -3.76391602 4.86791992 -4.13891602 2.24291992 C-2.13891602 0.24291992 -2.13891602 0.24291992 0 0 Z " fill="#0F0F0F" transform="translate(111.138916015625,169.757080078125)"/>
<path d="M0 0 C0.33 0 0.66 0 1 0 C1.70427047 4.06911827 2.0789671 7.04378732 1 11 C0.78784868 14.85015361 0.76743748 18.30231245 2 22 C1.72428861 24.00875442 1.39764263 26.01178687 1 28 C0.67 28 0.34 28 0 28 C-0.02578125 27.37351562 -0.0515625 26.74703125 -0.078125 26.1015625 C-0.13484375 25.28429687 -0.1915625 24.46703125 -0.25 23.625 C-0.29640625 22.81289063 -0.3428125 22.00078125 -0.390625 21.1640625 C-0.78784651 18.84897769 -0.78784651 18.84897769 -2.859375 17.7734375 C-4.56415398 17.15747721 -6.28037487 16.57320838 -8 16 C-8 14.68 -8 13.36 -8 12 C-7.05125 11.690625 -6.1025 11.38125 -5.125 11.0625 C-1.60238644 8.73757505 -1.46162802 8.22496633 -0.625 4.3125 C-0.39177118 2.87882872 -0.17532514 1.4418981 0 0 Z " fill="#D4AC48" transform="translate(187,37)"/>
<path d="M0 0 C2.33205508 3.49808262 2.08349099 4.90894125 2 9 C2.43941523 11.26566343 2.43941523 11.26566343 3 13 C-0.41139003 14.09651823 -3.20655581 13.94215473 -6.75 13.5625 C-7.73484375 13.46066406 -8.7196875 13.35882813 -9.734375 13.25390625 C-10.48203125 13.17011719 -11.2296875 13.08632812 -12 13 C-9.82615436 10.82615436 -7.68729526 9.47801239 -5 8 C-4.34 8 -3.68 8 -3 8 C-1.92474806 5.34771188 -0.90543849 2.71631546 0 0 Z " fill="#D8AF49" transform="translate(221,56)"/>
<path d="M0 0 C1.32 0.66 2.64 1.32 4 2 C4.99 2.33 5.98 2.66 7 3 C7 4.32 7 5.64 7 7 C4.6875 8.625 4.6875 8.625 2 10 C1.01 10.66 0.02 11.32 -1 12 C-0.67 8.04 -0.34 4.08 0 0 Z " fill="#ECBF50" transform="translate(223,46)"/>
<path d="M0 0 C1.84765625 0.33984375 1.84765625 0.33984375 4.0625 0.9375 C5.16271484 1.22947266 5.16271484 1.22947266 6.28515625 1.52734375 C7.13400391 1.76130859 7.13400391 1.76130859 8 2 C7.19095897 6.79280002 4.74015409 8.13520113 1 11 C0.63890458 9.35567294 0.28629924 7.7094792 -0.0625 6.0625 C-0.25972656 5.14597656 -0.45695313 4.22945312 -0.66015625 3.28515625 C-0.77230469 2.53105469 -0.88445312 1.77695312 -1 1 C-0.67 0.67 -0.34 0.34 0 0 Z " fill="#EABD4F" transform="translate(187,32)"/>
</svg>
