<?xml version="1.0" encoding="UTF-8"?>
<svg version="1.1" xmlns="http://www.w3.org/2000/svg" width="32" height="32">
<path d="M0 0 C3.625 0.25 3.625 0.25 5.5625 1.3125 C7.19683566 4.29275914 6.87122562 6.92595411 6.625 10.25 C6.295 10.58 5.965 10.91 5.625 11.25 C5.41568103 13.41296273 5.25702931 15.5809471 5.125 17.75 C4.73611111 24.13888889 4.73611111 24.13888889 3.625 25.25 C2.10571962 25.32179964 0.58332518 25.33392007 -0.9375 25.3125 C-1.76378906 25.30347656 -2.59007813 25.29445313 -3.44140625 25.28515625 C-4.39853516 25.26775391 -4.39853516 25.26775391 -5.375 25.25 C-5.375 25.91 -5.375 26.57 -5.375 27.25 C-4.055 27.58 -2.735 27.91 -1.375 28.25 C-1.705 29.57 -2.035 30.89 -2.375 32.25 C-7.985 32.25 -13.595 32.25 -19.375 32.25 C-19.045 30.6 -18.715 28.95 -18.375 27.25 C-17.385 27.25 -16.395 27.25 -15.375 27.25 C-15.375 26.59 -15.375 25.93 -15.375 25.25 C-16.01308594 25.26160156 -16.65117187 25.27320312 -17.30859375 25.28515625 C-18.54802734 25.29869141 -18.54802734 25.29869141 -19.8125 25.3125 C-21.04806641 25.32990234 -21.04806641 25.32990234 -22.30859375 25.34765625 C-24.375 25.25 -24.375 25.25 -25.375 24.25 C-25.6526444 20.94561091 -25.60674988 17.62717866 -25.625 14.3125 C-25.645625 13.37986328 -25.66625 12.44722656 -25.6875 11.48632812 C-25.69523437 10.14924805 -25.69523437 10.14924805 -25.703125 8.78515625 C-25.7124707 7.964104 -25.72181641 7.14305176 -25.73144531 6.29711914 C-25.61381836 5.62156982 -25.49619141 4.94602051 -25.375 4.25 C-22.34873739 2.23249159 -21.60304812 1.98827019 -18.1796875 1.87109375 C-16.98279297 1.81985352 -16.98279297 1.81985352 -15.76171875 1.76757812 C-14.93285156 1.74115234 -14.10398437 1.71472656 -13.25 1.6875 C-8.48654051 1.51501726 -4.43149309 0.32825875 0 0 Z " fill="#628A9B" transform="translate(25.375,-0.25)"/>
<path d="M0 0 C3.625 0.25 3.625 0.25 5.5625 1.3125 C7.19683566 4.29275914 6.87122562 6.92595411 6.625 10.25 C6.295 10.58 5.965 10.91 5.625 11.25 C5.41568103 13.41296273 5.25702931 15.5809471 5.125 17.75 C4.73611111 24.13888889 4.73611111 24.13888889 3.625 25.25 C2.10571962 25.32179964 0.58332518 25.33392007 -0.9375 25.3125 C-1.76378906 25.30347656 -2.59007813 25.29445313 -3.44140625 25.28515625 C-4.39853516 25.26775391 -4.39853516 25.26775391 -5.375 25.25 C-5.375 25.91 -5.375 26.57 -5.375 27.25 C-4.055 27.58 -2.735 27.91 -1.375 28.25 C-1.705 29.57 -2.035 30.89 -2.375 32.25 C-7.985 32.25 -13.595 32.25 -19.375 32.25 C-19.045 30.6 -18.715 28.95 -18.375 27.25 C-17.385 27.25 -16.395 27.25 -15.375 27.25 C-15.375 26.59 -15.375 25.93 -15.375 25.25 C-16.01308594 25.26160156 -16.65117187 25.27320312 -17.30859375 25.28515625 C-18.54802734 25.29869141 -18.54802734 25.29869141 -19.8125 25.3125 C-21.04806641 25.32990234 -21.04806641 25.32990234 -22.30859375 25.34765625 C-24.375 25.25 -24.375 25.25 -25.375 24.25 C-25.6526444 20.94561091 -25.60674988 17.62717866 -25.625 14.3125 C-25.645625 13.37986328 -25.66625 12.44722656 -25.6875 11.48632812 C-25.69523437 10.14924805 -25.69523437 10.14924805 -25.703125 8.78515625 C-25.7124707 7.964104 -25.72181641 7.14305176 -25.73144531 6.29711914 C-25.61381836 5.62156982 -25.49619141 4.94602051 -25.375 4.25 C-22.34873739 2.23249159 -21.60304812 1.98827019 -18.1796875 1.87109375 C-16.98279297 1.81985352 -16.98279297 1.81985352 -15.76171875 1.76757812 C-14.93285156 1.74115234 -14.10398437 1.71472656 -13.25 1.6875 C-8.48654051 1.51501726 -4.43149309 0.32825875 0 0 Z M-24.375 5.25 C-24.4733721 6.58043625 -24.50578592 7.91593344 -24.5078125 9.25 C-24.50910156 10.054375 -24.51039062 10.85875 -24.51171875 11.6875 C-24.50785156 12.533125 -24.50398438 13.37875 -24.5 14.25 C-24.50386719 15.095625 -24.50773437 15.94125 -24.51171875 16.8125 C-24.51042969 17.616875 -24.50914063 18.42125 -24.5078125 19.25 C-24.50668457 19.9925 -24.50555664 20.735 -24.50439453 21.5 C-24.56442216 23.27825811 -24.56442216 23.27825811 -23.375 24.25 C-21.85571962 24.32179964 -20.33332518 24.33392007 -18.8125 24.3125 C-17.57306641 24.29896484 -17.57306641 24.29896484 -16.30859375 24.28515625 C-15.67050781 24.27355469 -15.03242188 24.26195313 -14.375 24.25 C-14.375 25.9 -14.375 27.55 -14.375 29.25 C-15.365 29.25 -16.355 29.25 -17.375 29.25 C-17.375 29.91 -17.375 30.57 -17.375 31.25 C-12.755 31.25 -8.135 31.25 -3.375 31.25 C-3.375 30.59 -3.375 29.93 -3.375 29.25 C-4.365 29.25 -5.355 29.25 -6.375 29.25 C-6.375 27.93 -6.375 26.61 -6.375 25.25 C-3.405 24.92 -0.435 24.59 2.625 24.25 C2.625 20.29 2.625 16.33 2.625 12.25 C1.635 12.745 1.635 12.745 0.625 13.25 C0.625 14.9 0.625 16.55 0.625 18.25 C-1.355 18.25 -3.335 18.25 -5.375 18.25 C-4.7890625 16.65494792 -4.203125 15.05989583 -3.6171875 13.46484375 C-3.25331366 10.13715875 -4.35544663 7.39551094 -5.375 4.25 C-8.35422593 4.22316013 -11.33321295 4.20323963 -14.3125 4.1875 C-15.16263672 4.17912109 -16.01277344 4.17074219 -16.88867188 4.16210938 C-17.69755859 4.15888672 -18.50644531 4.15566406 -19.33984375 4.15234375 C-20.0887085 4.14710693 -20.83757324 4.14187012 -21.60913086 4.13647461 C-23.40167739 4.05658248 -23.40167739 4.05658248 -24.375 5.25 Z " fill="#040404" transform="translate(25.375,-0.25)"/>
<path d="M0 0 C5.33678117 -0.07115708 9.74364995 -0.05127001 15 1 C15 4.96 15 8.92 15 13 C10.05 13 5.1 13 0 13 C0 8.71 0 4.42 0 0 Z " fill="#36A0C8" transform="translate(3,5)"/>
<path d="M0 0 C0.66 0.66 1.32 1.32 2 2 C1.75455166 4.01267638 1.39764263 6.01178687 1 8 C0.79873604 9.62335272 0.61167448 11.24851775 0.4375 12.875 C0.35371094 13.65617188 0.26992188 14.43734375 0.18359375 15.2421875 C0.12300781 15.82226562 0.06242187 16.40234375 0 17 C-0.33 17 -0.66 17 -1 17 C-1.33 15.02 -1.66 13.04 -2 11 C-2.33 12.65 -2.66 14.3 -3 16 C-4.98 16 -6.96 16 -9 16 C-9 13.33333333 -9 10.66666667 -9 8 C-9.0825 7.01 -9.165 6.02 -9.25 5 C-9 2 -9 2 -7.3125 0.0625 C-4.38550346 -1.28233625 -3.01415011 -1.03115662 0 0 Z " fill="#363E44" transform="translate(29,2)"/>
<path d="M0 0 C8.58 0 17.16 0 26 0 C26 0.33 26 0.66 26 1 C21.545 1.495 21.545 1.495 17 2 C17 3.32 17 4.64 17 6 C17.99 6 18.98 6 20 6 C20 6.66 20 7.32 20 8 C15.38 8 10.76 8 6 8 C6 7.34 6 6.68 6 6 C6.99 6 7.98 6 9 6 C9 4.35 9 2.7 9 1 C6.03 1 3.06 1 0 1 C0 0.67 0 0.34 0 0 Z " fill="#6D6F71" transform="translate(2,23)"/>
<path d="M0 0 C8.58 0 17.16 0 26 0 C26 0.99 26 1.98 26 3 C17.42 3 8.84 3 0 3 C0 2.01 0 1.02 0 0 Z " fill="#C8CCCE" transform="translate(2,20)"/>
<path d="M0 0 C1.32 0.33 2.64 0.66 4 1 C4.6875 3.3125 4.6875 3.3125 5 6 C3.5625 7.8125 3.5625 7.8125 2 9 C1.01 8.67 0.02 8.34 -1 8 C-1.625 5.6875 -1.625 5.6875 -2 3 C-1.34 2.01 -0.68 1.02 0 0 Z " fill="#433C29" transform="translate(24,1)"/>
<path d="M0 0 C2.625 0.375 2.625 0.375 5 1 C4.67 2.98 4.34 4.96 4 7 C2.02 7 0.04 7 -2 7 C-2.125 4.625 -2.125 4.625 -2 2 C-1.34 1.34 -0.68 0.68 0 0 Z " fill="#446082" transform="translate(22,11)"/>
<path d="M0 0 C1.67542976 0.28604898 3.34385343 0.61781233 5 1 C5 2.65 5 4.3 5 6 C3.02 6 1.04 6 -1 6 C-1.042721 4.33388095 -1.04063832 2.66617115 -1 1 C-0.67 0.67 -0.34 0.34 0 0 Z " fill="#2E6F84" transform="translate(13,12)"/>
<path d="M0 0 C0.99 0 1.98 0 3 0 C4.85072153 5.14089313 5.21474076 7.95531271 3 13 C2.34 13 1.68 13 1 13 C0.29826347 8.61414671 -0.10834375 4.44209357 0 0 Z " fill="#37A4CC" transform="translate(17,5)"/>
<path d="M0 0 C1.98 0 3.96 0 6 0 C6 1.65 6 3.3 6 5 C4.02 5 2.04 5 0 5 C0 3.35 0 1.7 0 0 Z " fill="#644A5A" transform="translate(4,13)"/>
<path d="M0 0 C1.98 0 3.96 0 6 0 C6 1.65 6 3.3 6 5 C4.02 5 2.04 5 0 5 C0 3.35 0 1.7 0 0 Z " fill="#537761" transform="translate(12,6)"/>
<path d="M0 0 C1.98 0 3.96 0 6 0 C6 1.65 6 3.3 6 5 C4.02 5 2.04 5 0 5 C0 3.35 0 1.7 0 0 Z " fill="#666D4A" transform="translate(4,6)"/>
<path d="M0 0 C1.98 0 3.96 0 6 0 C6 1.32 6 2.64 6 4 C4.02 4 2.04 4 0 4 C0 2.68 0 1.36 0 0 Z " fill="#BAC0C6" transform="translate(12,24)"/>
<path d="M0 0 C0.33 0 0.66 0 1 0 C1 1.65 1 3.3 1 5 C0.01 5 -0.98 5 -2 5 C-2.33 5.99 -2.66 6.98 -3 8 C-3.33 6.68 -3.66 5.36 -4 4 C-2.68 3.67 -1.36 3.34 0 3 C0 2.01 0 1.02 0 0 Z " fill="#0E0E0E" transform="translate(10,24)"/>
</svg>
