<?xml version="1.0" encoding="UTF-8"?>
<svg version="1.1" xmlns="http://www.w3.org/2000/svg" width="48" height="48">
<path d="M0 0 C0.76183594 0.10054688 1.52367187 0.20109375 2.30859375 0.3046875 C3.07300781 0.38976563 3.83742187 0.47484375 4.625 0.5625 C7.18016099 1.30599067 8.17024758 2.0431108 9.74609375 4.1796875 C10.328125 6.3359375 10.328125 6.3359375 10.55859375 8.6796875 C10.64753906 9.453125 10.73648438 10.2265625 10.828125 11.0234375 C10.74609375 13.1796875 10.74609375 13.1796875 8.74609375 16.1796875 C8.43028727 18.15754622 8.43028727 18.15754622 8.4375 20.3046875 C8.41236328 21.09359375 8.38722656 21.8825 8.36132812 22.6953125 C8.32617354 24.35148422 8.29492302 26.00774342 8.26757812 27.6640625 C8.24115234 28.45296875 8.21472656 29.241875 8.1875 30.0546875 C8.17404541 30.77398438 8.16059082 31.49328125 8.14672852 32.234375 C7.62960565 34.7453043 6.77483418 35.64699993 4.74609375 37.1796875 C1.609375 37.47265625 1.609375 37.47265625 -1.94140625 37.3671875 C-3.71064453 37.32658203 -3.71064453 37.32658203 -5.515625 37.28515625 C-6.41925781 37.25035156 -7.32289062 37.21554688 -8.25390625 37.1796875 C-7.92390625 38.4996875 -7.59390625 39.8196875 -7.25390625 41.1796875 C-5.60390625 41.5096875 -3.95390625 41.8396875 -2.25390625 42.1796875 C-2.21118525 43.84580655 -2.21326793 45.51351635 -2.25390625 47.1796875 C-3.25390625 48.1796875 -3.25390625 48.1796875 -5.47875977 48.29321289 C-6.43709717 48.28797607 -7.39543457 48.28273926 -8.3828125 48.27734375 C-9.93452148 48.27250977 -9.93452148 48.27250977 -11.51757812 48.26757812 C-12.60619141 48.25919922 -13.69480469 48.25082031 -14.81640625 48.2421875 C-16.45512695 48.23541992 -16.45512695 48.23541992 -18.12695312 48.22851562 C-20.8359912 48.21668576 -23.54492224 48.20020293 -26.25390625 48.1796875 C-26.91390625 46.8596875 -27.57390625 45.5396875 -28.25390625 44.1796875 C-26.94140625 42.6796875 -26.94140625 42.6796875 -25.25390625 41.1796875 C-24.26390625 41.1796875 -23.27390625 41.1796875 -22.25390625 41.1796875 C-22.25390625 39.8596875 -22.25390625 38.5396875 -22.25390625 37.1796875 C-23.62675781 37.21449219 -23.62675781 37.21449219 -25.02734375 37.25 C-26.81011719 37.27707031 -26.81011719 37.27707031 -28.62890625 37.3046875 C-29.81226563 37.32789063 -30.995625 37.35109375 -32.21484375 37.375 C-35.25390625 37.1796875 -35.25390625 37.1796875 -37.25390625 35.1796875 C-37.71622782 30.55112939 -37.57788514 25.89113953 -37.56640625 21.2421875 C-37.58251953 19.94087891 -37.59863281 18.63957031 -37.61523438 17.29882812 C-37.61587891 16.05423828 -37.61652344 14.80964844 -37.6171875 13.52734375 C-37.62016846 12.38273682 -37.62314941 11.23812988 -37.6262207 10.05883789 C-37.25390625 7.1796875 -37.25390625 7.1796875 -36.12353516 5.30834961 C-33.38662551 3.65612536 -31.15729589 3.79336095 -27.9765625 3.7734375 C-26.74099609 3.75152344 -25.50542969 3.72960937 -24.23242188 3.70703125 C-22.29399414 3.69349609 -22.29399414 3.69349609 -20.31640625 3.6796875 C-17.76549614 3.6618222 -15.21463487 3.63112742 -12.6640625 3.5859375 C-11.53105713 3.57884766 -10.39805176 3.57175781 -9.23071289 3.56445312 C-5.38946919 3.06795513 -3.6349622 0.28978901 0 0 Z " fill="#0B0C0D" transform="translate(37.25390625,-0.1796875)"/>
<path d="M0 0 C1.12591553 0.00523682 2.25183105 0.01047363 3.41186523 0.01586914 C4.62680664 0.0190918 5.84174805 0.02231445 7.09350586 0.02563477 C8.37290039 0.03401367 9.65229492 0.04239258 10.97045898 0.05102539 C12.2537207 0.05553711 13.53698242 0.06004883 14.85913086 0.06469727 C18.04211921 0.07652994 21.22501661 0.09301471 24.40795898 0.11352539 C24.52913086 0.74000977 24.65030273 1.36649414 24.77514648 2.01196289 C24.94272461 2.82922852 25.11030273 3.64649414 25.28295898 4.48852539 C25.5265918 5.70668945 25.5265918 5.70668945 25.77514648 6.94946289 C26.2745483 9.30026462 26.2745483 9.30026462 28.40795898 11.11352539 C30.61046891 11.57358885 30.61046891 11.57358885 33.03295898 11.73852539 C34.47670898 11.86227539 35.92045898 11.98602539 37.40795898 12.11352539 C37.40795898 15.74352539 37.40795898 19.37352539 37.40795898 23.11352539 C23.87795898 23.11352539 10.34795898 23.11352539 -3.59204102 23.11352539 C-3.61266602 19.50415039 -3.63329102 15.89477539 -3.65454102 12.17602539 C-3.66364502 11.03657471 -3.67274902 9.89712402 -3.68212891 8.72314453 C-3.68462646 7.83232178 -3.68712402 6.94149902 -3.68969727 6.02368164 C-3.69493408 5.10723877 -3.7001709 4.1907959 -3.70556641 3.24658203 C-3.53720941 0.08328075 -3.18782501 0.13961935 0 0 Z " fill="#7CA7B9" transform="translate(5.592041015625,5.886474609375)"/>
<path d="M0 0 C1.37478516 0.01740234 1.37478516 0.01740234 2.77734375 0.03515625 C3.69644531 0.04417969 4.61554687 0.05320312 5.5625 0.0625 C6.27277344 0.07410156 6.98304687 0.08570313 7.71484375 0.09765625 C8.16859375 1.21140625 8.62234375 2.32515625 9.08984375 3.47265625 C10.43950361 7.05964633 10.43950361 7.05964633 12.71484375 9.09765625 C15.03759552 9.49813069 17.37223732 9.83736665 19.71484375 10.09765625 C19.71484375 13.06765625 19.71484375 16.03765625 19.71484375 19.09765625 C12.45484375 19.09765625 5.19484375 19.09765625 -2.28515625 19.09765625 C-2.28515625 15.79765625 -2.28515625 12.49765625 -2.28515625 9.09765625 C-2.61515625 8.76765625 -2.94515625 8.43765625 -3.28515625 8.09765625 C-3.41015625 4.59765625 -3.41015625 4.59765625 -3.28515625 1.09765625 C-2.28515625 0.09765625 -2.28515625 0.09765625 0 0 Z " fill="#339CC3" transform="translate(21.28515625,7.90234375)"/>
<path d="M0 0 C13.53 0 27.06 0 41 0 C40.67 1.65 40.34 3.3 40 5 C27.13 5 14.26 5 1 5 C0.67 3.35 0.34 1.7 0 0 Z " fill="#C1C4C7" transform="translate(2,30)"/>
<path d="M0 0 C0.76183594 0.10054688 1.52367187 0.20109375 2.30859375 0.3046875 C3.07300781 0.38976563 3.83742187 0.47484375 4.625 0.5625 C7.18571962 1.3076081 8.17887942 2.02718633 9.74609375 4.1796875 C10.2578125 6.44140625 10.2578125 6.44140625 10.43359375 8.8671875 C10.53220703 10.07955078 10.53220703 10.07955078 10.6328125 11.31640625 C10.68888672 12.23873047 10.68888672 12.23873047 10.74609375 13.1796875 C9.75609375 13.5096875 8.76609375 13.8396875 7.74609375 14.1796875 C7.82859375 13.1071875 7.91109375 12.0346875 7.99609375 10.9296875 C8.04539405 7.220598 8.04539405 7.220598 6.18359375 4.6796875 C3.70797157 2.84641824 3.70797157 2.84641824 0.12109375 3.3046875 C-3.2993268 3.88709464 -3.2993268 3.88709464 -5.25390625 6.1796875 C-8.14306641 6.49853516 -8.14306641 6.49853516 -11.79296875 6.59375 C-13.74589844 6.65175781 -13.74589844 6.65175781 -15.73828125 6.7109375 C-17.11848487 6.74239513 -18.49869329 6.77364241 -19.87890625 6.8046875 C-21.26695166 6.84286684 -22.65497336 6.88191855 -24.04296875 6.921875 C-27.4464781 7.01641693 -30.8499779 7.10196647 -34.25390625 7.1796875 C-34.28276963 11.65884078 -34.30065812 16.13797041 -34.31640625 20.6171875 C-34.32478516 21.89658203 -34.33316406 23.17597656 -34.34179688 24.49414062 C-34.34501953 25.70908203 -34.34824219 26.92402344 -34.3515625 28.17578125 C-34.35679932 29.30169678 -34.36203613 30.4276123 -34.36743164 31.58764648 C-34.54936073 34.10939621 -34.54936073 34.10939621 -33.25390625 35.1796875 C-31.07097851 35.41450443 -28.88187451 35.59332073 -26.69140625 35.7421875 C-25.49386719 35.82597656 -24.29632813 35.90976562 -23.0625 35.99609375 C-21.67224609 36.08697266 -21.67224609 36.08697266 -20.25390625 36.1796875 C-20.25390625 37.8296875 -20.25390625 39.4796875 -20.25390625 41.1796875 C-20.91390625 40.8496875 -21.57390625 40.5196875 -22.25390625 40.1796875 C-22.25390625 39.1896875 -22.25390625 38.1996875 -22.25390625 37.1796875 C-23.62675781 37.21449219 -23.62675781 37.21449219 -25.02734375 37.25 C-26.81011719 37.27707031 -26.81011719 37.27707031 -28.62890625 37.3046875 C-29.81226563 37.32789063 -30.995625 37.35109375 -32.21484375 37.375 C-35.25390625 37.1796875 -35.25390625 37.1796875 -37.25390625 35.1796875 C-37.71622782 30.55112939 -37.57788514 25.89113953 -37.56640625 21.2421875 C-37.58251953 19.94087891 -37.59863281 18.63957031 -37.61523438 17.29882812 C-37.61587891 16.05423828 -37.61652344 14.80964844 -37.6171875 13.52734375 C-37.62016846 12.38273682 -37.62314941 11.23812988 -37.6262207 10.05883789 C-37.25390625 7.1796875 -37.25390625 7.1796875 -36.12353516 5.30834961 C-33.38662551 3.65612536 -31.15729589 3.79336095 -27.9765625 3.7734375 C-26.74099609 3.75152344 -25.50542969 3.72960937 -24.23242188 3.70703125 C-22.29399414 3.69349609 -22.29399414 3.69349609 -20.31640625 3.6796875 C-17.76549614 3.6618222 -15.21463487 3.63112742 -12.6640625 3.5859375 C-11.53105713 3.57884766 -10.39805176 3.57175781 -9.23071289 3.56445312 C-5.38946919 3.06795513 -3.6349622 0.28978901 0 0 Z " fill="#030303" transform="translate(37.25390625,-0.1796875)"/>
<path d="M0 0 C3.3 0 6.6 0 10 0 C10 6.27 10 12.54 10 19 C6.7 19 3.4 19 0 19 C0 12.73 0 6.46 0 0 Z " fill="#329AC1" transform="translate(4,8)"/>
<path d="M0 0 C3.3 0 6.6 0 10 0 C10.33 2.31 10.66 4.62 11 7 C12.65 7 14.3 7 16 7 C16 7.99 16 8.98 16 10 C8.74 10 1.48 10 -6 10 C-6.33 8.68 -6.66 7.36 -7 6 C-5.5459375 5.62875 -5.5459375 5.62875 -4.0625 5.25 C-2.5465625 4.63125 -2.5465625 4.63125 -1 4 C-0.67 2.68 -0.34 1.36 0 0 Z " fill="#818385" transform="translate(17,36)"/>
<path d="M0 0 C2 2 2 2 2 5 C1.34 5 0.68 5 0 5 C0 4.01 0 3.02 0 2 C-1.32 2 -2.64 2 -4 2 C-3.01 2.33 -2.02 2.66 -1 3 C0.125 7.75 0.125 7.75 -1 10 C-1.66 9.67 -2.32 9.34 -3 9 C-2.67 7.35 -2.34 5.7 -2 4 C-3.65 4 -5.3 4 -7 4 C-7 5.65 -7 7.3 -7 9 C-6.67 7.68 -6.34 6.36 -6 5 C-5.01 5 -4.02 5 -3 5 C-3.33 6.98 -3.66 8.96 -4 11 C-4.66 11 -5.32 11 -6 11 C-6 11.66 -6 12.32 -6 13 C-4.35 12.67 -2.7 12.34 -1 12 C-1.33 12.66 -1.66 13.32 -2 14 C-8.36 13.52 -8.36 13.52 -11 11.375 C-12.46981805 7.88418213 -11.98413921 5.60851044 -11 2 C-7.79544215 -1.94407121 -4.63413823 -1.11562587 0 0 Z " fill="#41464C" transform="translate(43,3)"/>
<path d="M0 0 C1.65 0 3.3 0 5 0 C5 2.64 5 5.28 5 8 C7.31 8.33 9.62 8.66 12 9 C12 9.33 12 9.66 12 10 C9.69 10 7.38 10 5 10 C5 12.97 5 15.94 5 19 C3.35 19 1.7 19 0 19 C0 16.03 0 13.06 0 10 C-2.31 10 -4.62 10 -7 10 C-7 9.67 -7 9.34 -7 9 C-4.69 9 -2.38 9 0 9 C0 6.03 0 3.06 0 0 Z " fill="#35A0C8" transform="translate(14,8)"/>
<path d="M0 0 C2.64 0 5.28 0 8 0 C8 2.64 8 5.28 8 8 C5.66705225 8.04241723 3.33297433 8.04092937 1 8 C0 7 0 7 -0.0625 3.4375 C-0.041875 2.303125 -0.02125 1.16875 0 0 Z " fill="#213547" transform="translate(30,19)"/>
<path d="M0 0 C2.64 0 5.28 0 8 0 C8 2.64 8 5.28 8 8 C5.66705225 8.04241723 3.33297433 8.04092937 1 8 C0 7 0 7 -0.0625 3.4375 C-0.041875 2.303125 -0.02125 1.16875 0 0 Z " fill="#663E4C" transform="translate(6,19)"/>
<path d="M0 0 C1.134375 0.020625 2.26875 0.04125 3.4375 0.0625 C3.4375 2.7025 3.4375 5.3425 3.4375 8.0625 C0.7975 8.0625 -1.8425 8.0625 -4.5625 8.0625 C-4.60491723 5.72955225 -4.60342937 3.39547433 -4.5625 1.0625 C-3.5625 0.0625 -3.5625 0.0625 0 0 Z " fill="#173439" transform="translate(22.5625,7.9375)"/>
<path d="M0 0 C3.3 0 6.6 0 10 0 C10.33 1.98 10.66 3.96 11 6 C7.37 6 3.74 6 0 6 C0 4.02 0 2.04 0 0 Z " fill="#B8BDC3" transform="translate(17,36)"/>
<path d="M0 0 C2.97 0.495 2.97 0.495 6 1 C6 1.99 6 2.98 6 4 C6.99 3.67 7.98 3.34 9 3 C8.6875 6.375 8.6875 6.375 8 10 C4.77208445 12.1519437 3.71599191 12.20086443 0 12 C0 11.34 0 10.68 0 10 C0.66 10 1.32 10 2 10 C2.33 8.02 2.66 6.04 3 4 C2.01 4 1.02 4 0 4 C0.33 5.32 0.66 6.64 1 8 C0.34 8 -0.32 8 -1 8 C-1 6.35 -1 4.7 -1 3 C0.65 3 2.3 3 4 3 C4 4.65 4 6.3 4 8 C5.29633621 6.93354885 5.29633621 6.93354885 5.0625 4.4375 C5.041875 3.633125 5.02125 2.82875 5 2 C3.35 1.67 1.7 1.34 0 1 C0 0.67 0 0.34 0 0 Z " fill="#292A29" transform="translate(37,4)"/>
<path d="M0 0 C2.31 0 4.62 0 7 0 C7 2.64 7 5.28 7 8 C4.69 8 2.38 8 0 8 C0 5.36 0 2.72 0 0 Z " fill="#306878" transform="translate(19,19)"/>
<path d="M0 0 C2.64 0 5.28 0 8 0 C8 2.31 8 4.62 8 7 C5.36 7 2.72 7 0 7 C0 4.69 0 2.38 0 0 Z " fill="#1A2724" transform="translate(6,9)"/>
<path d="M0 0 C5.94 0 11.88 0 18 0 C18 0.99 18 1.98 18 3 C12.39 3 6.78 3 1 3 C0.67 2.01 0.34 1.02 0 0 Z " fill="#E5EAED" transform="translate(24,31)"/>
<path d="M0 0 C1.65 0 3.3 0 5 0 C5 0.66 5 1.32 5 2 C10.61 2 16.22 2 22 2 C22 2.33 22 2.66 22 3 C9.13 3 -3.74 3 -17 3 C-17 2.67 -17 2.34 -17 2 C-11.39 2 -5.78 2 0 2 C0 1.34 0 0.68 0 0 Z " fill="#AAADAF" transform="translate(20,32)"/>
<path d="M0 0 C1.1446875 0.3403125 1.1446875 0.3403125 2.3125 0.6875 C3.4375 5.4375 3.4375 5.4375 2.3125 7.6875 C1.6525 7.3575 0.9925 7.0275 0.3125 6.6875 C0.6425 5.0375 0.9725 3.3875 1.3125 1.6875 C-0.3375 1.6875 -1.9875 1.6875 -3.6875 1.6875 C-3.6875 3.3375 -3.6875 4.9875 -3.6875 6.6875 C-3.3575 5.3675 -3.0275 4.0475 -2.6875 2.6875 C-1.6975 2.6875 -0.7075 2.6875 0.3125 2.6875 C-0.0175 4.6675 -0.3475 6.6475 -0.6875 8.6875 C-2.0075 8.3575 -3.3275 8.0275 -4.6875 7.6875 C-5.375 5.375 -5.375 5.375 -5.6875 2.6875 C-4.0011022 -0.12316299 -3.27764429 -0.38112143 0 0 Z " fill="#6C5D37" transform="translate(39.6875,5.3125)"/>
<path d="M0 0 C1.65 0 3.3 0 5 0 C5 1.65 5 3.3 5 5 C3.35 5 1.7 5 0 5 C0 3.35 0 1.7 0 0 Z " fill="#B0CF83" transform="translate(20,10)"/>
<path d="M0 0 C1.65 0 3.3 0 5 0 C5 1.65 5 3.3 5 5 C3.35 5 1.7 5 0 5 C0 3.35 0 1.7 0 0 Z " fill="#DEB44B" transform="translate(8,10)"/>
<path d="M0 0 C1.65 0 3.3 0 5 0 C5 1.32 5 2.64 5 4 C3.35 4 1.7 4 0 4 C0 2.68 0 1.36 0 0 Z " fill="#A99BE1" transform="translate(32,21)"/>
</svg>
