<?xml version="1.0" encoding="UTF-8"?>
<svg version="1.1" xmlns="http://www.w3.org/2000/svg" width="512" height="512">
<path d="M0 0 C19.82982709 15.4552153 32.66974719 36.38770557 36.95703125 61.3046875 C37.89314628 76.4736245 38.09284522 91.85583256 32.95703125 106.3046875 C32.72097168 106.9735498 32.48491211 107.64241211 32.24169922 108.33154297 C28.08380934 119.65783874 22.06131674 131.35629902 12.64125919 139.18707085 C7.08786533 143.84595406 2.44713792 147.96460935 1.50847042 155.43830323 C1.2839059 159.34631754 1.34464641 163.21849262 1.45288086 167.12939453 C1.45323456 168.88684871 1.44778878 170.64431204 1.43704224 172.4017334 C1.42375168 177.13869474 1.48932553 181.87161023 1.56870723 186.6077981 C1.63718927 191.58333556 1.62812544 196.55871634 1.62660217 201.53463745 C1.63462002 210.95309896 1.70519588 220.36990964 1.80156857 229.78784168 C1.97186627 246.64893187 2.03108852 263.51066088 2.07370383 280.37249649 C2.09106041 286.28159494 2.13432214 292.18976837 2.19995201 298.09852242 C2.23779209 301.78099082 2.25960125 305.46344586 2.27804947 309.14605713 C2.29022094 310.84437549 2.30936711 312.54266153 2.33627129 314.24081039 C2.5501163 328.02438714 0.82963872 338.96772426 -9.04296875 349.3046875 C-16.94298204 356.66270404 -26.86178997 360.43525431 -37.61750793 360.42494202 C-38.72663544 360.42631668 -39.83576294 360.42769135 -40.97850037 360.42910767 C-42.18547073 360.42551239 -43.3924411 360.42191711 -44.63598633 360.41821289 C-45.9144342 360.41835892 -47.19288208 360.41850494 -48.5100708 360.4186554 C-52.00761118 360.41894189 -55.50511715 360.41306907 -59.00264955 360.40608144 C-62.66083746 360.39982327 -66.31902619 360.39924215 -69.97721863 360.39805603 C-76.90088131 360.39494998 -83.82452818 360.38674638 -90.74818391 360.37670654 C-98.63206544 360.36552286 -106.51594774 360.36002927 -114.39983523 360.35501111 C-130.61422233 360.34456316 -146.82859352 360.32697777 -163.04296875 360.3046875 C-162.60239649 364.58051229 -162.14804417 368.85476976 -161.69140625 373.12890625 C-161.56822021 374.32608276 -161.44503418 375.52325928 -161.31811523 376.75671387 C-159.74435225 391.3400854 -156.19147883 405.07012267 -150.9609375 418.75 C-150.04296875 421.3046875 -150.04296875 421.3046875 -150.04296875 423.3046875 C-149.08519531 423.28897705 -148.12742187 423.2732666 -147.140625 423.25708008 C-143.5549373 423.20239038 -139.96928575 423.16819703 -136.38330078 423.13989258 C-134.83733907 423.1248942 -133.29141927 423.10448863 -131.74560547 423.07836914 C-113.98809379 422.78604083 -113.98809379 422.78604083 -105.79296875 428.6171875 C-100.54185257 433.74896013 -97.44624168 439.08341505 -96.7421875 446.453125 C-96.70887675 455.62468513 -97.56003117 462.81496537 -104.16825104 469.59578896 C-113.71468932 478.2978428 -125.385106 477.01477509 -137.49023438 476.95166016 C-139.67250802 476.95844184 -141.85477593 476.96734806 -144.03703308 476.97821045 C-149.94409235 477.00094445 -155.85071345 476.99219155 -161.75778008 476.97631502 C-167.94973781 476.96362558 -174.1416589 476.9754046 -180.33361816 476.98324585 C-190.73045564 476.99233351 -201.12711532 476.98037754 -211.52392578 476.95654297 C-223.53127236 476.92933354 -235.53812403 476.9381483 -247.54546785 476.965675 C-257.86849483 476.98839009 -268.19139425 476.99155435 -278.51443815 476.97848165 C-284.67390619 476.97070042 -290.8331749 476.96960921 -296.99263 476.98616409 C-302.78438937 477.00064433 -308.5756032 476.99052153 -314.36730385 476.96169281 C-316.48845325 476.95510107 -318.60964884 476.95694677 -320.73077965 476.96800613 C-342.82730773 477.07256307 -342.82730773 477.07256307 -350.91768646 469.56502724 C-356.60836679 463.61013784 -358.23338262 458.09845582 -358.54296875 449.9921875 C-358.36339843 442.09109322 -356.70341804 436.39117483 -351.3984375 430.46875 C-345.31514362 424.83861346 -339.12867424 422.83213059 -330.921875 423.01171875 C-330.17711411 423.01596359 -329.43235321 423.02020844 -328.6650238 423.02458191 C-326.31145402 423.04123026 -323.95877496 423.07885375 -321.60546875 423.1171875 C-319.99936142 423.13225235 -318.39324052 423.14593759 -316.78710938 423.15820312 C-312.87205828 423.19108798 -308.95766396 423.24277124 -305.04296875 423.3046875 C-304.90487793 422.56766602 -304.76678711 421.83064453 -304.62451172 421.07128906 C-304.11688802 418.65634711 -303.49518861 416.38445463 -302.73828125 414.0390625 C-298.14357542 399.49942983 -295.35185723 385.45759206 -293.96484375 370.26953125 C-293.87509277 369.30656128 -293.7853418 368.34359131 -293.69287109 367.35144043 C-293.47424799 365.00269959 -293.25765294 362.65379108 -293.04296875 360.3046875 C-293.70281423 360.30745288 -294.3626597 360.31021826 -295.0425005 360.31306744 C-311.13588876 360.37946796 -327.22922904 360.42903628 -343.32272053 360.46012402 C-351.10557809 360.47555937 -358.88834392 360.49658474 -366.67114258 360.53100586 C-373.45866609 360.56101072 -380.24612314 360.58028669 -387.03371114 360.58695298 C-390.62404724 360.59084658 -394.21419327 360.59992653 -397.80446815 360.62187767 C-401.82326125 360.64624699 -405.84172885 360.64665043 -409.8605957 360.64526367 C-411.62466766 360.66144241 -411.62466766 360.66144241 -413.42437744 360.677948 C-425.90503992 360.63153505 -436.93979146 357.81900035 -446.3046875 349.23046875 C-460.32296985 334.38300889 -458.33666528 314.6988613 -458.30175781 295.62695312 C-458.30447124 293.13384397 -458.30803414 290.64073563 -458.31237793 288.14762878 C-458.32052116 282.10442546 -458.31937043 276.06129117 -458.31355265 270.01809061 C-458.30901806 265.10241373 -458.30843098 260.18675076 -458.31060028 255.27107239 C-458.31090675 254.56887004 -458.31121321 253.86666769 -458.31152897 253.14318648 C-458.31216848 251.71624593 -458.31281691 250.28930537 -458.31347415 248.86236483 C-458.31916406 235.51223693 -458.31264063 222.16213659 -458.30187342 208.81201321 C-458.29293912 197.38100934 -458.29449154 185.95004611 -458.30371094 174.51904297 C-458.31443729 161.2135309 -458.31861487 147.90804293 -458.31248641 134.60252714 C-458.31184938 133.18111897 -458.31122063 131.75971079 -458.31060028 130.33830261 C-458.31029173 129.63911859 -458.30998318 128.93993457 -458.30966528 128.21956316 C-458.30794542 123.31529956 -458.31083806 118.41105137 -458.31555939 113.50679016 C-458.3217858 106.8943847 -458.31729179 100.28204369 -458.30577087 93.66964149 C-458.3031372 91.2498061 -458.30386716 88.82996423 -458.3082962 86.41013145 C-458.36873732 50.01936627 -458.36873732 50.01936627 -445.85546875 36.4296875 C-439.06651804 30.00895107 -430.40908833 26.16138225 -421.04408646 26.19674873 C-420.03087114 26.19805798 -419.01765582 26.19936722 -417.973737 26.20071614 C-416.86247032 26.20724135 -415.75120364 26.21376656 -414.60626221 26.2204895 C-412.83325717 26.22472437 -412.83325717 26.22472437 -411.02443385 26.2290448 C-407.74243563 26.23765504 -404.46048731 26.25067589 -401.17851162 26.26532841 C-397.63921086 26.27993101 -394.09989633 26.28856533 -390.56057739 26.29747009 C-386.01084325 26.30917179 -381.46111215 26.32122726 -376.91138506 26.33543897 C-365.62929006 26.37030115 -354.34727055 26.3863867 -343.06512451 26.39108276 C-341.84133594 26.39163751 -341.84133594 26.39163751 -340.59282437 26.39220347 C-333.87383875 26.39517811 -327.15485293 26.39735442 -320.43586689 26.39910427 C-314.3836764 26.40069136 -308.3314867 26.40296104 -302.27929688 26.40625 C-301.41637908 26.4067103 -300.55346129 26.4071706 -299.66439447 26.40764485 C-285.6828088 26.41619722 -271.70154366 26.4606479 -257.72008076 26.51742734 C-243.36414469 26.5748203 -229.00858725 26.59040049 -214.65255237 26.56802356 C-205.79825541 26.5556056 -196.94529506 26.57624159 -188.09120867 26.6393197 C-182.02177094 26.67950525 -175.95317154 26.67933871 -169.88368753 26.64751966 C-166.38212675 26.63037534 -162.88296388 26.63103422 -159.38164902 26.67986488 C-155.58153799 26.72354865 -151.7876163 26.69958173 -147.98760986 26.65872192 C-146.88526607 26.68755435 -145.78292227 26.71638678 -144.64717412 26.74609292 C-139.8189099 26.62926784 -137.13008079 26.39695986 -133.63654089 22.88683677 C-131.60730218 20.10058588 -129.8239379 17.25317214 -128.04296875 14.3046875 C-96.88890322 -23.55933172 -38.84417732 -28.45060583 0 0 Z " fill="#010101" transform="translate(466.04296875,26.6953125)"/>
<path d="M0 0 C0.9887894 -0.0039821 1.9775788 -0.00796419 2.99633151 -0.01206696 C4.07512378 -0.00624128 5.15391604 -0.00041559 6.26539898 0.00558662 C7.99302449 0.00302335 7.99302449 0.00302335 9.75555152 0.00040829 C12.94815757 -0.00231564 16.1406011 0.00393208 19.33318794 0.01396441 C22.7775766 0.0226032 26.22195773 0.01967845 29.66635418 0.01815987 C35.63258248 0.01711129 41.59876703 0.02338507 47.56498432 0.03463554 C56.19112108 0.05089123 64.81723669 0.05609862 73.44338711 0.05861153 C87.43881318 0.06298852 101.43421592 0.07629775 115.42962933 0.09521675 C129.02468022 0.11357543 142.61972479 0.127732 156.21478558 0.13623238 C157.47183379 0.13702055 157.47183379 0.13702055 158.75427691 0.13782464 C162.95844772 0.14043472 167.16261857 0.14296213 171.36678946 0.14544845 C206.24330283 0.16618108 241.11978912 0.20140674 275.99627972 0.24609566 C275.79072964 0.92967644 275.58517956 1.61325722 275.37340069 2.31755257 C275.1035284 3.21589317 274.83365612 4.11423378 274.55560589 5.03979683 C274.28818081 5.92962761 274.02075573 6.81945839 273.74522686 7.73625374 C265.8646966 34.14517372 270.04770183 59.36035585 282.68768597 83.47265816 C294.87027883 103.8454761 315.62268263 119.37100697 338.47284222 125.50390816 C359.47836182 130.65321409 380.095647 129.1672355 399.92206097 120.55078316 C402.99627972 119.24609566 402.99627972 119.24609566 406.99627972 118.24609566 C406.99627972 159.16609566 406.99627972 200.08609566 406.99627972 242.24609566 C264.76627972 242.24609566 122.53627972 242.24609566 -24.00372028 242.24609566 C-24.10684528 205.65734566 -24.20997028 169.06859566 -24.31622028 131.37109566 C-24.3617403 119.81996773 -24.40726032 108.2688398 -24.45415974 96.36767769 C-24.47674274 82.25757027 -24.47674274 82.25757027 -24.48093891 75.65109444 C-24.48559543 71.03891145 -24.50432559 66.42701649 -24.53159809 61.8149128 C-24.56594856 55.92765531 -24.57616603 50.04081535 -24.56908166 44.15346694 C-24.57056257 41.99547607 -24.58044532 39.83747029 -24.59979594 37.67956567 C-24.79002061 15.42871793 -24.79002061 15.42871793 -16.72247028 6.80859566 C-15.62418903 6.03515816 -15.62418903 6.03515816 -14.50372028 5.24609566 C-13.77153278 4.70984566 -13.03934528 4.17359566 -12.28497028 3.62109566 C-8.2078211 1.16363588 -4.76827368 -0.00425169 0 0 Z " fill="#37A7D0" transform="translate(47.0037202835083,66.75390434265137)"/>
<path d="M0 0 C142.23 0 284.46 0 431 0 C431 34.44893112 431 34.44893112 424.8125 41.3125 C424.28269531 41.92738281 423.75289063 42.54226563 423.20703125 43.17578125 C415.12056247 49.85964129 407.08475975 49.56934452 397.09606934 49.50793457 C395.46556463 49.51254634 393.83506408 49.5189011 392.2045722 49.52684355 C387.73435662 49.5435222 383.26448318 49.53529719 378.79426646 49.52289867 C373.969373 49.51384452 369.14453817 49.52781973 364.31965637 49.53881836 C354.87177962 49.55660424 345.42402998 49.55276327 335.97614825 49.5411678 C328.29762073 49.53213403 320.61912884 49.53090923 312.94059753 49.53526306 C311.84772355 49.53587599 310.75484956 49.53648893 309.62885818 49.53712043 C307.40870129 49.53839933 305.18854441 49.53969619 302.96838754 49.5410108 C282.15027215 49.5524168 261.33222722 49.53930256 240.51412338 49.51780933 C222.65147015 49.49993834 204.78892089 49.50304245 186.92626953 49.52148438 C166.18261646 49.54289071 145.43902514 49.55131816 124.69536257 49.53903532 C122.48337588 49.53776112 120.27138918 49.53650364 118.05940247 49.53526306 C116.42689553 49.53433741 116.42689553 49.53433741 114.76140866 49.53339306 C107.09215999 49.52993945 99.42295049 49.53576874 91.75370789 49.54518127 C82.40736797 49.55639998 73.06116243 49.55336385 63.71483791 49.5320583 C58.94623854 49.52154622 54.17786322 49.51742881 49.40926552 49.53065491 C45.04324477 49.54258128 40.67765558 49.53601225 36.31167394 49.5147447 C34.73305065 49.51027968 33.15439084 49.5125427 31.57579106 49.52224785 C22.28206955 49.57499841 15.15025319 49.4210138 7.79296875 43.10546875 C7.26316406 42.47253906 6.73335937 41.83960938 6.1875 41.1875 C5.64480469 40.56230469 5.10210937 39.93710937 4.54296875 39.29296875 C-4.0218869 26.56494275 0 17.67428415 0 0 Z " fill="#E3E7EA" transform="translate(23,323)"/>
<path d="M0 0 C0.9887894 -0.0039821 1.9775788 -0.00796419 2.99633151 -0.01206696 C4.07512378 -0.00624128 5.15391604 -0.00041559 6.26539898 0.00558662 C7.99302449 0.00302335 7.99302449 0.00302335 9.75555152 0.00040829 C12.94815757 -0.00231564 16.1406011 0.00393208 19.33318794 0.01396441 C22.7775766 0.0226032 26.22195773 0.01967845 29.66635418 0.01815987 C35.63258248 0.01711129 41.59876703 0.02338507 47.56498432 0.03463554 C56.19112108 0.05089123 64.81723669 0.05609862 73.44338711 0.05861153 C87.43881318 0.06298852 101.43421592 0.07629775 115.42962933 0.09521675 C129.02468022 0.11357543 142.61972479 0.127732 156.21478558 0.13623238 C157.47183379 0.13702055 157.47183379 0.13702055 158.75427691 0.13782464 C162.95844772 0.14043472 167.16261857 0.14296213 171.36678946 0.14544845 C206.24330283 0.16618108 241.11978912 0.20140674 275.99627972 0.24609566 C275.51937768 1.87176172 275.03968306 3.49660876 274.55877972 5.12109566 C274.29194378 6.02601753 274.02510784 6.93093941 273.75018597 7.86328316 C272.99627972 10.24609566 272.99627972 10.24609566 271.99627972 12.24609566 C271.12368576 12.24642171 271.12368576 12.24642171 270.23346364 12.24675435 C235.7623626 12.26026754 201.29139151 12.29973558 166.82036509 12.37295128 C162.68222634 12.38171813 158.54408717 12.39026792 154.40594769 12.39868355 C153.58211187 12.40036261 152.75827606 12.40204167 151.90947552 12.40377162 C138.56661197 12.43044802 125.22379137 12.43953715 111.88090388 12.44213708 C98.19184455 12.44519556 84.50290951 12.46712995 70.81390631 12.50662023 C62.36567676 12.53039589 53.91769526 12.53941372 45.46943684 12.52960876 C39.67767116 12.52429672 33.88612794 12.53730463 28.0944256 12.56475856 C24.75171396 12.58006146 21.40991568 12.58453419 18.06712627 12.57269287 C14.44285565 12.56112325 10.81999485 12.58011246 7.19583416 12.60685921 C6.13940948 12.59618595 5.0829848 12.58551269 3.99454725 12.574516 C-0.6204619 12.63823262 -3.95642912 12.69330095 -7.64119244 15.66104794 C-11.46485759 19.84485339 -11.15538586 23.02031023 -11.16193867 28.4590168 C-11.16686832 29.31619301 -11.17179798 30.17336922 -11.17687702 31.05652046 C-11.19232393 33.95450824 -11.200633 36.85247403 -11.20904255 39.75049019 C-11.2187528 41.85332053 -11.22889798 43.95614891 -11.23944473 46.05897522 C-11.2665632 51.7067601 -11.28770334 57.35455281 -11.30763721 63.00236702 C-11.32721677 68.29578509 -11.35214498 73.58917258 -11.37664509 78.88257027 C-11.44523224 94.37872246 -11.50519552 109.87491184 -11.56622028 125.37109566 C-11.71059528 159.97984566 -11.85497028 194.58859566 -12.00372028 230.24609566 C122.30627972 230.24609566 256.61627972 230.24609566 394.99627972 230.24609566 C394.99627972 194.93609566 394.99627972 159.62609566 394.99627972 123.24609566 C404.99627972 118.24609566 404.99627972 118.24609566 406.99627972 118.24609566 C406.99627972 159.16609566 406.99627972 200.08609566 406.99627972 242.24609566 C264.76627972 242.24609566 122.53627972 242.24609566 -24.00372028 242.24609566 C-24.10684528 205.65734566 -24.20997028 169.06859566 -24.31622028 131.37109566 C-24.3617403 119.81996773 -24.40726032 108.2688398 -24.45415974 96.36767769 C-24.47674274 82.25757027 -24.47674274 82.25757027 -24.48093891 75.65109444 C-24.48559543 71.03891145 -24.50432559 66.42701649 -24.53159809 61.8149128 C-24.56594856 55.92765531 -24.57616603 50.04081535 -24.56908166 44.15346694 C-24.57056257 41.99547607 -24.58044532 39.83747029 -24.59979594 37.67956567 C-24.79002061 15.42871793 -24.79002061 15.42871793 -16.72247028 6.80859566 C-15.62418903 6.03515816 -15.62418903 6.03515816 -14.50372028 5.24609566 C-13.77153278 4.70984566 -13.03934528 4.17359566 -12.28497028 3.62109566 C-8.2078211 1.16363588 -4.76827368 -0.00425169 0 0 Z " fill="#C3CCD4" transform="translate(47.0037202835083,66.75390434265137)"/>
<path d="M0 0 C0.78117187 -0.01095703 1.56234375 -0.02191406 2.3671875 -0.03320312 C7.67964913 0.03387341 10.81082587 1.04384917 15 4.5625 C17.45823172 8.24984758 18.01242616 11.25949971 19 15.5625 C21.71357535 16.43384188 21.71357535 16.43384188 25 16.5625 C25.94875 15.923125 26.8975 15.28375 27.875 14.625 C30.95896671 12.58958197 33.05401318 11.66861867 36.78515625 11.84765625 C41.84630812 13.48114971 45.40651058 17.81491584 49 21.5625 C49.57621094 22.119375 50.15242188 22.67625 50.74609375 23.25 C53.20727569 25.81576474 53.99552602 27.53466189 54.5625 31.0625 C54 34.5625 54 34.5625 51.9375 37.5625 C49.61056956 40.51217803 49.61056956 40.51217803 50.25 44.4375 C50.4975 45.46875 50.745 46.5 51 47.5625 C51.66386719 47.70945313 52.32773437 47.85640625 53.01171875 48.0078125 C54.33623047 48.34425781 54.33623047 48.34425781 55.6875 48.6875 C56.55761719 48.89632812 57.42773438 49.10515625 58.32421875 49.3203125 C61.90420986 50.98226458 64.17630666 53.10315146 66 56.5625 C66.66545182 59.59388404 66.65689529 62.47041636 66.5625 65.5625 C66.57345703 66.34367187 66.58441406 67.12484375 66.59570312 67.9296875 C66.52856234 73.24723765 65.48557989 76.34311382 62 80.5625 C58.73285644 82.81570246 54.80322105 83.53855587 51 84.5625 C50.12865812 87.27607535 50.12865812 87.27607535 50 90.5625 C50.66 91.490625 51.32 92.41875 52 93.375 C54.36707545 97.1475265 54.51317183 98.96352991 53.8046875 103.2578125 C51.49120205 109.88381452 44.20611685 116.45944158 38 119.5625 C33.98663724 120.01856395 32.42512223 119.86099008 29.0625 117.5 C26.05581919 115.17760664 26.05581919 115.17760664 22.125 115.8125 C21.09375 116.06 20.0625 116.3075 19 116.5625 C18.84144531 117.23796875 18.68289063 117.9134375 18.51953125 118.609375 C17.08505945 124.09365393 16.13033575 127.53691738 11 130.5625 C7.77434056 132.17532972 4.29059192 131.83037069 0.75 131.875 C-0.00152344 131.90400391 -0.75304687 131.93300781 -1.52734375 131.96289062 C-6.83412834 132.02308975 -9.77786663 131.05488193 -14 127.5625 C-16.25320246 124.29535644 -16.97605587 120.36572105 -18 116.5625 C-21.21979366 115.69595127 -21.21979366 115.69595127 -25 115.5625 C-27.03131672 116.84761874 -29.03277992 118.18126037 -31 119.5625 C-34.22318913 120.26319329 -36.02250012 120.11021977 -38.91015625 118.4921875 C-44.34982716 114.656119 -49.98747587 109.58754826 -53 103.5625 C-53.45689224 99.63322675 -53.04029291 97.30195813 -51 94 C-49.08022991 90.70039515 -48.25999464 89.26252678 -49 85.5625 C-51.89716613 83.38221563 -51.89716613 83.38221563 -55.375 82.75 C-59.47629833 81.40647124 -61.2340247 79.81658858 -64 76.5625 C-65.61282972 73.33684056 -65.26787069 69.85309192 -65.3125 66.3125 C-65.34150391 65.56097656 -65.37050781 64.80945313 -65.40039062 64.03515625 C-65.46054379 58.73242329 -64.52605916 55.75565143 -61 51.5625 C-57.31265242 49.10426828 -54.30300029 48.55007384 -50 47.5625 C-49.13345127 44.34270634 -49.13345127 44.34270634 -49 40.5625 C-50.28511874 38.53118328 -51.61876037 36.52972008 -53 34.5625 C-53.6277457 30.7960258 -53.26739304 29.07500333 -51.5 25.6875 C-47.40015666 20.17240825 -42.72829088 14.59150022 -36 12.5625 C-32.1770336 12.41299852 -28.93791521 12.84527072 -25.875 15.1875 C-23.94692599 16.92139006 -23.94692599 16.92139006 -20.75 16.25 C-19.8425 16.023125 -18.935 15.79625 -18 15.5625 C-17.85304688 14.89863281 -17.70609375 14.23476563 -17.5546875 13.55078125 C-17.33039063 12.66777344 -17.10609375 11.78476562 -16.875 10.875 C-16.66617188 10.00488281 -16.45734375 9.13476562 -16.2421875 8.23828125 C-12.76598891 0.75024341 -7.54427547 -0.23031204 0 0 Z " fill="#030202" transform="translate(409,36.4375)"/>
<path d="M0 0 C0.97122803 0.00491455 1.94245605 0.0098291 2.94311523 0.01489258 C10.07150986 0.13126235 16.44281808 0.89606 23.1875 3.3125 C24.23808594 3.66441406 25.28867187 4.01632813 26.37109375 4.37890625 C48.00165321 12.09864655 63.38527538 26.13095768 73.5 46.6875 C80.96960839 64.14432851 83.73970111 84.04496331 77.1875 102.3125 C76.82398438 103.38628906 76.46046875 104.46007812 76.0859375 105.56640625 C68.75749842 125.96783504 54.80217401 142.16780249 35.27368164 151.68066406 C16.50521596 160.33577358 -5.1293906 162.41540707 -24.84130859 155.61230469 C-34.13716139 152.13701526 -42.09850664 147.61096259 -49.8125 141.3125 C-50.45445312 140.82136719 -51.09640625 140.33023438 -51.7578125 139.82421875 C-66.73491987 127.90297858 -76.18371578 108.53027376 -78.52734375 89.78125 C-80.44519221 66.45180577 -74.92514128 46.58554482 -60.2109375 28.0546875 C-44.93332012 10.58744418 -23.34754236 -0.14004872 0 0 Z M-14.8125 19.3125 C-16.13023976 21.92009634 -16.13023976 21.92009634 -16.6875 24.625 C-16.91179687 25.50800781 -17.13609375 26.39101563 -17.3671875 27.30078125 C-17.51414062 27.96464844 -17.66109375 28.62851562 -17.8125 29.3125 C-20.375 30.0625 -20.375 30.0625 -23.8125 30.3125 C-25.53878896 29.28951395 -27.26427348 28.26441112 -28.96484375 27.19921875 C-31.58247891 25.94297524 -33.94318742 25.97176815 -36.765625 26.5078125 C-43.22358623 29.04662932 -49.73816331 36.16382661 -52.8125 42.3125 C-53.26856395 46.32586276 -53.11099008 47.88737777 -50.75 51.25 C-48.8125 54.3125 -48.8125 54.3125 -49.0625 58.1875 C-49.31 59.21875 -49.5575 60.25 -49.8125 61.3125 C-50.48796875 61.47105469 -51.1634375 61.62960938 -51.859375 61.79296875 C-57.34365393 63.22744055 -60.78691738 64.18216425 -63.8125 69.3125 C-65.42532972 72.53815944 -65.08037069 76.02190808 -65.125 79.5625 C-65.15400391 80.31402344 -65.18300781 81.06554687 -65.21289062 81.83984375 C-65.27304379 87.14257671 -64.33855916 90.11934857 -60.8125 94.3125 C-58.10995341 96.11419773 -56.73389827 96.70614134 -53.6875 97.375 C-49.8125 98.3125 -49.8125 98.3125 -48.8125 99.3125 C-49.09664344 103.00636466 -49.43083756 105.6865736 -51.375 108.875 C-53.27687039 112.09991067 -53.46580341 113.61044733 -52.8125 117.3125 C-49.29045208 123.63412447 -43.3317093 130.05289535 -36.8125 133.3125 C-32.79913724 133.76856395 -31.23762223 133.61099008 -27.875 131.25 C-24.8125 129.3125 -24.8125 129.3125 -20.9375 129.5625 C-19.390625 129.93375 -19.390625 129.93375 -17.8125 130.3125 C-17.65394531 130.90417969 -17.49539063 131.49585938 -17.33203125 132.10546875 C-15.76643053 137.40775186 -14.21229278 140.70241362 -9.8125 144.3125 C-6.58684056 145.92532972 -3.10309192 145.58037069 0.4375 145.625 C1.18902344 145.65400391 1.94054687 145.68300781 2.71484375 145.71289062 C7.98533526 145.77267805 11.0950233 144.9363725 15.1875 141.3125 C16.40470888 139.11463978 16.40470888 139.11463978 16.875 136.75 C17.70629578 133.39654151 18.4481965 131.5039428 21.1875 129.3125 C24.8239847 128.62451641 26.02963365 129.20501653 29.125 131.3125 C32.64176572 133.60916333 34.07856813 133.99732198 38.1875 133.3125 C45.05059028 129.73175725 51.76477306 123.77257999 54.1875 116.3125 C54.71041266 112.21635081 54.49960272 110.7664676 52.125 107.3125 C50.1875 104.3125 50.1875 104.3125 50.4375 100.9375 C50.685 100.07125 50.9325 99.205 51.1875 98.3125 C52.7653125 97.9103125 52.7653125 97.9103125 54.375 97.5 C58.78490057 96.12642441 61.9065058 94.94172564 64.796875 91.265625 C66.6935167 87.23792522 66.70186401 83.77397703 66.6875 79.375 C66.71585938 78.58931641 66.74421875 77.80363281 66.7734375 76.99414062 C66.78699002 72.94532675 66.49727003 70.13204469 63.98828125 66.86328125 C61.17976068 64.30545149 59.51721973 63.31163273 55.875 62.4375 C54.55048828 62.10105469 54.55048828 62.10105469 53.19921875 61.7578125 C52.53535156 61.61085937 51.87148438 61.46390625 51.1875 61.3125 C50.4375 58.1875 50.4375 58.1875 50.1875 54.3125 C51.49156884 52.29329663 52.82573419 50.29325027 54.1875 48.3125 C55.27333177 44.98776792 55.27333177 44.98776792 54.1875 41.3125 C51.51529687 37.63028489 48.43932373 34.48396565 45.1875 31.3125 C44.36958984 30.44625 44.36958984 30.44625 43.53515625 29.5625 C40.92745082 27.01980661 38.74971786 25.97221775 35.1875 25.75 C31.00562961 25.98850972 28.62099609 27.9986222 25.1875 30.3125 C21.8125 30.0625 21.8125 30.0625 19.1875 29.3125 C19.02894531 28.63703125 18.87039063 27.9615625 18.70703125 27.265625 C17.27255945 21.78134607 16.31783575 18.33808262 11.1875 15.3125 C7.83381427 13.63565713 4.12160362 14.00162206 0.4375 13.9375 C-0.36171875 13.90011719 -1.1609375 13.86273438 -1.984375 13.82421875 C-8.01490475 13.73495104 -10.73474685 14.80187767 -14.8125 19.3125 Z " fill="#616A75" transform="translate(408.8125,22.6875)"/>
<path d="M0 0 C33.33 0 66.66 0 101 0 C102.32 10.56 103.64 21.12 105 32 C106.81189794 41.34259877 108.68365692 50.13021836 112.265625 58.93359375 C113 61 113 61 113 64 C72.08 64 31.16 64 -11 64 C-9.02 57.07 -9.02 57.07 -7 50 C-6.063563 46.00184312 -5.1575852 42.0161927 -4.3125 38 C-4.10044922 37.01644531 -3.88839844 36.03289062 -3.66992188 35.01953125 C-1.12614083 23.12715427 -0.59996965 12.59936268 0 0 Z " fill="#C8CED5" transform="translate(187,386)"/>
<path d="M0 0 C1.05925438 -0.01292336 1.05925438 -0.01292336 2.13990784 -0.02610779 C4.46929798 -0.04877218 6.79748561 -0.04202935 9.12695312 -0.03295898 C10.74833534 -0.03819415 12.36971451 -0.04447024 13.99108887 -0.05174255 C17.38727156 -0.06214735 20.78303527 -0.05758407 24.17919922 -0.04296875 C28.53091239 -0.02577393 32.88130608 -0.04928292 37.23287201 -0.08445835 C40.58039088 -0.1064203 43.92759335 -0.10499404 47.27516174 -0.09669304 C48.87953642 -0.09587297 50.48393419 -0.10274709 52.08824158 -0.11746407 C54.33178812 -0.13489105 56.57295539 -0.12038814 58.81640625 -0.09765625 C60.09229614 -0.09669449 61.36818604 -0.09573273 62.68273926 -0.09474182 C65.90820312 0.53344727 65.90820312 0.53344727 68.3190918 2.64076233 C70.25380499 6.16255191 70.41529811 8.43737509 70.42578125 12.44750977 C70.43279053 13.12295837 70.4397998 13.79840698 70.44702148 14.49432373 C70.46455619 16.71612256 70.45299641 18.9366366 70.43945312 21.15844727 C70.44214938 22.70874271 70.44603291 24.2590365 70.4510498 25.80932617 C70.45693866 29.0541193 70.44840217 32.29847116 70.4296875 35.54321289 C70.40689769 39.69624965 70.42002414 43.84825238 70.44397736 48.00125122 C70.45845227 51.2012507 70.45382172 54.40100623 70.44346619 57.60101318 C70.44080355 59.13197961 70.44405239 60.66296839 70.4533844 62.19390869 C70.46357871 64.3363282 70.44801233 66.47708842 70.42578125 68.61938477 C70.42259888 69.83674316 70.4194165 71.05410156 70.4161377 72.30834961 C69.79275635 76.26646909 68.92528046 77.89627343 65.90820312 80.53344727 C62.68273926 81.16163635 62.68273926 81.16163635 58.81640625 81.16455078 C58.11023666 81.17170609 57.40406708 81.17886139 56.67649841 81.18623352 C54.34682121 81.20311535 52.01906999 81.18372406 49.68945312 81.16235352 C48.06807293 81.16318228 46.44669281 81.16564193 44.82531738 81.16966248 C41.429023 81.17252009 38.03338824 81.15782377 34.63720703 81.13037109 C30.28560845 81.09628759 25.93518928 81.10230642 21.58353424 81.12103367 C18.23600449 81.1316066 14.88874878 81.12266334 11.54124451 81.10764885 C9.93689284 81.10246867 8.33251254 81.10294687 6.72816467 81.1091938 C4.48481804 81.11464988 2.24315474 81.09426198 0 81.06689453 C-1.27588989 81.06069595 -2.55177979 81.05449738 -3.86633301 81.04811096 C-7.09179688 80.53344727 -7.09179688 80.53344727 -9.50268555 78.93760681 C-11.65914559 75.67510789 -11.5995104 73.43333412 -11.609375 69.53344727 C-11.61638428 68.83703125 -11.62339355 68.14061523 -11.63061523 67.4230957 C-11.64818883 65.12613795 -11.63657607 62.83041706 -11.62304688 60.53344727 C-11.62574201 58.93448653 -11.6296246 57.33552739 -11.63464355 55.73657227 C-11.64053769 52.38745501 -11.6319788 49.03876483 -11.61328125 45.68969727 C-11.59049123 41.39866136 -11.60361483 37.10862615 -11.62757111 32.81762695 C-11.64203167 29.51644361 -11.63742203 26.21549716 -11.62705994 22.91430664 C-11.62439334 21.33227418 -11.6276601 19.75022015 -11.63697815 18.16821289 C-11.64714866 15.95604564 -11.63163878 13.74549427 -11.609375 11.53344727 C-11.60619263 10.27532227 -11.60301025 9.01719727 -11.59973145 7.72094727 C-11.09179688 4.53344727 -11.09179688 4.53344727 -9.50268555 2.12928772 C-6.2158636 -0.04635958 -3.93049417 0.01909528 0 0 Z " fill="#030405" transform="translate(338.091796875,203.466552734375)"/>
<path d="M0 0 C0.70616959 -0.00700928 1.41233917 -0.01401855 2.13990784 -0.02124023 C4.46932542 -0.03881562 6.79752364 -0.02720034 9.12695312 -0.01367188 C10.74833407 -0.01636695 12.36971345 -0.0202495 13.99108887 -0.02526855 C17.38728236 -0.03116294 20.78305472 -0.02260297 24.17919922 -0.00390625 C28.53076448 0.01888374 32.88134295 0.00576027 37.23287201 -0.01819611 C40.58037745 -0.03265598 43.92764924 -0.02804733 47.27516174 -0.01768494 C48.87952288 -0.01501815 50.48390528 -0.01828576 52.08824158 -0.02760315 C54.33153397 -0.03777246 56.57323248 -0.02226523 58.81640625 0 C60.09229614 0.00318237 61.36818604 0.00636475 62.68273926 0.00964355 C65.90820312 0.51757812 65.90820312 0.51757812 68.3190918 2.11915588 C70.46082492 5.35164203 70.41583545 7.54286771 70.42578125 11.40991211 C70.43279053 12.09496826 70.4397998 12.78002441 70.44702148 13.48583984 C70.46459545 15.74553223 70.452981 18.00396722 70.43945312 20.26367188 C70.44214856 21.83781677 70.44603141 23.41196004 70.4510498 24.98609924 C70.45694425 28.28394434 70.44838526 31.58135576 70.4296875 34.87915039 C70.40691616 39.10059167 70.42000897 43.32101469 70.44397736 47.54241848 C70.45845313 50.79303108 70.45382099 54.04340355 70.44346619 57.29402351 C70.44080282 58.8501097 70.44405498 60.40621787 70.4533844 61.96227837 C70.46357794 64.1407199 70.44801227 66.31752923 70.42578125 68.49584961 C70.42259888 69.73398911 70.4194165 70.9721286 70.4161377 72.24778748 C69.7969354 76.23385572 68.94968345 77.86756326 65.90820312 80.51757812 C62.68273926 81.14576721 62.68273926 81.14576721 58.81640625 81.14868164 C58.11023666 81.15583694 57.40406708 81.16299225 56.67649841 81.17036438 C54.34682121 81.18724621 52.01906999 81.16785492 49.68945312 81.14648438 C48.06807293 81.14731314 46.44669281 81.14977279 44.82531738 81.15379333 C41.429023 81.15665095 38.03338824 81.14195463 34.63720703 81.11450195 C30.28560845 81.08041845 25.93518928 81.08643728 21.58353424 81.10516453 C18.23600449 81.11573746 14.88874878 81.1067942 11.54124451 81.09177971 C9.93689284 81.08659953 8.33251254 81.08707773 6.72816467 81.09332466 C4.48481804 81.09878074 2.24315474 81.07839283 0 81.05102539 C-1.27588989 81.04482681 -2.55177979 81.03862823 -3.86633301 81.03224182 C-7.09179688 80.51757812 -7.09179688 80.51757812 -9.50268555 78.92173767 C-11.65914559 75.65923875 -11.5995104 73.41746498 -11.609375 69.51757812 C-11.61638428 68.82116211 -11.62339355 68.12474609 -11.63061523 67.40722656 C-11.64818883 65.11026881 -11.63657607 62.81454792 -11.62304688 60.51757812 C-11.62574201 58.91861739 -11.6296246 57.31965825 -11.63464355 55.72070312 C-11.64053769 52.37158587 -11.6319788 49.02289569 -11.61328125 45.67382812 C-11.59049123 41.38279222 -11.60361483 37.09275701 -11.62757111 32.80175781 C-11.64203167 29.50057446 -11.63742203 26.19962802 -11.62705994 22.8984375 C-11.62439334 21.31640504 -11.6276601 19.73435101 -11.63697815 18.15234375 C-11.64714866 15.9401765 -11.63163878 13.72962513 -11.609375 11.51757812 C-11.60619263 10.25945312 -11.60301025 9.00132812 -11.59973145 7.70507812 C-11.09179688 4.51757812 -11.09179688 4.51757812 -9.50268555 2.11242676 C-6.21360227 -0.06336428 -3.93224915 0.00980797 0 0 Z " fill="#010303" transform="translate(209.091796875,203.482421875)"/>
<path d="M0 0 C0.70616959 -0.00700928 1.41233917 -0.01401855 2.13990784 -0.02124023 C4.46932542 -0.03881562 6.79752364 -0.02720034 9.12695312 -0.01367188 C10.74833407 -0.01636695 12.36971345 -0.0202495 13.99108887 -0.02526855 C17.38728236 -0.03116294 20.78305472 -0.02260297 24.17919922 -0.00390625 C28.53076448 0.01888374 32.88134295 0.00576027 37.23287201 -0.01819611 C40.58037745 -0.03265598 43.92764924 -0.02804733 47.27516174 -0.01768494 C48.87952288 -0.01501815 50.48390528 -0.01828576 52.08824158 -0.02760315 C54.33153397 -0.03777246 56.57323248 -0.02226523 58.81640625 0 C60.09229614 0.00318237 61.36818604 0.00636475 62.68273926 0.00964355 C65.90820312 0.51757812 65.90820312 0.51757812 68.3190918 2.11915588 C70.46082492 5.35164203 70.41583545 7.54286771 70.42578125 11.40991211 C70.43279053 12.09496826 70.4397998 12.78002441 70.44702148 13.48583984 C70.46459545 15.74553223 70.452981 18.00396722 70.43945312 20.26367188 C70.44214856 21.83781677 70.44603141 23.41196004 70.4510498 24.98609924 C70.45694425 28.28394434 70.44838526 31.58135576 70.4296875 34.87915039 C70.40691616 39.10059167 70.42000897 43.32101469 70.44397736 47.54241848 C70.45845313 50.79303108 70.45382099 54.04340355 70.44346619 57.29402351 C70.44080282 58.8501097 70.44405498 60.40621787 70.4533844 61.96227837 C70.46357794 64.1407199 70.44801227 66.31752923 70.42578125 68.49584961 C70.42259888 69.73398911 70.4194165 70.9721286 70.4161377 72.24778748 C69.79692156 76.23394483 68.94906078 77.86685481 65.90820312 80.51757812 C62.68273926 81.15249634 62.68273926 81.15249634 58.81640625 81.16455078 C58.11023666 81.17331238 57.40406708 81.18207397 56.67649841 81.19110107 C54.34685457 81.21307243 52.01911556 81.1985529 49.68945312 81.18164062 C48.06807084 81.18500947 46.44669103 81.18986267 44.82531738 81.19613647 C41.42903575 81.20350464 38.03341211 81.19280491 34.63720703 81.16943359 C30.28545002 81.14094485 25.93523469 81.15734927 21.58353424 81.18729591 C18.23598633 81.20537098 14.88880346 81.19961013 11.54124451 81.18665695 C9.9368827 81.18332347 8.33248767 81.18740808 6.72816467 81.19905472 C4.4845514 81.21176818 2.24342792 81.19238547 0 81.16455078 C-1.27588989 81.16057281 -2.55177979 81.15659485 -3.86633301 81.15249634 C-7.09179688 80.51757812 -7.09179688 80.51757812 -9.50268555 78.41600037 C-11.45115206 74.86214069 -11.59897634 72.54157099 -11.609375 68.49584961 C-11.61638428 67.80904114 -11.62339355 67.12223267 -11.63061523 66.41461182 C-11.64815022 64.15554793 -11.63659125 61.89774738 -11.62304688 59.63867188 C-11.62574281 58.06356059 -11.62962608 56.48845093 -11.63464355 54.91334534 C-11.64053219 51.61728013 -11.63199544 48.32164937 -11.61328125 45.02563477 C-11.59047273 40.80300357 -11.60362994 36.5813883 -11.62757111 32.35879421 C-11.64203059 29.10822402 -11.63742286 25.85789444 -11.62705994 22.60731697 C-11.62439401 21.05040427 -11.62765774 19.49346965 -11.63697815 17.93658257 C-11.64714904 15.76043753 -11.63163938 13.58593491 -11.609375 11.40991211 C-11.60619263 10.17256821 -11.60301025 8.9352243 -11.59973145 7.66038513 C-11.09179688 4.51757812 -11.09179688 4.51757812 -9.50268555 2.11915588 C-6.21390972 -0.0656112 -3.93667513 0.009819 0 0 Z " fill="#020202" transform="translate(80.091796875,203.482421875)"/>
<path d="M0 0 C0.70616959 -0.00700928 1.41233917 -0.01401855 2.13990784 -0.02124023 C4.46932542 -0.03881562 6.79752364 -0.02720034 9.12695312 -0.01367188 C10.74833407 -0.01636695 12.36971345 -0.0202495 13.99108887 -0.02526855 C17.38728236 -0.03116294 20.78305472 -0.02260297 24.17919922 -0.00390625 C28.53076448 0.01888374 32.88134295 0.00576027 37.23287201 -0.01819611 C40.58037745 -0.03265598 43.92764924 -0.02804733 47.27516174 -0.01768494 C48.87952288 -0.01501815 50.48390528 -0.01828576 52.08824158 -0.02760315 C54.33153397 -0.03777246 56.57323248 -0.02226523 58.81640625 0 C60.09229614 0.00318237 61.36818604 0.00636475 62.68273926 0.00964355 C65.90820312 0.51757812 65.90820312 0.51757812 68.3190918 2.11915588 C70.46082492 5.35164203 70.41583545 7.54286771 70.42578125 11.40991211 C70.43279053 12.09496826 70.4397998 12.78002441 70.44702148 13.48583984 C70.46459545 15.74553223 70.452981 18.00396722 70.43945312 20.26367188 C70.44214856 21.83781677 70.44603141 23.41196004 70.4510498 24.98609924 C70.45694425 28.28394434 70.44838526 31.58135576 70.4296875 34.87915039 C70.40691616 39.10059167 70.42000897 43.32101469 70.44397736 47.54241848 C70.45845313 50.79303108 70.45382099 54.04340355 70.44346619 57.29402351 C70.44080282 58.8501097 70.44405498 60.40621787 70.4533844 61.96227837 C70.46357794 64.1407199 70.44801227 66.31752923 70.42578125 68.49584961 C70.42259888 69.73398911 70.4194165 70.9721286 70.4161377 72.24778748 C69.79692156 76.23394483 68.94906078 77.86685481 65.90820312 80.51757812 C62.68273926 81.15249634 62.68273926 81.15249634 58.81640625 81.16455078 C58.11023666 81.17331238 57.40406708 81.18207397 56.67649841 81.19110107 C54.34685457 81.21307243 52.01911556 81.1985529 49.68945312 81.18164062 C48.06807084 81.18500947 46.44669103 81.18986267 44.82531738 81.19613647 C41.42903575 81.20350464 38.03341211 81.19280491 34.63720703 81.16943359 C30.28545002 81.14094485 25.93523469 81.15734927 21.58353424 81.18729591 C18.23598633 81.20537098 14.88880346 81.19961013 11.54124451 81.18665695 C9.9368827 81.18332347 8.33248767 81.18740808 6.72816467 81.19905472 C4.4845514 81.21176818 2.24342792 81.19238547 0 81.16455078 C-1.27588989 81.16057281 -2.55177979 81.15659485 -3.86633301 81.15249634 C-7.09179688 80.51757812 -7.09179688 80.51757812 -9.50268555 78.41600037 C-11.45115206 74.86214069 -11.59897634 72.54157099 -11.609375 68.49584961 C-11.61638428 67.80904114 -11.62339355 67.12223267 -11.63061523 66.41461182 C-11.64815022 64.15554793 -11.63659125 61.89774738 -11.62304688 59.63867188 C-11.62574281 58.06356059 -11.62962608 56.48845093 -11.63464355 54.91334534 C-11.64053219 51.61728013 -11.63199544 48.32164937 -11.61328125 45.02563477 C-11.59047273 40.80300357 -11.60362994 36.5813883 -11.62757111 32.35879421 C-11.64203059 29.10822402 -11.63742286 25.85789444 -11.62705994 22.60731697 C-11.62439401 21.05040427 -11.62765774 19.49346965 -11.63697815 17.93658257 C-11.64714904 15.76043753 -11.63163938 13.58593491 -11.609375 11.40991211 C-11.60619263 10.17256821 -11.60301025 8.9352243 -11.59973145 7.66038513 C-11.09179688 4.51757812 -11.09179688 4.51757812 -9.50268555 2.11915588 C-6.21390972 -0.0656112 -3.93667513 0.009819 0 0 Z " fill="#020302" transform="translate(80.091796875,91.482421875)"/>
<path d="M0 0 C0.70616959 -0.00700928 1.41233917 -0.01401855 2.13990784 -0.02124023 C4.46932542 -0.03881562 6.79752364 -0.02720034 9.12695312 -0.01367188 C10.74833407 -0.01636695 12.36971345 -0.0202495 13.99108887 -0.02526855 C17.38728236 -0.03116294 20.78305472 -0.02260297 24.17919922 -0.00390625 C28.53076448 0.01888374 32.88134295 0.00576027 37.23287201 -0.01819611 C40.58037745 -0.03265598 43.92764924 -0.02804733 47.27516174 -0.01768494 C48.87952288 -0.01501815 50.48390528 -0.01828576 52.08824158 -0.02760315 C54.33153397 -0.03777246 56.57323248 -0.02226523 58.81640625 0 C60.09229614 0.00318237 61.36818604 0.00636475 62.68273926 0.00964355 C65.90820312 0.51757812 65.90820312 0.51757812 68.3190918 2.11915588 C70.46082492 5.35164203 70.41583545 7.54286771 70.42578125 11.40991211 C70.43279053 12.09496826 70.4397998 12.78002441 70.44702148 13.48583984 C70.46459545 15.74553223 70.452981 18.00396722 70.43945312 20.26367188 C70.44214856 21.83781677 70.44603141 23.41196004 70.4510498 24.98609924 C70.45694425 28.28394434 70.44838526 31.58135576 70.4296875 34.87915039 C70.40691616 39.10059167 70.42000897 43.32101469 70.44397736 47.54241848 C70.45845313 50.79303108 70.45382099 54.04340355 70.44346619 57.29402351 C70.44080282 58.8501097 70.44405498 60.40621787 70.4533844 61.96227837 C70.46357794 64.1407199 70.44801227 66.31752923 70.42578125 68.49584961 C70.42259888 69.73398911 70.4194165 70.9721286 70.4161377 72.24778748 C69.79692156 76.23394483 68.94906078 77.86685481 65.90820312 80.51757812 C62.68273926 81.15249634 62.68273926 81.15249634 58.81640625 81.16455078 C58.11023666 81.17331238 57.40406708 81.18207397 56.67649841 81.19110107 C54.34685457 81.21307243 52.01911556 81.1985529 49.68945312 81.18164062 C48.06807084 81.18500947 46.44669103 81.18986267 44.82531738 81.19613647 C41.42903575 81.20350464 38.03341211 81.19280491 34.63720703 81.16943359 C30.28545002 81.14094485 25.93523469 81.15734927 21.58353424 81.18729591 C18.23598633 81.20537098 14.88880346 81.19961013 11.54124451 81.18665695 C9.9368827 81.18332347 8.33248767 81.18740808 6.72816467 81.19905472 C4.4845514 81.21176818 2.24342792 81.19238547 0 81.16455078 C-1.27588989 81.16057281 -2.55177979 81.15659485 -3.86633301 81.15249634 C-7.09179688 80.51757812 -7.09179688 80.51757812 -9.50268555 78.41600037 C-11.45115206 74.86214069 -11.59897634 72.54157099 -11.609375 68.49584961 C-11.61638428 67.80904114 -11.62339355 67.12223267 -11.63061523 66.41461182 C-11.64815022 64.15554793 -11.63659125 61.89774738 -11.62304688 59.63867188 C-11.62574281 58.06356059 -11.62962608 56.48845093 -11.63464355 54.91334534 C-11.64053219 51.61728013 -11.63199544 48.32164937 -11.61328125 45.02563477 C-11.59047273 40.80300357 -11.60362994 36.5813883 -11.62757111 32.35879421 C-11.64203059 29.10822402 -11.63742286 25.85789444 -11.62705994 22.60731697 C-11.62439401 21.05040427 -11.62765774 19.49346965 -11.63697815 17.93658257 C-11.64714904 15.76043753 -11.63163938 13.58593491 -11.609375 11.40991211 C-11.60619263 10.17256821 -11.60301025 8.9352243 -11.59973145 7.66038513 C-11.09179688 4.51757812 -11.09179688 4.51757812 -9.50268555 2.11915588 C-6.21390972 -0.0656112 -3.93667513 0.009819 0 0 Z " fill="#020303" transform="translate(209.091796875,91.482421875)"/>
<path d="M0 0 C2.31 0 4.62 0 7 0 C7.350625 1.19625 7.70125 2.3925 8.0625 3.625 C10.12302198 9.15897333 13.95190746 12.18477416 18.921875 15.14453125 C23.35146102 16.96798865 28.66928901 16.71365133 33.20703125 15.32421875 C34.8383696 14.62317518 36.42578705 13.8213285 38 13 C39.32 14.65 40.64 16.3 42 18 C41.505 18.825 41.01 19.65 40.5 20.5 C38.17735377 25.91950786 38.36442585 30.59834872 40.0625 36.125 C41.93453059 40.61080915 44.94974284 43.40236672 49 46 C52.24618446 47.39205064 52.24618446 47.39205064 55 48 C55 50.31 55 52.62 55 55 C53.948125 55.2475 52.89625 55.495 51.8125 55.75 C46.57662118 57.29120627 43.4127459 59.89869941 40.6875 64.625 C38.23949055 69.9688255 37.92996624 75.56977749 39.68359375 81.19140625 C40.37563261 82.83044566 41.17702657 84.42263425 42 86 C40.8125 87.5625 40.8125 87.5625 39 89 C36.12631508 88.71263151 33.74209856 87.91403285 31 87 C24.30950263 86.27509709 18.39518089 86.68385529 13 91 C9.9694024 94.67893439 7.99007266 98.33102577 7 103 C4.69 103 2.38 103 0 103 C-0.2475 101.948125 -0.495 100.89625 -0.75 99.8125 C-2.29120627 94.57662118 -4.89869941 91.4127459 -9.625 88.6875 C-14.35507411 86.50370878 -18.87672776 86.37175764 -24 87 C-25.68375165 87.62225605 -27.35767228 88.27544365 -29 89 C-31.1875 88.8125 -31.1875 88.8125 -33 88 C-33.66 87.01 -34.32 86.02 -35 85 C-34.2575 83.824375 -34.2575 83.824375 -33.5 82.625 C-31.29536916 77.29714215 -30.96046464 72.26391746 -32.7265625 66.71875 C-35.98852049 59.61139437 -40.95010832 56.76466341 -48 54 C-48 52.02 -48 50.04 -48 48 C-46.1746875 47.4121875 -46.1746875 47.4121875 -44.3125 46.8125 C-39.12382256 44.85070323 -36.32389285 41.91736206 -33.1875 37.375 C-31.03591003 31.25995483 -31.05812077 25.3154531 -33.5 19.3125 C-33.995 18.549375 -34.49 17.78625 -35 17 C-33.35 15.68 -31.7 14.36 -30 13 C-29.21625 13.495 -28.4325 13.99 -27.625 14.5 C-21.94077442 16.85209335 -17.1018767 17.1332071 -11.2734375 15.00390625 C-5.14014743 11.81061511 -2.62939139 8.5262723 -0.5234375 1.9765625 C-0.35070312 1.32429688 -0.17796875 0.67203125 0 0 Z " fill="#030301" transform="translate(406,51)"/>
<path d="M0 0 C0.87800249 -0.00538554 1.75600497 -0.01077108 2.6606136 -0.01631981 C5.60242199 -0.03062641 8.54378213 -0.02348897 11.48561096 -0.01637268 C13.59481671 -0.02207482 15.70401938 -0.02903848 17.81321716 -0.03717041 C23.54252446 -0.05513397 29.27167887 -0.05392741 35.00100589 -0.04822803 C39.78247403 -0.04514084 44.56391261 -0.05122338 49.34537655 -0.05726677 C60.62440541 -0.07132086 71.90335855 -0.0697433 83.18238831 -0.05836487 C94.82211107 -0.04688212 106.46160348 -0.06096008 118.10129589 -0.08776134 C128.09208248 -0.10990538 138.08279668 -0.11655865 148.07360607 -0.11068493 C154.04185791 -0.10731114 160.00996206 -0.10975854 165.97819328 -0.12693596 C171.59004104 -0.14238229 177.20154705 -0.13847501 182.8133812 -0.11963081 C184.87332531 -0.11593857 186.93329462 -0.11907182 188.99321556 -0.1295166 C191.80479216 -0.14268455 194.6152304 -0.13121613 197.42675781 -0.11352539 C198.65025717 -0.1279329 198.65025717 -0.1279329 199.89847368 -0.14263147 C205.14559553 -0.0746752 208.09713764 0.94288845 212.27687073 4.38768005 C214.6498924 7.31440678 215.23653699 9.0707721 215.71437073 12.82518005 C215.18566698 17.13033915 214.10344305 19.11480684 211.27687073 22.38768005 C206.26276166 25.56749441 202.21237754 25.81789928 196.47145081 25.77536011 C195.59667745 25.78074565 194.72190409 25.78613118 193.82062244 25.79167992 C190.89573829 25.80596278 187.97130649 25.79885496 185.04640198 25.79173279 C182.9469008 25.79743613 180.84740273 25.80440025 178.74790955 25.81253052 C173.04965192 25.83047966 167.35154813 25.82929036 161.65327072 25.82358813 C156.89660564 25.82049924 152.13997023 25.82658531 147.38330936 25.83262688 C136.16323442 25.84667588 124.94323562 25.84510729 113.72315979 25.83372498 C102.14533178 25.82223935 90.56773529 25.83632617 78.98993778 25.86312145 C69.05008594 25.88526517 59.11030685 25.89191893 49.17043209 25.88604504 C43.23349399 25.88267159 37.29670436 25.8851166 31.35978699 25.90229607 C25.77829404 25.91774218 20.1971447 25.91383539 14.61566544 25.89499092 C12.56700838 25.89129879 10.51832599 25.8944316 8.46969223 25.90487671 C5.67349373 25.91804527 2.87843971 25.90657579 0.08229065 25.8888855 C-1.1343491 25.90329301 -1.1343491 25.90329301 -2.37556744 25.91799158 C-7.6100357 25.84983039 -10.55262391 24.82112605 -14.72312927 21.38768005 C-17.09615094 18.46095333 -17.68279553 16.70458801 -18.16062927 12.95018005 C-17.53944575 7.89197136 -15.62533079 4.88060605 -11.6237936 1.74003506 C-7.74735445 -0.06724813 -4.19119704 -0.03079763 0 0 Z " fill="#E2E6E9" transform="translate(139.72312927246094,463.61231994628906)"/>
<path d="M0 0 C17.49 0 34.98 0 53 0 C53 17.16 53 34.32 53 52 C35.51 52 18.02 52 0 52 C0 34.84 0 17.68 0 0 Z " fill="#65D2EF" transform="translate(212,218)"/>
<path d="M0 0 C17.49 0 34.98 0 53 0 C53 17.16 53 34.32 53 52 C35.51 52 18.02 52 0 52 C0 34.84 0 17.68 0 0 Z " fill="#F56B80" transform="translate(83,218)"/>
<path d="M0 0 C17.49 0 34.98 0 53 0 C53 17.16 53 34.32 53 52 C35.51 52 18.02 52 0 52 C0 34.84 0 17.68 0 0 Z " fill="#C4E892" transform="translate(212,106)"/>
<path d="M0 0 C17.49 0 34.98 0 53 0 C53 17.16 53 34.32 53 52 C35.51 52 18.02 52 0 52 C0 34.84 0 17.68 0 0 Z " fill="#FACB55" transform="translate(83,106)"/>
<path d="M0 0 C17.16 0 34.32 0 52 0 C52 17.16 52 34.32 52 52 C34.84 52 17.68 52 0 52 C0 34.84 0 17.68 0 0 Z " fill="#B3A4EE" transform="translate(341,218)"/>
<path d="M0 0 C2.31 0 4.62 0 7 0 C7.350625 1.19625 7.70125 2.3925 8.0625 3.625 C10.12302198 9.15897333 13.95190746 12.18477416 18.921875 15.14453125 C23.35146102 16.96798865 28.66928901 16.71365133 33.20703125 15.32421875 C34.8383696 14.62317518 36.42578705 13.8213285 38 13 C39.32 14.65 40.64 16.3 42 18 C41.505 18.825 41.01 19.65 40.5 20.5 C38.17735377 25.91950786 38.36442585 30.59834872 40.0625 36.125 C41.93453059 40.61080915 44.94974284 43.40236672 49 46 C52.24618446 47.39205064 52.24618446 47.39205064 55 48 C55 50.31 55 52.62 55 55 C53.948125 55.2475 52.89625 55.495 51.8125 55.75 C46.57662118 57.29120627 43.4127459 59.89869941 40.6875 64.625 C38.23949055 69.9688255 37.92996624 75.56977749 39.68359375 81.19140625 C40.37563261 82.83044566 41.17702657 84.42263425 42 86 C40.8125 87.5625 40.8125 87.5625 39 89 C36.12631508 88.71263151 33.74209856 87.91403285 31 87 C24.30950263 86.27509709 18.39518089 86.68385529 13 91 C9.9694024 94.67893439 7.99007266 98.33102577 7 103 C4.69 103 2.38 103 0 103 C-0.2475 101.948125 -0.495 100.89625 -0.75 99.8125 C-2.29120627 94.57662118 -4.89869941 91.4127459 -9.625 88.6875 C-14.35507411 86.50370878 -18.87672776 86.37175764 -24 87 C-25.68375165 87.62225605 -27.35767228 88.27544365 -29 89 C-31.1875 88.8125 -31.1875 88.8125 -33 88 C-33.66 87.01 -34.32 86.02 -35 85 C-34.2575 83.824375 -34.2575 83.824375 -33.5 82.625 C-31.29536916 77.29714215 -30.96046464 72.26391746 -32.7265625 66.71875 C-35.98852049 59.61139437 -40.95010832 56.76466341 -48 54 C-48 52.02 -48 50.04 -48 48 C-46.1746875 47.4121875 -46.1746875 47.4121875 -44.3125 46.8125 C-39.12382256 44.85070323 -36.32389285 41.91736206 -33.1875 37.375 C-31.03591003 31.25995483 -31.05812077 25.3154531 -33.5 19.3125 C-33.995 18.549375 -34.49 17.78625 -35 17 C-33.35 15.68 -31.7 14.36 -30 13 C-29.21625 13.495 -28.4325 13.99 -27.625 14.5 C-21.94077442 16.85209335 -17.1018767 17.1332071 -11.2734375 15.00390625 C-5.14014743 11.81061511 -2.62939139 8.5262723 -0.5234375 1.9765625 C-0.35070312 1.32429688 -0.17796875 0.67203125 0 0 Z M-24 28 C-31.02648394 37.14604314 -33.2065955 46.58148652 -32 58 C-29.30033598 67.90804528 -23.38077636 77.17546686 -14.46484375 82.51953125 C-5.51399315 87.09382456 2.95895106 88.53186648 12.98046875 86.3515625 C22.30812481 83.27304132 29.64844115 77.86776745 34.78125 69.44140625 C39.19501553 60.5997285 40.80254255 50.44909668 38.12109375 40.85546875 C34.37221305 31.01929662 28.57929916 23.5980636 19 19 C3.12743724 12.23643374 -12.03373796 15.99247499 -24 28 Z " fill="#F4C653" transform="translate(406,51)"/>
<path d="M0 0 C4.91875371 2.8482311 8.18962787 6.91835141 11.0625 11.75 C12.6956263 18.7724431 12.19720693 25.00305673 8.94921875 31.46484375 C5.57265894 36.74398525 0.59126656 39.53628704 -5.3125 41.4375 C-11.5555971 42.4974288 -16.49055816 41.13597384 -22.0078125 38.13671875 C-26.68095413 34.69126687 -29.49692714 29.88421858 -31.3125 24.4375 C-32.05299988 17.60305032 -31.43882112 12.05991415 -27.3125 6.4375 C-20.0408164 -1.31666498 -10.13917622 -4.54313088 0 0 Z " fill="#616A75" transform="translate(419.3125,82.5625)"/>
<path d="M0 0 C0.82780975 -0.0127597 1.65561951 -0.02551941 2.5085144 -0.03866577 C3.85225632 -0.04200424 3.85225632 -0.04200424 5.22314453 -0.04541016 C6.14306183 -0.05206696 7.06297913 -0.05872375 8.01077271 -0.06558228 C9.95930987 -0.07571897 11.90788181 -0.08039898 13.85644531 -0.08007812 C16.83733467 -0.08444537 19.81673669 -0.12073734 22.79736328 -0.15869141 C24.68928529 -0.16456053 26.58121435 -0.16852928 28.47314453 -0.17041016 C29.81081375 -0.19196671 29.81081375 -0.19196671 31.17550659 -0.21395874 C37.32146805 -0.16861998 37.32146805 -0.16861998 40.57519531 2.09667969 C41.98095703 4.29052734 41.98095703 4.29052734 41.98095703 7.85302734 C40.98095703 11.29052734 40.98095703 11.29052734 39.46508789 12.97607422 C35.82566682 14.90183767 32.25750879 14.75828533 28.23486328 14.75927734 C27.38673569 14.76689087 26.53860809 14.77450439 25.66477966 14.78234863 C23.87363626 14.79313872 22.08243 14.79600716 20.29125977 14.79150391 C17.55589516 14.79053176 14.82333844 14.83215806 12.08837891 14.87646484 C10.3455462 14.88167232 8.60270377 14.88436003 6.85986328 14.88427734 C6.04514053 14.90067261 5.23041779 14.91706787 4.39100647 14.93395996 C0.12784188 14.88227337 -1.56157363 14.63550063 -5.07788086 11.98388672 C-7.01904297 9.29052734 -7.01904297 9.29052734 -6.95654297 5.60302734 C-5.6676121 1.04880494 -4.54698478 0.04751021 0 0 Z " fill="#070707" transform="translate(221.01904296875,340.70947265625)"/>
</svg>
