<?xml version="1.0" encoding="UTF-8"?>
<svg version="1.1" xmlns="http://www.w3.org/2000/svg" width="64" height="64">
<path d="M0 0 C3.12694762 2.51515352 5.88144669 5.08506341 7 9 C6.99234621 12.69678015 6.94555797 15.88668914 4.48901367 18.77905273 C2.63238437 21.5483193 2.61807339 23.2230286 2.59375 26.53515625 C2.57183594 27.59154297 2.54992188 28.64792969 2.52734375 29.73632812 C2.50908247 31.95768203 2.49085342 34.1790362 2.47265625 36.40039062 C2.45074219 37.45548828 2.42882813 38.51058594 2.40625 39.59765625 C2.39916016 40.56195557 2.39207031 41.52625488 2.38476562 42.51977539 C2 45 2 45 0.7253418 46.81933594 C-1.3728996 48.25517793 -2.48723025 48.3499121 -5.01171875 48.29296875 C-5.76904297 48.28330078 -6.52636719 48.27363281 -7.30664062 48.26367188 C-8.09232422 48.23853516 -8.87800781 48.21339844 -9.6875 48.1875 C-10.88342773 48.16719727 -10.88342773 48.16719727 -12.10351562 48.14648438 C-14.06929967 48.11117089 -16.03473582 48.05736447 -18 48 C-17.505 50.475 -17.505 50.475 -17 53 C-15.02 53.66 -13.04 54.32 -11 55 C-10.3125 57.3125 -10.3125 57.3125 -10 60 C-11.0859375 61.64526367 -11.0859375 61.64526367 -13 63 C-15.86328125 63.37231445 -15.86328125 63.37231445 -19.3125 63.36328125 C-20.55257812 63.36263672 -21.79265625 63.36199219 -23.0703125 63.36132812 C-25.01550781 63.3371582 -25.01550781 63.3371582 -27 63.3125 C-28.29679687 63.31572266 -29.59359375 63.31894531 -30.9296875 63.32226562 C-40.599529 63.26698067 -40.599529 63.26698067 -44 61 C-44.375 58.5 -44.375 58.5 -44 56 C-41 54 -41 54 -37 54 C-36.67 52.02 -36.34 50.04 -36 48 C-37.89685547 48.06960937 -37.89685547 48.06960937 -39.83203125 48.140625 C-41.49216391 48.17814212 -43.15232208 48.21454235 -44.8125 48.25 C-46.06256836 48.30027344 -46.06256836 48.30027344 -47.33789062 48.3515625 C-48.54155273 48.37089844 -48.54155273 48.37089844 -49.76953125 48.390625 C-50.50792236 48.41157227 -51.24631348 48.43251953 -52.00708008 48.45410156 C-54 48 -54 48 -55.73950195 46.46972656 C-57.48680528 43.04618977 -57.42958561 39.85032579 -57.3984375 36.09375 C-57.40274277 34.95117737 -57.40274277 34.95117737 -57.40713501 33.78552246 C-57.40917234 32.17845921 -57.40366558 30.57137098 -57.39111328 28.96435547 C-57.37505377 26.5082236 -57.39097196 24.05373711 -57.41015625 21.59765625 C-57.40817376 20.03385054 -57.40432996 18.47004586 -57.3984375 16.90625 C-57.40451019 16.17386108 -57.41058289 15.44147217 -57.4168396 14.68688965 C-57.37618094 11.73088829 -57.11519814 9.28450109 -56.00195312 6.53515625 C-52.82082612 4.09577496 -49.41207435 4.47689343 -45.5703125 4.53125 C-44.32929276 4.52067566 -44.32929276 4.52067566 -43.0632019 4.5098877 C-39.52455711 4.48037363 -35.98646033 4.49701482 -32.44775391 4.50927734 C-29.86327299 4.51166111 -27.27968281 4.4907198 -24.6953125 4.46875 C-23.89932648 4.48006958 -23.10334045 4.49138916 -22.28323364 4.50305176 C-17.17369497 4.45671668 -14.83390209 3.63570218 -11 0 C-7.14623078 -1.28458974 -3.85791826 -1.1076445 0 0 Z " fill="#0A0A0A" transform="translate(57,1)"/>
<path d="M0 0 C1.47057839 0.00031709 2.94118001 0.01164091 4.41162109 0.03173828 C5.18565277 0.03456818 5.95968445 0.03739807 6.75717163 0.04031372 C9.23329016 0.05152325 11.70904909 0.07662875 14.18505859 0.10205078 C15.86213671 0.1120796 17.53922049 0.12120562 19.21630859 0.12939453 C23.33103082 0.15146504 27.44548371 0.18599977 31.56005859 0.22705078 C31.60396729 0.91412109 31.64787598 1.60119141 31.69311523 2.30908203 C31.76393311 3.21013672 31.83475098 4.11119141 31.90771484 5.03955078 C31.97224854 5.93287109 32.03678223 6.82619141 32.10327148 7.74658203 C32.7780702 11.41090858 34.6936536 12.98985664 37.56005859 15.22705078 C38.22005859 15.88705078 38.88005859 16.54705078 39.56005859 17.22705078 C37.25005859 17.22705078 34.94005859 17.22705078 32.56005859 17.22705078 C32.56005859 20.85705078 32.56005859 24.48705078 32.56005859 28.22705078 C35.86005859 28.22705078 39.16005859 28.22705078 42.56005859 28.22705078 C42.56005859 24.59705078 42.56005859 20.96705078 42.56005859 17.22705078 C44.54005859 16.56705078 46.52005859 15.90705078 48.56005859 15.22705078 C48.56005859 20.50705078 48.56005859 25.78705078 48.56005859 31.22705078 C30.74005859 31.22705078 12.92005859 31.22705078 -5.43994141 31.22705078 C-5.48119141 26.48330078 -5.52244141 21.73955078 -5.56494141 16.85205078 C-5.58314941 15.35625488 -5.60135742 13.86045898 -5.62011719 12.31933594 C-5.6251123 11.14677246 -5.63010742 9.97420898 -5.63525391 8.76611328 C-5.64572754 7.56164551 -5.65620117 6.35717773 -5.66699219 5.11621094 C-5.32407574 0.75269132 -4.30575066 0.28419788 0 0 Z " fill="#39A4CC" transform="translate(8.43994140625,7.77294921875)"/>
<path d="M0 0 C3.18121024 2.55879954 5.65993768 5.10163689 7 9 C7.125 11.75 7.125 11.75 7 14 C6.01 14.33 5.02 14.66 4 15 C3.91363281 14.38511719 3.82726563 13.77023437 3.73828125 13.13671875 C2.90645737 7.97392471 2.90645737 7.97392471 -0.1875 3.9375 C-4.69322269 2.43559244 -8.51173046 2.50391015 -13 4 C-14.82170566 7.54220546 -15.45269624 11.07765636 -16 15 C-16.33 15 -16.66 15 -17 15 C-17 12.36 -17 9.72 -17 7 C-21.96639957 7.11794962 -26.93258651 7.24217518 -31.89868164 7.37231445 C-33.58939299 7.41572439 -35.28014991 7.45739489 -36.97094727 7.49731445 C-39.39613606 7.55487094 -41.82109415 7.61860649 -44.24609375 7.68359375 C-45.38672523 7.70866249 -45.38672523 7.70866249 -46.55039978 7.73423767 C-50.07082031 7.52091268 -50.07082031 7.52091268 -53 9 C-53.15858842 11.14386657 -53.25129298 13.29266838 -53.31640625 15.44140625 C-53.35451416 16.61646729 -53.39262207 17.79152832 -53.43188477 19.00219727 C-53.47498779 20.50709717 -53.51809082 22.01199707 -53.5625 23.5625 C-53.706875 28.326875 -53.85125 33.09125 -54 38 C-36.51 38 -19.02 38 -1 38 C-1 38.33 -1 38.66 -1 39 C-18.49 39 -35.98 39 -54 39 C-53.34 40.98 -52.68 42.96 -52 45 C-36.16 45.495 -36.16 45.495 -20 46 C-20 47.98 -20 49.96 -20 52 C-20.33 52 -20.66 52 -21 52 C-21 50.35 -21 48.7 -21 47 C-25.29 47 -29.58 47 -34 47 C-34 49.31 -34 51.62 -34 54 C-36 51 -36 51 -36 48 C-37.89685547 48.06960937 -37.89685547 48.06960937 -39.83203125 48.140625 C-41.49216391 48.17814212 -43.15232208 48.21454235 -44.8125 48.25 C-46.06256836 48.30027344 -46.06256836 48.30027344 -47.33789062 48.3515625 C-48.54155273 48.37089844 -48.54155273 48.37089844 -49.76953125 48.390625 C-50.50792236 48.41157227 -51.24631348 48.43251953 -52.00708008 48.45410156 C-54 48 -54 48 -55.73950195 46.46972656 C-57.48680528 43.04618977 -57.42958561 39.85032579 -57.3984375 36.09375 C-57.40274277 34.95117737 -57.40274277 34.95117737 -57.40713501 33.78552246 C-57.40917234 32.17845921 -57.40366558 30.57137098 -57.39111328 28.96435547 C-57.37505377 26.5082236 -57.39097196 24.05373711 -57.41015625 21.59765625 C-57.40817376 20.03385054 -57.40432996 18.47004586 -57.3984375 16.90625 C-57.40451019 16.17386108 -57.41058289 15.44147217 -57.4168396 14.68688965 C-57.37618094 11.73088829 -57.11519814 9.28450109 -56.00195312 6.53515625 C-52.82082612 4.09577496 -49.41207435 4.47689343 -45.5703125 4.53125 C-44.32929276 4.52067566 -44.32929276 4.52067566 -43.0632019 4.5098877 C-39.52455711 4.48037363 -35.98646033 4.49701482 -32.44775391 4.50927734 C-29.86327299 4.51166111 -27.27968281 4.4907198 -24.6953125 4.46875 C-23.89932648 4.48006958 -23.10334045 4.49138916 -22.28323364 4.50305176 C-17.17369497 4.45671668 -14.83390209 3.63570218 -11 0 C-7.14623078 -1.28458974 -3.85791826 -1.1076445 0 0 Z " fill="#050606" transform="translate(57,1)"/>
<path d="M0 0 C17.82 0 35.64 0 54 0 C54 1.65 54 3.3 54 5 C51.49055695 7.50944305 50.68235913 7.2525033 47.21484375 7.25878906 C45.72319702 7.26824554 45.72319702 7.26824554 44.20141602 7.27789307 C43.12432373 7.2738446 42.04723145 7.26979614 40.9375 7.265625 C39.835271 7.26753845 38.73304199 7.2694519 37.59741211 7.27142334 C35.26383232 7.27278612 32.93024497 7.26908322 30.59667969 7.26074219 C27.01480153 7.25004421 23.43342497 7.26063458 19.8515625 7.2734375 C17.58854055 7.27211592 15.32551892 7.26955357 13.0625 7.265625 C11.98540771 7.26967346 10.90831543 7.27372192 9.79858398 7.27789307 C8.80415283 7.27158875 7.80972168 7.26528442 6.78515625 7.25878906 C5.90738525 7.25719788 5.02961426 7.25560669 4.12524414 7.25396729 C2 7 2 7 0 5 C0 3.35 0 1.7 0 0 Z " fill="#B0B3B6" transform="translate(3,40)"/>
<path d="M0 0 C1.47057839 0.00031709 2.94118001 0.01164091 4.41162109 0.03173828 C5.18565277 0.03456818 5.95968445 0.03739807 6.75717163 0.04031372 C9.23329016 0.05152325 11.70904909 0.07662875 14.18505859 0.10205078 C15.86213671 0.1120796 17.53922049 0.12120562 19.21630859 0.12939453 C23.33103082 0.15146504 27.44548371 0.18599977 31.56005859 0.22705078 C31.56005859 0.88705078 31.56005859 1.54705078 31.56005859 2.22705078 C14.23505859 2.72205078 14.23505859 2.72205078 -3.43994141 3.22705078 C-3.76994141 11.80705078 -4.09994141 20.38705078 -4.43994141 29.22705078 C12.39005859 29.22705078 29.22005859 29.22705078 46.56005859 29.22705078 C46.56005859 24.60705078 46.56005859 19.98705078 46.56005859 15.22705078 C47.22005859 15.22705078 47.88005859 15.22705078 48.56005859 15.22705078 C48.56005859 20.50705078 48.56005859 25.78705078 48.56005859 31.22705078 C30.74005859 31.22705078 12.92005859 31.22705078 -5.43994141 31.22705078 C-5.48119141 26.48330078 -5.52244141 21.73955078 -5.56494141 16.85205078 C-5.58314941 15.35625488 -5.60135742 13.86045898 -5.62011719 12.31933594 C-5.6251123 11.14677246 -5.63010742 9.97420898 -5.63525391 8.76611328 C-5.64572754 7.56164551 -5.65620117 6.35717773 -5.66699219 5.11621094 C-5.32407574 0.75269132 -4.30575066 0.28419788 0 0 Z " fill="#97A7B0" transform="translate(8.43994140625,7.77294921875)"/>
<path d="M0 0 C2 2.125 2 2.125 3 5 C2.6875 8.8125 2.6875 8.8125 2 12 C0.35 12.33 -1.3 12.66 -3 13 C-3 13.66 -3 14.32 -3 15 C-4.32 15 -5.64 15 -7 15 C-7 14.34 -7 13.68 -7 13 C-8.32 13 -9.64 13 -11 13 C-11 11.68 -11 10.36 -11 9 C-11.66 9 -12.32 9 -13 9 C-13 7.68 -13 6.36 -13 5 C-12.34 5 -11.68 5 -11 5 C-10.67 3.35 -10.34 1.7 -10 0 C-6.17853346 -1.27382218 -3.89335307 -0.97333827 0 0 Z " fill="#7E662B" transform="translate(56,6)"/>
<path d="M0 0 C9.9 0 19.8 0 30 0 C30 1.65 30 3.3 30 5 C20.43 5 10.86 5 1 5 C1 4.67 1 4.34 1 4 C2.98 4 4.96 4 7 4 C7 3.01 7 2.02 7 1 C4.69 1 2.38 1 0 1 C0 0.67 0 0.34 0 0 Z " fill="#E5E9EC" transform="translate(26,41)"/>
<path d="M0 0 C3.5386994 1.65139305 4.81070153 2.71605229 7 6 C7.55248619 13.59668508 7.55248619 13.59668508 5 17 C2.27982477 19.11569184 0.41752096 19.93911153 -3 20.4375 C-7.43113386 19.79129298 -9.71516677 17.6936438 -12.375 14.1875 C-13.3483907 10.78063256 -12.89660101 8.40708385 -12 5 C-8.48447801 0.14030784 -5.91274665 -0.84467809 0 0 Z M-9 4 C-9 5.32 -9 6.64 -9 8 C-9.66 8 -10.32 8 -11 8 C-11 9.32 -11 10.64 -11 12 C-10.34 12 -9.68 12 -9 12 C-9 13.32 -9 14.64 -9 16 C-7.68 16 -6.36 16 -5 16 C-5 16.66 -5 17.32 -5 18 C-3.68 18 -2.36 18 -1 18 C-1 17.34 -1 16.68 -1 16 C0.65 15.67 2.3 15.34 4 15 C4.803528 11.274552 5.26620739 8.76534624 4 5.125 C2.06222372 2.69553426 2.06222372 2.69553426 -1.4375 2.0625 C-4.80802824 2.00336793 -6.27075574 2.1441139 -9 4 Z " fill="#525A63" transform="translate(54,3)"/>
<path d="M0 0 C-0.99 0.33 -1.98 0.66 -3 1 C-3 4.63 -3 8.26 -3 12 C-6.3 12 -9.6 12 -13 12 C-13 8.37 -13 4.74 -13 1 C-8.61414671 0.29826347 -4.44209357 -0.10834375 0 0 Z " fill="#162C39" transform="translate(54,24)"/>
<path d="M0 0 C3.3 0 6.6 0 10 0 C10 3.63 10 7.26 10 11 C6.7 11 3.4 11 0 11 C0 7.37 0 3.74 0 0 Z " fill="#102B34" transform="translate(25,25)"/>
<path d="M0 0 C3.3 0 6.6 0 10 0 C10 3.63 10 7.26 10 11 C6.7 11 3.4 11 0 11 C0 7.37 0 3.74 0 0 Z " fill="#172D2E" transform="translate(25,11)"/>
<path d="M0 0 C4.29 0 8.58 0 13 0 C13.33 2.64 13.66 5.28 14 8 C9.05 8 4.1 8 -1 8 C-0.67 5.36 -0.34 2.72 0 0 Z " fill="#BDC2C9" transform="translate(23,48)"/>
<path d="M0 0 C6.93359375 -0.09765625 6.93359375 -0.09765625 9 0 C10 1 10 1 10.1328125 3.03125 C10.13023438 3.8459375 10.12765625 4.660625 10.125 5.5 C10.12757812 6.3146875 10.13015625 7.129375 10.1328125 7.96875 C10 10 10 10 9 11 C5.99668982 11.14193337 3.00782866 11.04236378 0 11 C0 7.37 0 3.74 0 0 Z " fill="#0E2129" transform="translate(9,25)"/>
<path d="M0 0 C6.93359375 -0.09765625 6.93359375 -0.09765625 9 0 C10 1 10 1 10.1328125 3.03125 C10.13023438 3.8459375 10.12765625 4.660625 10.125 5.5 C10.12757812 6.3146875 10.13015625 7.129375 10.1328125 7.96875 C10 10 10 10 9 11 C5.99668982 11.14193337 3.00782866 11.04236378 0 11 C0 7.37 0 3.74 0 0 Z " fill="#0E2228" transform="translate(9,11)"/>
<path d="M0 0 C9.24 0 18.48 0 28 0 C28 0.99 28 1.98 28 3 C18.43 3 8.86 3 -1 3 C-0.67 2.01 -0.34 1.02 0 0 Z " fill="#D3D7D9" transform="translate(16,58)"/>
<path d="M0 0 C2 2.125 2 2.125 3 5 C2.6875 8.8125 2.6875 8.8125 2 12 C0.35 12.33 -1.3 12.66 -3 13 C-3 13.66 -3 14.32 -3 15 C-4.32 15 -5.64 15 -7 15 C-7 14.34 -7 13.68 -7 13 C-8.32 13 -9.64 13 -11 13 C-11 11.68 -11 10.36 -11 9 C-11.66 9 -12.32 9 -13 9 C-13 7.68 -13 6.36 -13 5 C-12.34 5 -11.68 5 -11 5 C-10.67 3.35 -10.34 1.7 -10 0 C-6.17853346 -1.27382218 -3.89335307 -0.97333827 0 0 Z M-10 2 C-10.74926071 5.66305234 -11.2380014 8.42355152 -10 12 C-6.33694766 12.74926071 -3.57644848 13.2380014 0 12 C0.93786082 6.94990405 0.93786082 6.94990405 0 2 C-3.66305234 1.25073929 -6.42355152 0.7619986 -10 2 Z " fill="#0C0D0C" transform="translate(56,6)"/>
<path d="M0 0 C2.4375 0.1875 2.4375 0.1875 3.4375 1.1875 C3.625 3.625 3.625 3.625 3.4375 6.1875 C2.7775 6.8475 2.1175 7.5075 1.4375 8.1875 C-1.1875 7.8125 -1.1875 7.8125 -3.5625 7.1875 C-4.1875 4.8125 -4.1875 4.8125 -4.5625 2.1875 C-2.5625 0.1875 -2.5625 0.1875 0 0 Z " fill="#11110E" transform="translate(51.5625,8.8125)"/>
<path d="M0 0 C2.31 0 4.62 0 7 0 C7 2.31 7 4.62 7 7 C4.69 7 2.38 7 0 7 C0 4.69 0 2.38 0 0 Z " fill="#D45C6F" transform="translate(10,27)"/>
<path d="M0 0 C2.31 0 4.62 0 7 0 C7 2.31 7 4.62 7 7 C4.69 7 2.38 7 0 7 C0 4.69 0 2.38 0 0 Z " fill="#D8B049" transform="translate(10,13)"/>
<path d="M0 0 C0.598125 0.78375 1.19625 1.5675 1.8125 2.375 C3.91085249 5.14574323 3.91085249 5.14574323 7 7 C11.2209225 7.36703674 14.17742309 6.79885972 18 5 C16.25894589 7.42233615 14.87470667 8.81559356 11.90625 9.44140625 C7.52687486 9.66767397 5.55684277 9.40910897 1.9375 6.75 C0 4 0 4 0 0 Z M21 0 C21.33 0.99 21.66 1.98 22 3 C20.02 3.99 20.02 3.99 18 5 C18.375 3.0625 18.375 3.0625 19 1 C19.66 0.67 20.32 0.34 21 0 Z " fill="#08090A" transform="translate(41,15)"/>
<path d="M0 0 C1.98 0 3.96 0 6 0 C6 2.31 6 4.62 6 7 C4.02 7 2.04 7 0 7 C0 4.69 0 2.38 0 0 Z " fill="#A597DC" transform="translate(43,27)"/>
<path d="M0 0 C1.98 0 3.96 0 6 0 C6 2.31 6 4.62 6 7 C4.02 7 2.04 7 0 7 C0 4.69 0 2.38 0 0 Z " fill="#5DC2DD" transform="translate(27,27)"/>
<path d="M0 0 C1.98 0 3.96 0 6 0 C6 2.31 6 4.62 6 7 C4.02 7 2.04 7 0 7 C0 4.69 0 2.38 0 0 Z " fill="#B6D788" transform="translate(27,13)"/>
<path d="M0 0 C3.5 0.9375 3.5 0.9375 5.5 3.0625 C6.76620739 6.70284624 6.303528 9.212052 5.5 12.9375 C3.40649311 9.5355513 3.32057837 6.88477588 3.5 2.9375 C0.2 2.6075 -3.1 2.2775 -6.5 1.9375 C-3.5 -0.0625 -3.5 -0.0625 0 0 Z " fill="#181815" transform="translate(52.5,5.0625)"/>
<path d="M0 0 C1.98 0.495 1.98 0.495 4 1 C3.67 2.32 3.34 3.64 3 5 C1.68 5 0.36 5 -1 5 C-0.67 3.35 -0.34 1.7 0 0 Z " fill="#58606A" transform="translate(50,10)"/>
<path d="M0 0 C0.598125 0.78375 1.19625 1.5675 1.8125 2.375 C3.91085249 5.14574323 3.91085249 5.14574323 7 7 C7 7.66 7 8.32 7 9 C3.15314615 7.75237172 0.97070595 6.6129609 -1 3 C-0.67 2.01 -0.34 1.02 0 0 Z " fill="#0F1E24" transform="translate(41,15)"/>
</svg>
