<?xml version="1.0" encoding="UTF-8"?>
<svg version="1.1" xmlns="http://www.w3.org/2000/svg" width="96" height="96">
<path d="M0 0 C5.07865564 2.87726118 8.67641434 6.66489785 10.7421875 12.1640625 C11.7082555 18.17412015 11.11099084 22.98128813 7.7421875 28.1640625 C7.0821875 28.8240625 6.4221875 29.4840625 5.7421875 30.1640625 C5.52098439 32.682505 5.41697686 35.09968759 5.3984375 37.62109375 C5.3838147 38.36107101 5.36919189 39.10104828 5.35412598 39.8634491 C5.30755686 42.23443177 5.27341636 44.60533111 5.2421875 46.9765625 C5.20094041 50.08754484 5.14716994 53.19794783 5.0859375 56.30859375 C5.0806604 57.02022171 5.0753833 57.73184967 5.06994629 58.46504211 C4.99078945 62.44151464 4.6635724 65.64755801 2.7421875 69.1640625 C-0.69542366 71.45580327 -2.17852865 71.45930297 -6.23828125 71.578125 C-7.40166016 71.61679688 -8.56503906 71.65546875 -9.76367188 71.6953125 C-11.58608398 71.74171875 -11.58608398 71.74171875 -13.4453125 71.7890625 C-14.67185547 71.82773438 -15.89839844 71.86640625 -17.16210938 71.90625 C-20.19385906 72.00062353 -23.22560091 72.08620799 -26.2578125 72.1640625 C-25.5978125 75.1340625 -24.9378125 78.1040625 -24.2578125 81.1640625 C-21.2878125 81.8240625 -18.3178125 82.4840625 -15.2578125 83.1640625 C-14.5703125 86.4765625 -14.5703125 86.4765625 -14.2578125 90.1640625 C-15.7705626 92.29891391 -16.68216662 93.05694131 -19.26879883 93.5382843 C-20.03474365 93.53765488 -20.80068848 93.53702545 -21.58984375 93.53637695 C-22.46084717 93.54260574 -23.33185059 93.54883453 -24.22924805 93.55525208 C-25.63557495 93.54143745 -25.63557495 93.54143745 -27.0703125 93.52734375 C-28.51821167 93.52809151 -28.51821167 93.52809151 -29.99536133 93.52885437 C-32.03631651 93.52651373 -34.07727457 93.51678582 -36.11816406 93.50024414 C-39.24570473 93.47665383 -42.37239299 93.47968307 -45.5 93.48632812 C-47.48177593 93.48075133 -49.46354825 93.47364144 -51.4453125 93.46484375 C-52.8516394 93.46621086 -52.8516394 93.46621086 -54.28637695 93.46760559 C-55.15738037 93.45807358 -56.02838379 93.44854156 -56.92578125 93.4387207 C-57.69172607 93.43411331 -58.4576709 93.42950592 -59.24682617 93.42475891 C-61.2578125 93.1640625 -61.2578125 93.1640625 -64.2578125 91.1640625 C-65.34616956 88.20995047 -65.50984863 86.78575163 -64.3203125 83.8515625 C-61.09207914 81.21028066 -58.34458181 81.89607763 -54.2578125 82.1640625 C-53.5978125 78.5340625 -52.9378125 74.9040625 -52.2578125 71.1640625 C-54.07667969 71.22207031 -55.89554688 71.28007813 -57.76953125 71.33984375 C-60.16143268 71.38674378 -62.55336185 71.43224367 -64.9453125 71.4765625 C-66.14349609 71.51845703 -67.34167969 71.56035156 -68.57617188 71.60351562 C-69.73310547 71.61962891 -70.89003906 71.63574219 -72.08203125 71.65234375 C-73.14510498 71.67852783 -74.20817871 71.70471191 -75.3034668 71.73168945 C-78.2578125 71.1640625 -78.2578125 71.1640625 -81.10668945 69.39355469 C-84.40057991 64.44841986 -83.93498833 59.81909119 -83.8515625 54.00390625 C-83.85160278 52.82188126 -83.85164307 51.63985626 -83.85168457 50.42201233 C-83.846329 47.92638829 -83.82874504 45.43076471 -83.79980469 42.93530273 C-83.75792622 39.1119444 -83.75873882 35.29034603 -83.765625 31.46679688 C-83.75513344 29.04165441 -83.74219553 26.61652103 -83.7265625 24.19140625 C-83.72636108 23.04655258 -83.72615967 21.90169891 -83.72595215 20.72215271 C-83.71004028 19.65747269 -83.69412842 18.59279266 -83.67773438 17.49584961 C-83.66931519 16.56050888 -83.660896 15.62516815 -83.65222168 14.66148376 C-83.18274715 11.68874446 -82.3310511 10.32217531 -80.2578125 8.1640625 C-77.2083434 7.1475728 -75.16939806 7.04537642 -71.97949219 7.05395508 C-70.90117126 7.05337601 -69.82285034 7.05279694 -68.71185303 7.05220032 C-66.96343109 7.05536507 -66.96343109 7.05536507 -65.1796875 7.05859375 C-62.714835 7.04513688 -60.24999065 7.03011358 -57.78515625 7.01367188 C-53.89636048 6.99084281 -50.00848292 6.97656035 -46.11962891 6.98901367 C-42.36814359 6.9978334 -38.61848392 6.96891613 -34.8671875 6.93359375 C-33.7096698 6.94582474 -32.5521521 6.95805573 -31.35955811 6.97065735 C-25.98426115 6.89014649 -22.31124917 6.80940483 -18.15722656 3.1784668 C-17.65612366 2.64013718 -17.15502075 2.10180756 -16.63873291 1.54716492 C-12.694513 -2.40328729 -4.87215383 -1.80387702 0 0 Z " fill="#0D0D0E" transform="translate(84.2578125,1.8359375)"/>
<path d="M0 0 C0.95486298 0.00444122 1.90972595 0.00888245 2.89352417 0.01345825 C4.51497849 0.01368484 4.51497849 0.01368484 6.16918945 0.01391602 C7.92548172 0.02939987 7.92548172 0.02939987 9.71725464 0.04519653 C11.51088943 0.04944138 11.51088943 0.04944138 13.34075928 0.05377197 C17.17208733 0.06499599 21.00318436 0.09010472 24.83444214 0.11550903 C27.42688669 0.12553596 30.01933489 0.1346623 32.61178589 0.14285278 C38.97775056 0.16494257 45.34357985 0.19844197 51.70944214 0.24050903 C51.68406372 0.9823645 51.6586853 1.72421997 51.63253784 2.48855591 C51.60292969 3.95905396 51.60292969 3.95905396 51.57272339 5.45925903 C51.54734497 6.4279895 51.52196655 7.39671997 51.49581909 8.39480591 C51.90994574 13.91144612 54.86745949 17.60903868 58.89694214 21.17800903 C64.90272916 23.44686191 70.46620499 23.48915646 76.70944214 22.24050903 C76.70944214 29.83050903 76.70944214 37.42050903 76.70944214 45.24050903 C49.97944214 45.24050903 23.24944214 45.24050903 -4.29055786 45.24050903 C-4.33180786 38.18675903 -4.37305786 31.13300903 -4.41555786 23.86550903 C-4.43376587 21.6388147 -4.45197388 19.41212036 -4.47073364 17.11795044 C-4.4765731 15.35932659 -4.48166995 13.60070006 -4.48587036 11.84207153 C-4.49610229 10.9238562 -4.50633423 10.00564087 -4.51687622 9.05960083 C-4.51711792 8.18682495 -4.51735962 7.31404907 -4.51760864 6.41482544 C-4.52204987 5.65537628 -4.52649109 4.89592712 -4.53106689 4.11346436 C-4.1439811 1.09904782 -2.9302364 0.30767541 0 0 Z " fill="#39A3CC" transform="translate(8.290557861328125,12.759490966796875)"/>
<path d="M0 0 C26.4 0 52.8 0 80 0 C80 6 80 6 78.94960022 7.85173035 C75.92738053 9.63174818 73.2902025 9.37397607 69.80639648 9.37231445 C69.0776532 9.37596512 68.34890991 9.37961578 67.5980835 9.38337708 C65.18885001 9.39148444 62.78028865 9.37787276 60.37109375 9.36328125 C58.69865418 9.36276272 57.02621399 9.36328015 55.35377502 9.36479187 C51.84912007 9.36470214 48.34469513 9.35427066 44.84008789 9.33618164 C40.34168835 9.31347685 35.84362446 9.31295343 31.34518337 9.31969929 C27.89228823 9.32303596 24.43947 9.3164152 20.98658943 9.30657005 C19.32754989 9.30271385 17.66850181 9.30157157 16.00945854 9.3031559 C13.69420855 9.30352559 11.37939378 9.29093454 9.06420898 9.2746582 C7.74533188 9.27005081 6.42645477 9.26544342 5.06761169 9.26069641 C2 9 2 9 0 7 C0 4.69 0 2.38 0 0 Z " fill="#DDE1E4" transform="translate(5,61)"/>
<path d="M0 0 C0.95486298 0.00444122 1.90972595 0.00888245 2.89352417 0.01345825 C4.51497849 0.01368484 4.51497849 0.01368484 6.16918945 0.01391602 C7.92548172 0.02939987 7.92548172 0.02939987 9.71725464 0.04519653 C11.51088943 0.04944138 11.51088943 0.04944138 13.34075928 0.05377197 C17.17208733 0.06499599 21.00318436 0.09010472 24.83444214 0.11550903 C27.42688669 0.12553596 30.01933489 0.1346623 32.61178589 0.14285278 C38.97775056 0.16494257 45.34357985 0.19844197 51.70944214 0.24050903 C51.70944214 0.90050903 51.70944214 1.56050903 51.70944214 2.24050903 C34.21944214 2.24050903 16.72944214 2.24050903 -1.29055786 2.24050903 C-1.29055786 15.77050903 -1.29055786 29.30050903 -1.29055786 43.24050903 C23.78944214 43.24050903 48.86944214 43.24050903 74.70944214 43.24050903 C74.70944214 36.31050903 74.70944214 29.38050903 74.70944214 22.24050903 C75.36944214 22.24050903 76.02944214 22.24050903 76.70944214 22.24050903 C76.70944214 29.83050903 76.70944214 37.42050903 76.70944214 45.24050903 C49.97944214 45.24050903 23.24944214 45.24050903 -4.29055786 45.24050903 C-4.33180786 38.18675903 -4.37305786 31.13300903 -4.41555786 23.86550903 C-4.43376587 21.6388147 -4.45197388 19.41212036 -4.47073364 17.11795044 C-4.4765731 15.35932659 -4.48166995 13.60070006 -4.48587036 11.84207153 C-4.49610229 10.9238562 -4.50633423 10.00564087 -4.51687622 9.05960083 C-4.51711792 8.18682495 -4.51735962 7.31404907 -4.51760864 6.41482544 C-4.52204987 5.65537628 -4.52649109 4.89592712 -4.53106689 4.11346436 C-4.1439811 1.09904782 -2.9302364 0.30767541 0 0 Z " fill="#AFBEC7" transform="translate(8.290557861328125,12.759490966796875)"/>
<path d="M0 0 C1.65 0 3.3 0 5 0 C5.33 0.99 5.66 1.98 6 3 C7.65 2.67 9.3 2.34 11 2 C12.0625 4.375 12.0625 4.375 13 7 C12.67 7.66 12.34 8.32 12 9 C12.99 9.33 13.98 9.66 15 10 C15 11.65 15 13.3 15 15 C14.01 15 13.02 15 12 15 C12.20625 15.78375 12.4125 16.5675 12.625 17.375 C12.74875 18.24125 12.8725 19.1075 13 20 C11 22 11 22 8.375 22.125 C7.59125 22.08375 6.8075 22.0425 6 22 C6 22.66 6 23.32 6 24 C4.02 24 2.04 24 0 24 C0 23.01 0 22.02 0 21 C-0.66 20.67 -1.32 20.34 -2 20 C-1.195625 20.185625 -0.39125 20.37125 0.4375 20.5625 C1.283125 20.706875 2.12875 20.85125 3 21 C3.33 20.67 3.66 20.34 4 20 C3.030625 19.525625 2.06125 19.05125 1.0625 18.5625 C-2 17 -2 17 -3 16 C-3.66 17.32 -4.32 18.64 -5 20 C-4.34 20 -3.68 20 -3 20 C-3 20.66 -3 21.32 -3 22 C-4.32 21.34 -5.64 20.68 -7 20 C-7 18.35 -7 16.7 -7 15 C-7.66 15 -8.32 15 -9 15 C-9 13.02 -9 11.04 -9 9 C-8.34 9 -7.68 9 -7 9 C-7.04125 8.21625 -7.0825 7.4325 -7.125 6.625 C-7 4 -7 4 -5 2 C-3.68 2 -2.36 2 -1 2 C-0.67 1.34 -0.34 0.68 0 0 Z " fill="#1D190E" transform="translate(74,7)"/>
<path d="M0 0 C4.53072373 2.5925808 7.61929872 5.28499733 9.921875 10.08203125 C10.66668057 15.10946887 9.72711602 18.90263292 7.3125 23.28125 C4.37623571 27.08354729 0.4724684 28.62349761 -4.1640625 29.45703125 C-9.27366118 29.77026335 -12.23418086 28.30021704 -16.078125 25.08203125 C-19.8267325 20.81637444 -20.4412207 16.88622638 -20.3515625 11.36328125 C-19.8411177 7.10471316 -17.80409832 4.45341104 -14.5 1.828125 C-9.80926911 -1.20394654 -5.35192057 -2.36410025 0 0 Z M-10.078125 4.08203125 C-11.40406605 4.44365154 -12.73750957 4.77931164 -14.078125 5.08203125 C-15.37446121 6.1484824 -15.37446121 6.1484824 -15.140625 8.64453125 C-15.12 9.44890625 -15.099375 10.25328125 -15.078125 11.08203125 C-15.738125 11.08203125 -16.398125 11.08203125 -17.078125 11.08203125 C-17.078125 13.06203125 -17.078125 15.04203125 -17.078125 17.08203125 C-16.418125 17.08203125 -15.758125 17.08203125 -15.078125 17.08203125 C-15.078125 18.73203125 -15.078125 20.38203125 -15.078125 22.08203125 C-13.758125 22.74203125 -12.438125 23.40203125 -11.078125 24.08203125 C-11.078125 23.42203125 -11.078125 22.76203125 -11.078125 22.08203125 C-11.738125 22.08203125 -12.398125 22.08203125 -13.078125 22.08203125 C-12.418125 20.76203125 -11.758125 19.44203125 -11.078125 18.08203125 C-10.48 18.55640625 -9.881875 19.03078125 -9.265625 19.51953125 C-7.07429576 21.24668869 -7.07429576 21.24668869 -4.078125 22.08203125 C-4.738125 22.08203125 -5.398125 22.08203125 -6.078125 22.08203125 C-7.41595893 22.39681571 -8.75016209 22.72790781 -10.078125 23.08203125 C-9.418125 23.08203125 -8.758125 23.08203125 -8.078125 23.08203125 C-8.078125 24.07203125 -8.078125 25.06203125 -8.078125 26.08203125 C-6.098125 26.08203125 -4.118125 26.08203125 -2.078125 26.08203125 C-2.078125 25.42203125 -2.078125 24.76203125 -2.078125 24.08203125 C-1.294375 24.12328125 -0.510625 24.16453125 0.296875 24.20703125 C3.08303619 24.36931859 3.08303619 24.36931859 4.921875 22.08203125 C4.60146103 19.47922557 4.60146103 19.47922557 3.921875 17.08203125 C4.911875 17.08203125 5.901875 17.08203125 6.921875 17.08203125 C6.921875 15.43203125 6.921875 13.78203125 6.921875 12.08203125 C5.931875 11.75203125 4.941875 11.42203125 3.921875 11.08203125 C4.23125 10.18484375 4.23125 10.18484375 4.546875 9.26953125 C5.22859415 6.79752279 5.22859415 6.79752279 2.921875 4.08203125 C1.271875 4.41203125 -0.378125 4.74203125 -2.078125 5.08203125 C-2.408125 4.09203125 -2.738125 3.10203125 -3.078125 2.08203125 C-7.03270348 1.73379318 -7.03270348 1.73379318 -10.078125 4.08203125 Z " fill="#5A626D" transform="translate(82.078125,4.91796875)"/>
<path d="M0 0 C6.27 0 12.54 0 19 0 C19.66 3.96 20.32 7.92 21 12 C13.74 12 6.48 12 -1 12 C-0.67 8.04 -0.34 4.08 0 0 Z " fill="#BFC5CC" transform="translate(35,72)"/>
<path d="M0 0 C4.95 0 9.9 0 15 0 C15 4.95 15 9.9 15 15 C10.05 15 5.1 15 0 15 C0 10.05 0 5.1 0 0 Z " fill="#36222A" transform="translate(13,38)"/>
<path d="M0 0 C4.95 0 9.9 0 15 0 C15 4.95 15 9.9 15 15 C10.05 15 5.1 15 0 15 C0 10.05 0 5.1 0 0 Z " fill="#373621" transform="translate(13,17)"/>
<path d="M0 0 C3.61328125 0.03255208 7.2265625 0.06510417 10.83984375 0.09765625 C10.83984375 5.04765625 10.83984375 9.99765625 10.83984375 15.09765625 C5.88984375 15.09765625 0.93984375 15.09765625 -4.16015625 15.09765625 C-4.2578125 4.2578125 -4.2578125 4.2578125 -4.16015625 1.09765625 C-3.16015625 0.09765625 -3.16015625 0.09765625 0 0 Z " fill="#101C25" transform="translate(65.16015625,37.90234375)"/>
<path d="M0 0 C3.61328125 0.03255208 7.2265625 0.06510417 10.83984375 0.09765625 C10.83984375 5.04765625 10.83984375 9.99765625 10.83984375 15.09765625 C5.88984375 15.09765625 0.93984375 15.09765625 -4.16015625 15.09765625 C-4.2578125 4.2578125 -4.2578125 4.2578125 -4.16015625 1.09765625 C-3.16015625 0.09765625 -3.16015625 0.09765625 0 0 Z " fill="#071216" transform="translate(41.16015625,37.90234375)"/>
<path d="M0 0 C3.61328125 0.03255208 7.2265625 0.06510417 10.83984375 0.09765625 C10.83984375 5.04765625 10.83984375 9.99765625 10.83984375 15.09765625 C5.88984375 15.09765625 0.93984375 15.09765625 -4.16015625 15.09765625 C-4.2578125 4.2578125 -4.2578125 4.2578125 -4.16015625 1.09765625 C-3.16015625 0.09765625 -3.16015625 0.09765625 0 0 Z " fill="#0B1312" transform="translate(41.16015625,16.90234375)"/>
<path d="M0 0 C1.77206192 0.00015919 3.54412846 0.00585754 5.31616211 0.01586914 C6.24698105 0.01728409 7.17779999 0.01869904 8.13682556 0.02015686 C11.12241777 0.02577367 14.10793615 0.03832899 17.09350586 0.05102539 C19.11238499 0.05603823 21.13126529 0.06060151 23.15014648 0.06469727 C28.11046158 0.07574856 33.07072118 0.09302444 38.03100586 0.11352539 C37.70100586 1.76352539 37.37100586 3.41352539 37.03100586 5.11352539 C23.50100586 5.11352539 9.97100586 5.11352539 -3.96899414 5.11352539 C-4.29899414 3.79352539 -4.62899414 2.47352539 -4.96899414 1.11352539 C-3.96899414 0.11352539 -3.96899414 0.11352539 0 0 Z " fill="#E5E9EC" transform="translate(27.968994140625,86.886474609375)"/>
<path d="M0 0 C1.65 0 3.3 0 5 0 C5.33 0.99 5.66 1.98 6 3 C7.65 2.67 9.3 2.34 11 2 C12.0625 4.375 12.0625 4.375 13 7 C12.67 7.66 12.34 8.32 12 9 C12.99 9.33 13.98 9.66 15 10 C15 11.65 15 13.3 15 15 C14.01 15 13.02 15 12 15 C12.20625 15.78375 12.4125 16.5675 12.625 17.375 C12.74875 18.24125 12.8725 19.1075 13 20 C11 22 11 22 8.375 22.125 C7.59125 22.08375 6.8075 22.0425 6 22 C6 22.66 6 23.32 6 24 C4.02 24 2.04 24 0 24 C0 23.01 0 22.02 0 21 C-0.66 20.67 -1.32 20.34 -2 20 C-0.824375 20.309375 -0.824375 20.309375 0.375 20.625 C1.674375 20.810625 1.674375 20.810625 3 21 C3.66 20.34 4.32 19.68 5 19 C7.625 18.875 7.625 18.875 10 19 C10 18.2575 10 17.515 10 16.75 C10 12.83333333 10 8.91666667 10 5 C9.2575 5 8.515 5 7.75 5 C3.83333333 5 -0.08333333 5 -4 5 C-4 6.65 -4 8.3 -4 10 C-4.99 10.33 -5.98 10.66 -7 11 C-7 11.66 -7 12.32 -7 13 C-6.34 13 -5.68 13 -5 13 C-3.875 17.75 -3.875 17.75 -5 20 C-4.34 20 -3.68 20 -3 20 C-3 20.66 -3 21.32 -3 22 C-4.32 21.34 -5.64 20.68 -7 20 C-7 18.35 -7 16.7 -7 15 C-7.66 15 -8.32 15 -9 15 C-9 13.02 -9 11.04 -9 9 C-8.34 9 -7.68 9 -7 9 C-7.04125 8.21625 -7.0825 7.4325 -7.125 6.625 C-7 4 -7 4 -5 2 C-3.68 2 -2.36 2 -1 2 C-0.67 1.34 -0.34 0.68 0 0 Z " fill="#0C0B09" transform="translate(74,7)"/>
<path d="M0 0 C5.51177527 -0.57414326 8.6331152 0.35925051 13.19921875 3.515625 C17.01411506 6.660225 18.77729614 9.49674896 19.5 14.375 C18.73709081 19.90609164 16.96676069 24.25176828 12.75 28 C8.99342874 29.36602591 5.98584105 29.20266988 2 29 C2.639375 28.71125 3.27875 28.4225 3.9375 28.125 C6.15206079 27.17176549 6.15206079 27.17176549 7 25 C8.97888961 24.27306096 10.97954558 23.60183749 13 23 C13 21.35 13 19.7 13 18 C13.99 18 14.98 18 16 18 C15.65555119 15.52733235 15.65555119 15.52733235 15 13 C14.34 12.67 13.68 12.34 13 12 C12.59270772 9.67843403 12.25561323 7.3431213 12 5 C10.35 5.33 8.7 5.66 7 6 C6.67 5.34 6.34 4.68 6 4 C4.67532254 3.3162955 3.34136367 2.65035814 2 2 C1.34 1.34 0.68 0.68 0 0 Z " fill="#535B64" transform="translate(73,4)"/>
<path d="M0 0 C0 6.27 0 12.54 0 19 C-6.6 18.67 -13.2 18.34 -20 18 C-20 17.67 -20 17.34 -20 17 C-15.38 17 -10.76 17 -6 17 C-6 12.05 -6 7.1 -6 2 C-7.32 1.67 -8.64 1.34 -10 1 C-2.25 0 -2.25 0 0 0 Z " fill="#3299C0" transform="translate(82,36)"/>
<path d="M0 0 C3 2 3 2 3.58984375 3.98828125 C3.70457031 4.75527344 3.81929687 5.52226562 3.9375 6.3125 C4.90219083 11.2714892 6.65137311 14.23852983 10.75 17.3125 C15.72179017 18.83165811 21.02238425 18.24440394 26 17 C27.30475618 19.60951236 27.11301572 21.52701285 27.09765625 24.4453125 C27.09443359 25.52167969 27.09121094 26.59804688 27.08789062 27.70703125 C27.07951172 28.83496094 27.07113281 29.96289062 27.0625 31.125 C27.05798828 32.26066406 27.05347656 33.39632812 27.04882812 34.56640625 C27.03701615 37.37765638 27.02054507 40.1888023 27 43 C26.67 43 26.34 43 26 43 C26 35.41 26 27.82 26 20 C24.35 20.66 22.7 21.32 21 22 C15.08853465 22.37065458 10.0702942 21.31200466 5.47265625 17.5078125 C1.45462475 13.39385982 -0.22271372 9.85628627 -0.25 4.0625 C-0.18664949 2.70725149 -0.11038614 1.35223027 0 0 Z " fill="#070F13" transform="translate(59,15)"/>
<path d="M0 0 C3.3 0 6.6 0 10 0 C10 3.3 10 6.6 10 10 C6.7 10 3.4 10 0 10 C0 6.7 0 3.4 0 0 Z " fill="#A698DD" transform="translate(64,41)"/>
<path d="M0 0 C3.3 0 6.6 0 10 0 C10 3.3 10 6.6 10 10 C6.7 10 3.4 10 0 10 C0 6.7 0 3.4 0 0 Z " fill="#5EC3DE" transform="translate(40,41)"/>
<path d="M0 0 C3.3 0 6.6 0 10 0 C10 3.3 10 6.6 10 10 C6.7 10 3.4 10 0 10 C0 6.7 0 3.4 0 0 Z " fill="#B7D888" transform="translate(40,20)"/>
<path d="M0 0 C1.77206192 0.00015919 3.54412846 0.00585754 5.31616211 0.01586914 C6.24698105 0.01728409 7.17779999 0.01869904 8.13682556 0.02015686 C11.12241777 0.02577367 14.10793615 0.03832899 17.09350586 0.05102539 C19.11238499 0.05603823 21.13126529 0.06060151 23.15014648 0.06469727 C28.11046158 0.07574856 33.07072118 0.09302444 38.03100586 0.11352539 C38.03100586 0.44352539 38.03100586 0.77352539 38.03100586 1.11352539 C24.83100586 1.44352539 11.63100586 1.77352539 -1.96899414 2.11352539 C-2.29899414 2.77352539 -2.62899414 3.43352539 -2.96899414 4.11352539 C10.23100586 4.11352539 23.43100586 4.11352539 37.03100586 4.11352539 C37.03100586 4.44352539 37.03100586 4.77352539 37.03100586 5.11352539 C23.50100586 5.11352539 9.97100586 5.11352539 -3.96899414 5.11352539 C-4.29899414 3.79352539 -4.62899414 2.47352539 -4.96899414 1.11352539 C-3.96899414 0.11352539 -3.96899414 0.11352539 0 0 Z " fill="#AFB2B5" transform="translate(27.968994140625,86.886474609375)"/>
<path d="M0 0 C2.97 0 5.94 0 9 0 C9 2.97 9 5.94 9 9 C6.03 9 3.06 9 0 9 C0 6.03 0 3.06 0 0 Z " fill="#F66B81" transform="translate(16,41)"/>
<path d="M0 0 C2.97 0 5.94 0 9 0 C9 2.97 9 5.94 9 9 C6.03 9 3.06 9 0 9 C0 6.03 0 3.06 0 0 Z " fill="#FCCC55" transform="translate(16,20)"/>
<path d="M0 0 C0.7425 0.45375 1.485 0.9075 2.25 1.375 C4.46930578 2.68640796 6.67967822 3.88280803 9 5 C8.01 5.66 7.02 6.32 6 7 C6 6.34 6 5.68 6 5 C5.01 5.495 5.01 5.495 4 6 C4 6.99 4 7.98 4 9 C5.65 9 7.3 9 9 9 C9.33 9.99 9.66 10.98 10 12 C3.94623366 12.41750113 0.818224 12.11311805 -4 8 C-4.33 7.01 -4.66 6.02 -5 5 C-4.34 4.34 -3.68 3.68 -3 3 C-1.68 4.32 -0.36 5.64 1 7 C1 6.34 1 5.68 1 5 C0.34 5 -0.32 5 -1 5 C-0.67 3.35 -0.34 1.7 0 0 Z " fill="#545C65" transform="translate(70,22)"/>
<path d="M0 0 C1.71084699 5.51272919 2.4606443 8.53190155 0 14 C-1.65 14 -3.3 14 -5 14 C-4.505 13.46375 -4.01 12.9275 -3.5 12.375 C-1.59754922 9.36278626 -1.61919785 7.50337981 -2 4 C-3.88375675 1.67516215 -3.88375675 1.67516215 -7 1.8125 C-9.92386603 1.79920391 -9.92386603 1.79920391 -12 3 C-12.72693904 4.97888961 -13.39816251 6.97954558 -14 9 C-14.99 8.67 -15.98 8.34 -17 8 C-17 7.34 -17 6.68 -17 6 C-16.34 5.67 -15.68 5.34 -15 5 C-14.34444881 2.47266765 -14.34444881 2.47266765 -14 0 C-8.53190155 -2.4606443 -5.51272919 -1.71084699 0 0 Z " fill="#A88839" transform="translate(84,12)"/>
<path d="M0 0 C0.66 0 1.32 0 2 0 C2 4.62 2 9.24 2 14 C-2.62 14 -7.24 14 -12 14 C-12 10.04 -12 6.08 -12 2 C-11.67 2 -11.34 2 -11 2 C-11 5.3 -11 8.6 -11 12 C-7.37 12 -3.74 12 0 12 C0 8.04 0 4.08 0 0 Z " fill="#010304" transform="translate(26,39)"/>
<path d="M0 0 C0.66 0 1.32 0 2 0 C2 4.62 2 9.24 2 14 C-2.62 14 -7.24 14 -12 14 C-12 10.04 -12 6.08 -12 2 C-11.67 2 -11.34 2 -11 2 C-11 5.3 -11 8.6 -11 12 C-7.37 12 -3.74 12 0 12 C0 8.04 0 4.08 0 0 Z " fill="#010304" transform="translate(26,18)"/>
<path d="M0 0 C0.33 0 0.66 0 1 0 C1.45543387 5.69292334 0.68246386 8.6015015 -3 13 C-6.56969854 15.80476313 -10.65995488 15.14466817 -15 15 C-14.360625 14.71125 -13.72125 14.4225 -13.0625 14.125 C-10.84793921 13.17176549 -10.84793921 13.17176549 -10 11 C-8.02111039 10.27306096 -6.02045442 9.60183749 -4 9 C-4 7.35 -4 5.7 -4 4 C-3.01 3.67 -2.02 3.34 -1 3 C-0.67 2.01 -0.34 1.02 0 0 Z " fill="#5A626C" transform="translate(90,18)"/>
<path d="M0 0 C2.625 0.375 2.625 0.375 5 1 C5.625 3.375 5.625 3.375 6 6 C4 8 4 8 1.375 8.125 C0.59125 8.08375 -0.1925 8.0425 -1 8 C-1.625 5.125 -1.625 5.125 -2 2 C-1.34 1.34 -0.68 0.68 0 0 Z " fill="#59616B" transform="translate(75,15)"/>
<path d="M0 0 C0.66 0 1.32 0 2 0 C2 4.62 2 9.24 2 14 C-2.62 14 -7.24 14 -12 14 C-12 13.34 -12 12.68 -12 12 C-8.04 12 -4.08 12 0 12 C0 8.04 0 4.08 0 0 Z " fill="#010202" transform="translate(74,39)"/>
<path d="M0 0 C1 1 1 1 1.11352539 3.31665039 C1.10828857 4.31688232 1.10305176 5.31711426 1.09765625 6.34765625 C1.09443359 7.42724609 1.09121094 8.50683594 1.08789062 9.61914062 C1.07951172 10.75544922 1.07113281 11.89175781 1.0625 13.0625 C1.05798828 14.20267578 1.05347656 15.34285156 1.04882812 16.51757812 C1.03699747 19.34510351 1.0205141 22.1725264 1 25 C0.67 25 0.34 25 0 25 C0 17.41 0 9.82 0 2 C-1.65 2.66 -3.3 3.32 -5 4 C-8.3125 4.125 -8.3125 4.125 -11 4 C-11 3.01 -11 2.02 -11 1 C-9.5437328 0.63743142 -8.08488815 0.28520207 -6.625 -0.0625 C-5.40683594 -0.35833984 -5.40683594 -0.35833984 -4.1640625 -0.66015625 C-2 -1 -2 -1 0 0 Z " fill="#181F22" transform="translate(85,33)"/>
<path d="M0 0 C1.875 1.1875 1.875 1.1875 3 3 C3.1875 5.6875 3.1875 5.6875 3 8 C2.34 8 1.68 8 1 8 C0.34 6.35 -0.32 4.7 -1 3 C-4.24208567 3.35049575 -5.61527704 3.56221181 -7.8125 6.0625 C-8.204375 6.701875 -8.59625 7.34125 -9 8 C-9.1875 5.125 -9.1875 5.125 -9 2 C-5.53076119 -0.31282587 -4.07794425 -0.42478586 0 0 Z " fill="#0A0905" transform="translate(80,13)"/>
<path d="M0 0 C2.9765625 2.6640625 2.9765625 2.6640625 3.1875 5.6875 C3.0946875 6.8321875 3.0946875 6.8321875 3 8 C3.66 8 4.32 8 5 8 C4.625 10.4375 4.625 10.4375 4 13 C3.01 13.495 3.01 13.495 2 14 C-0.3992233 9.35150485 -0.19957409 5.08913926 0 0 Z " fill="#525963" transform="translate(62,14)"/>
<path d="M0 0 C1.65 0 3.3 0 5 0 C4 3 4 3 1 5 C-1.6875 4.625 -1.6875 4.625 -4 4 C-4.66 5.65 -5.32 7.3 -6 9 C-6.33 9 -6.66 9 -7 9 C-7.125 6.625 -7.125 6.625 -7 4 C-6.34 3.34 -5.68 2.68 -5 2 C-3.68 2 -2.36 2 -1 2 C-0.67 1.34 -0.34 0.68 0 0 Z " fill="#141413" transform="translate(74,7)"/>
<path d="M0 0 C0.7425 0.45375 1.485 0.9075 2.25 1.375 C4.46930578 2.68640796 6.67967822 3.88280803 9 5 C8.01 5.66 7.02 6.32 6 7 C6 6.34 6 5.68 6 5 C5.34 5.66 4.68 6.32 4 7 C3.01 7 2.02 7 1 7 C1 6.34 1 5.68 1 5 C0.34 5 -0.32 5 -1 5 C-0.67 3.35 -0.34 1.7 0 0 Z " fill="#836C30" transform="translate(70,22)"/>
<path d="M0 0 C2.97 0 5.94 0 9 0 C9 0.99 9 1.98 9 3 C6.36 3 3.72 3 1 3 C0.67 2.01 0.34 1.02 0 0 Z " fill="#303132" transform="translate(40,64)"/>
<path d="M0 0 C1.65 0.33 3.3 0.66 5 1 C5 1.66 5 2.32 5 3 C1.78548731 4.60725635 -1.43612536 4.05748185 -5 4 C-4.360625 3.71125 -3.72125 3.4225 -3.0625 3.125 C-0.84793921 2.17176549 -0.84793921 2.17176549 0 0 Z " fill="#616A75" transform="translate(80,29)"/>
<path d="M0 0 C1.485 0.99 1.485 0.99 3 2 C3.1875 5.625 3.1875 5.625 3 9 C2.01 9 1.02 9 0 9 C0 6.03 0 3.06 0 0 Z " fill="#112C37" transform="translate(59,15)"/>
<path d="M0 0 C0.66 1.32 1.32 2.64 2 4 C1.01 4.495 1.01 4.495 0 5 C-0.65555119 7.52733235 -0.65555119 7.52733235 -1 10 C-1.33 10 -1.66 10 -2 10 C-2.1953125 3.9453125 -2.1953125 3.9453125 -2 2 C-1.34 1.34 -0.68 0.68 0 0 Z " fill="#636C77" transform="translate(65,12)"/>
</svg>
